<svg width="213" height="321" viewBox="0 0 213 321" fill="none" xmlns="http://www.w3.org/2000/svg">
<path d="M108.169 102.286C108.137 102.268 108.109 102.247 108.077 102.229C108.066 102.222 108.052 102.218 108.041 102.211C108.112 102.011 108.176 101.819 108.248 101.619C108.176 101.819 108.105 102.008 108.034 102.208C107.991 102.183 107.945 102.165 107.902 102.143C168.644 -87.0352 -81.2002 30.8817 99.5722 103.788C99.451 103.93 99.3404 104.08 99.2299 104.23C-67.7609 52.5349 11.2916 248.194 81.6009 154.598C80.7273 158.511 79.9 162.612 79.1548 166.914C73.1287 201.664 71.2887 255.877 96.7374 316.784C97.8393 319.413 100.385 321 103.07 321C103.951 321 104.849 320.829 105.712 320.469C109.207 319.006 110.858 314.987 109.396 311.491C85.3235 253.879 86.9637 202.655 92.5762 169.828C93.5104 164.353 94.5873 159.195 95.7355 154.38C85.377 279.926 279.521 174.939 111.628 108.56C111.635 108.431 111.639 108.303 111.639 108.175C300.623 168.312 180.864 -83.4507 108.169 102.286Z" fill="#27AE60"/>
</svg>
