<svg width="63" height="64" viewBox="0 0 63 64" fill="none" xmlns="http://www.w3.org/2000/svg">
<path fill-rule="evenodd" clip-rule="evenodd" d="M33.65 29.961H33.556C32.794 32.035 31.415 33.075 29.414 33.075C27.913 33.075 26.706 32.53 25.789 31.446C24.871 30.361 24.41 28.855 24.41 26.937C24.41 24.446 25.044 22.428 26.317 20.866C27.59 19.309 29.119 18.531 30.915 18.531C32.532 18.531 33.55 19.164 33.962 20.437H34.028L34.064 20.082C34.135 19.369 34.73 18.831 35.446 18.831H36.312C36.719 18.831 37.07 18.986 37.343 19.289C37.616 19.591 37.735 19.956 37.694 20.361C37.311 24.125 37.12 26.638 37.12 27.893C37.12 29.411 37.531 30.173 38.359 30.173C39.226 30.173 39.943 29.6 40.511 28.449C41.072 27.298 41.356 25.792 41.356 23.941C41.356 21.399 40.544 19.32 38.926 17.697C37.308 16.073 35.045 15.262 32.149 15.262C29.041 15.262 26.456 16.346 24.399 18.514C22.336 20.677 21.308 23.317 21.308 26.437C21.308 29.455 22.219 31.835 24.038 33.569C25.855 35.31 28.368 36.177 31.576 36.177C33.316 36.177 34.954 35.94 36.486 35.465C36.922 35.331 37.355 35.403 37.722 35.674C38.088 35.945 38.287 36.337 38.287 36.793V36.927C38.287 37.539 37.91 38.059 37.328 38.249C35.631 38.803 33.559 39.079 31.121 39.079C27.118 39.079 23.854 37.928 21.341 35.632C18.828 33.336 17.571 30.25 17.571 26.37C17.571 22.417 18.912 19.092 21.591 16.401C24.276 13.705 27.729 12.36 31.949 12.36C35.858 12.36 39.021 13.405 41.434 15.495C43.852 17.586 45.059 20.338 45.059 23.757C45.059 26.57 44.319 28.827 42.845 30.528C41.373 32.224 39.543 33.075 37.364 33.075C36.286 33.075 35.412 32.785 34.74 32.213C34.067 31.635 33.706 30.884 33.65 29.961V29.961ZM31.314 64H4.575C2.059 64 0 61.941 0 59.424V28.897C0 27.259 0.079 25.129 2.5 23.062L4.898 21.016V27.052C4.898 27.809 5.229 28.46 5.843 28.904L6.946 29.705L28.584 45.808C30.23 47.033 32.4 47.033 34.047 45.808L55.683 29.705L56.786 28.904C57.399 28.46 57.732 27.809 57.732 27.052V21.016L60.129 23.062C62.549 25.129 62.63 27.259 62.63 28.897V59.424C62.63 61.941 60.571 64 58.054 64H31.315H31.314V64ZM11.368 5.497H51.262C53.562 5.497 55.444 7.378 55.444 9.679V27.052L52.441 29.229V9.808C52.441 9.178 51.927 8.664 51.298 8.664H11.331C10.702 8.664 10.188 9.178 10.188 9.808V29.229L7.186 27.052V9.679C7.186 7.378 9.068 5.497 11.368 5.497V5.497ZM25.757 3.209L27.457 1.759C28.63 0.757 29.793 0 31.314 0C32.836 0 33.998 0.757 35.172 1.759L36.871 3.209H25.757V3.209ZM31.487 21.366C30.509 21.366 29.714 21.922 29.102 23.034C28.485 24.146 28.179 25.436 28.179 26.904C28.179 27.943 28.39 28.755 28.808 29.333C29.225 29.917 29.764 30.206 30.425 30.206C31.449 30.206 32.249 29.655 32.838 28.56C33.422 27.465 33.717 26.003 33.717 24.168C33.717 23.295 33.511 22.617 33.106 22.117C32.7 21.616 32.16 21.366 31.487 21.366V21.366Z" fill="#27AE60"/>
</svg>
