<svg width="184" height="123" viewBox="0 0 184 123" fill="none" xmlns="http://www.w3.org/2000/svg">
<path d="M9.18366 0C7.78189 0 6.46441 0.342977 5.27088 0.91342L91.8965 75.3914L178.528 0.91342C177.335 0.342977 176.017 0 174.615 0H9.18366ZM182.872 5.23913L117.904 61.0871L182.872 116.947C183.445 115.755 183.793 114.44 183.793 113.039V9.15394C183.793 7.75069 183.447 6.43232 182.872 5.23913ZM0.921358 5.24547C0.347209 6.43705 0 7.75277 0 9.15394V113.039C0 114.44 0.347209 115.755 0.921358 116.947L65.8831 61.0934L0.921358 5.24547ZM70.5736 65.133L5.27088 121.279C6.46441 121.849 7.78189 122.193 9.18366 122.193H174.615C176.016 122.193 177.33 121.849 178.522 121.279L113.201 65.133L93.8888 81.7342C93.3325 82.2129 92.6222 82.476 91.8875 82.476C91.1528 82.476 90.4425 82.2129 89.8862 81.7342L70.5736 65.133Z" fill="#219653"/>
</svg>
