<svg width="100" height="125" viewBox="0 0 100 125" fill="none" xmlns="http://www.w3.org/2000/svg">
<path d="M44.9394 27.1923C44.9394 26.1914 45.2362 25.213 45.7922 24.3808C46.3483 23.5486 47.1387 22.8999 48.0634 22.5169C48.988 22.1339 50.0056 22.0337 50.9872 22.2289C51.9689 22.4242 52.8706 22.9062 53.5783 23.6139C54.286 24.3216 54.768 25.2233 54.9633 26.205C55.1585 27.1866 55.0583 28.2042 54.6753 29.1288C54.2923 30.0535 53.6436 30.8439 52.8114 31.4C51.9792 31.956 51.0008 32.2528 49.9999 32.2528C49.3354 32.2528 48.6773 32.1219 48.0634 31.8676C47.4494 31.6133 46.8915 31.2405 46.4216 30.7706C45.9517 30.3007 45.5789 29.7428 45.3246 29.1289C45.0703 28.5149 44.9394 27.8568 44.9394 27.1923ZM55.0606 63.9442V43.3928C55.0606 35.3297 41.9031 40.064 34.6608 46.3729C43.9049 44 44.9394 43.404 44.9394 53.0527V73.6041C44.9394 81.6673 58.0969 76.9329 65.3392 70.6241C56.0951 72.9969 55.0606 73.593 55.0606 63.9442ZM95 50C95 58.9002 92.3608 67.6005 87.4161 75.0007C82.4715 82.4009 75.4434 88.1686 67.2208 91.5746C58.9981 94.9805 49.9501 95.8717 41.2209 94.1353C32.4918 92.399 24.4736 88.1132 18.1802 81.8198C11.8868 75.5264 7.601 67.5082 5.86466 58.7791C4.12833 50.0499 5.01948 41.0019 8.42542 32.7792C11.8314 24.5566 17.5991 17.5285 24.9993 12.5839C32.3996 7.6392 41.0998 5 50 5C61.9347 5 73.3807 9.74106 81.8198 18.1802C90.259 26.6193 95 38.0653 95 50ZM88 50C88 42.4843 85.7713 35.1374 81.5959 28.8883C77.4204 22.6393 71.4856 17.7687 64.542 14.8926C57.5984 12.0164 49.9578 11.2639 42.5866 12.7302C35.2153 14.1964 28.4443 17.8155 23.1299 23.1299C17.8155 28.4443 14.1964 35.2153 12.7302 42.5866C11.2639 49.9578 12.0164 57.5984 14.8926 64.542C17.7687 71.4856 22.6393 77.4204 28.8883 81.5958C35.1374 85.7713 42.4843 88 50 88C60.0747 87.9886 69.7336 83.9814 76.8575 76.8575C83.9814 69.7336 87.9886 60.0747 88 50Z" fill="#F2994A"/>
</svg>
