<svg width="454" height="413" viewBox="0 0 454 413" fill="none" xmlns="http://www.w3.org/2000/svg">
<path d="M405.967 260.43L271.72 382.594L92.5732 328.888L47.6738 153.017L181.921 30.8532L361.067 84.5594L405.967 260.43Z" fill="#F2C94C"/>
<path d="M435.933 181.556L355.126 345.815L167.067 361.657L113.478 287.422L59.9209 213.23L140.728 48.9707L328.787 33.1296L435.933 181.556Z" fill="#F2F2F2" stroke="black" stroke-width="3"/>
<path d="M198.979 279.42C198.972 278.67 198.884 277.897 198.713 277.102C198.554 276.295 198.284 275.559 197.903 274.894C197.534 274.229 197.037 273.683 196.412 273.254C195.799 272.826 195.041 272.616 194.139 272.623C193.518 272.629 192.922 272.798 192.35 273.131C191.779 273.464 191.279 273.89 190.85 274.41C190.42 274.917 190.079 275.488 189.827 276.123C189.575 276.747 189.451 277.357 189.456 277.955C189.405 278.799 189.365 279.667 189.338 280.558C189.322 281.437 189.318 282.31 189.325 283.177C189.329 283.657 189.468 284.101 189.741 284.509C190.014 284.917 190.357 285.272 190.77 285.573C191.194 285.874 191.653 286.11 192.147 286.282C192.641 286.453 193.116 286.537 193.573 286.533C194.534 286.525 195.358 286.313 196.046 285.897C196.734 285.469 197.292 284.919 197.719 284.247C198.159 283.564 198.48 282.799 198.684 281.954C198.888 281.108 198.986 280.264 198.979 279.42ZM189.145 274.459C189.363 273.895 189.657 273.388 190.028 272.94C190.411 272.491 190.847 272.118 191.337 271.821C191.838 271.512 192.387 271.279 192.983 271.122C193.58 270.952 194.212 270.865 194.88 270.859C196.122 270.848 197.255 271.05 198.278 271.463C199.312 271.876 200.196 272.46 200.929 273.215C201.674 273.959 202.25 274.851 202.658 275.89C203.077 276.93 203.292 278.07 203.302 279.313C203.314 280.648 203.108 281.881 202.684 283.009C202.26 284.126 201.653 285.087 200.863 285.89C200.084 286.694 199.14 287.317 198.031 287.76C196.933 288.192 195.716 288.401 194.38 288.389C193.97 288.381 193.553 288.35 193.131 288.295C192.72 288.24 192.315 288.149 191.916 288.024C191.516 287.898 191.128 287.744 190.752 287.559C190.387 287.363 190.045 287.126 189.726 286.847L190.199 296.916L185.258 296.747L185.725 271.254L189.012 271.331L189.145 274.459ZM218.265 287.903L218.689 286.054C218.282 286.42 217.828 286.752 217.326 287.05C216.837 287.347 216.329 287.603 215.804 287.819C215.278 288.022 214.752 288.179 214.225 288.289C213.711 288.411 213.237 288.474 212.803 288.477C212.042 288.484 211.255 288.379 210.445 288.164C209.634 287.948 208.899 287.62 208.239 287.181C207.579 286.741 207.035 286.189 206.608 285.525C206.18 284.86 205.963 284.089 205.955 283.21C205.945 282.061 206.136 281.064 206.527 280.216C206.918 279.369 207.451 278.667 208.126 278.111C208.813 277.554 209.618 277.143 210.541 276.877C211.465 276.6 212.46 276.456 213.526 276.447C214.03 276.443 214.546 276.48 215.074 276.557C215.602 276.635 216.119 276.753 216.624 276.913C217.129 277.073 217.612 277.285 218.071 277.551C218.53 277.816 218.943 278.129 219.309 278.489C219.269 277.857 219.175 277.19 219.029 276.488C218.894 275.786 218.677 275.149 218.379 274.577C218.093 273.994 217.708 273.517 217.224 273.146C216.741 272.763 216.13 272.575 215.391 272.581C214.313 272.591 213.402 272.88 212.657 273.449C211.923 274.006 211.42 274.813 211.148 275.87L206.574 275.435C206.849 274.706 207.242 274.064 207.753 273.508C208.263 272.942 208.839 272.468 209.481 272.087C210.134 271.707 210.828 271.419 211.565 271.226C212.302 271.02 213.045 270.914 213.795 270.908C214.943 270.898 215.97 271.053 216.875 271.373C217.792 271.694 218.599 272.138 219.295 272.706C219.991 273.274 220.583 273.949 221.07 274.73C221.557 275.499 221.957 276.334 222.269 277.234C222.582 278.121 222.813 279.057 222.962 280.04C223.111 281.012 223.189 281.984 223.198 282.956C223.205 283.823 223.166 284.685 223.079 285.541C222.993 286.386 222.865 287.231 222.697 288.076L218.265 287.903ZM219.154 282.921C219.187 282.651 219.208 282.387 219.218 282.129C219.239 281.871 219.26 281.607 219.281 281.337C219.218 280.787 219.02 280.303 218.689 279.884C218.357 279.453 217.955 279.093 217.484 278.804C217.013 278.503 216.501 278.279 215.949 278.132C215.397 277.984 214.857 277.912 214.33 277.917C213.72 277.922 213.153 278.033 212.627 278.248C212.102 278.452 211.647 278.743 211.264 279.121C210.88 279.499 210.579 279.947 210.361 280.465C210.143 280.982 210.037 281.552 210.042 282.173C210.047 282.805 210.146 283.385 210.338 283.91C210.542 284.424 210.821 284.873 211.176 285.257C211.531 285.629 211.961 285.918 212.467 286.125C212.984 286.331 213.559 286.432 214.192 286.426C214.754 286.421 215.304 286.335 215.842 286.166C216.38 285.997 216.87 285.765 217.313 285.468C217.767 285.159 218.151 284.793 218.463 284.368C218.788 283.932 219.018 283.449 219.154 282.921ZM234.882 288.516C233.875 288.525 232.866 288.405 231.856 288.155C230.858 287.906 229.94 287.522 229.104 287.001C228.267 286.469 227.558 285.802 226.977 284.998C226.407 284.183 226.053 283.219 225.915 282.107L230.838 282.205C230.815 282.276 230.804 282.352 230.805 282.434C230.805 282.504 230.806 282.574 230.807 282.645C230.812 283.336 230.917 283.956 231.121 284.505C231.337 285.054 231.64 285.521 232.03 285.904C232.42 286.276 232.885 286.559 233.426 286.753C233.967 286.948 234.571 287.042 235.239 287.037C235.637 287.033 236.024 286.989 236.398 286.904C236.784 286.818 237.123 286.681 237.414 286.49C237.717 286.289 237.961 286.029 238.146 285.711C238.33 285.393 238.421 284.994 238.417 284.513C238.412 283.974 238.238 283.513 237.895 283.129C237.552 282.745 237.133 282.426 236.639 282.173C236.156 281.907 235.644 281.695 235.104 281.536C234.575 281.364 234.111 281.234 233.712 281.143C233.301 281.041 232.825 280.928 232.285 280.804C231.756 280.668 231.21 280.514 230.646 280.343C230.082 280.161 229.529 279.949 228.988 279.707C228.447 279.466 227.964 279.177 227.539 278.841C227.115 278.504 226.771 278.121 226.51 277.689C226.248 277.246 226.115 276.738 226.11 276.163C226.105 275.519 226.223 274.932 226.464 274.402C226.706 273.873 227.03 273.401 227.436 272.988C227.855 272.574 228.332 272.218 228.869 271.921C229.417 271.611 229.983 271.36 230.567 271.168C231.152 270.964 231.742 270.812 232.339 270.713C232.936 270.614 233.498 270.563 234.025 270.558C234.916 270.55 235.819 270.648 236.735 270.851C237.662 271.042 238.503 271.363 239.257 271.814C240.022 272.264 240.66 272.851 241.17 273.573C241.692 274.295 241.999 275.171 242.089 276.202L237.312 276.612L237.31 276.436C237.316 275.745 237.228 275.119 237.048 274.558C236.879 273.997 236.617 273.518 236.262 273.123C235.919 272.727 235.483 272.426 234.953 272.22C234.436 272.002 233.826 271.896 233.123 271.902C232.806 271.905 232.461 271.954 232.087 272.051C231.712 272.148 231.362 272.298 231.036 272.5C230.721 272.69 230.454 272.933 230.233 273.227C230.013 273.522 229.905 273.869 229.908 274.267C229.914 274.877 230.105 275.367 230.484 275.739C230.873 276.099 231.345 276.388 231.897 276.606C232.45 276.812 233.025 276.971 233.624 277.083C234.223 277.184 234.745 277.285 235.191 277.386C235.673 277.488 236.183 277.618 236.724 277.777C237.276 277.925 237.817 278.114 238.346 278.344C238.887 278.562 239.399 278.827 239.882 279.139C240.377 279.439 240.814 279.793 241.192 280.2C241.571 280.595 241.873 281.05 242.1 281.563C242.327 282.065 242.444 282.633 242.449 283.265C242.457 284.215 242.218 285.025 241.732 285.698C241.245 286.358 240.623 286.897 239.865 287.313C239.118 287.73 238.3 288.03 237.411 288.213C236.522 288.408 235.679 288.509 234.882 288.516ZM251.346 267.087C251.349 267.509 251.271 267.908 251.11 268.284C250.961 268.661 250.747 268.991 250.468 269.274C250.189 269.558 249.863 269.783 249.489 269.951C249.116 270.118 248.712 270.203 248.278 270.207C247.845 270.211 247.434 270.132 247.046 269.972C246.67 269.811 246.339 269.591 246.056 269.312C245.772 269.033 245.547 268.707 245.379 268.334C245.212 267.96 245.127 267.562 245.123 267.14C245.119 266.707 245.198 266.302 245.359 265.925C245.519 265.537 245.739 265.201 246.018 264.918C246.297 264.634 246.623 264.409 246.997 264.241C247.382 264.074 247.791 263.988 248.225 263.985C248.659 263.981 249.064 264.06 249.44 264.22C249.816 264.381 250.146 264.601 250.43 264.88C250.714 265.159 250.933 265.491 251.089 265.876C251.256 266.25 251.342 266.653 251.346 267.087ZM250.79 271.961L249.599 288.882L246.204 288.56L245.848 271.74L250.79 271.961ZM263.487 282.786C262.561 282.794 261.64 282.685 260.724 282.458C259.82 282.22 258.996 281.84 258.253 281.319C258.269 281.776 258.302 282.245 258.353 282.725C258.404 283.205 258.484 283.673 258.594 284.129C258.715 284.573 258.865 284.994 259.044 285.391C259.235 285.787 259.472 286.137 259.756 286.439C260.052 286.73 260.399 286.961 260.799 287.133C261.211 287.306 261.698 287.389 262.26 287.385C262.788 287.38 263.279 287.282 263.735 287.091C264.19 286.887 264.586 286.62 264.923 286.289C265.272 285.958 265.556 285.569 265.774 285.122C265.993 284.675 266.141 284.193 266.219 283.677L270.551 284.606C270.218 285.336 269.743 285.955 269.126 286.464C268.521 286.973 267.845 287.383 267.097 287.695C266.35 288.017 265.567 288.253 264.748 288.4C263.94 288.548 263.162 288.625 262.412 288.631C261.064 288.643 259.861 288.454 258.803 288.065C257.745 287.675 256.85 287.109 256.117 286.365C255.395 285.621 254.837 284.718 254.441 283.655C254.057 282.58 253.859 281.374 253.847 280.039C253.836 278.738 254.048 277.511 254.484 276.359C254.919 275.195 255.532 274.182 256.321 273.32C257.111 272.458 258.06 271.776 259.169 271.274C260.29 270.76 261.524 270.498 262.871 270.486C263.856 270.478 264.835 270.592 265.81 270.83C266.784 271.056 267.661 271.424 268.439 271.932C269.216 272.43 269.843 273.075 270.319 273.868C270.806 274.66 271.054 275.619 271.064 276.744C271.073 277.846 270.859 278.779 270.42 279.545C269.993 280.298 269.424 280.918 268.713 281.405C268.002 281.88 267.191 282.227 266.279 282.446C265.367 282.664 264.436 282.778 263.487 282.786ZM262.636 271.789C262.097 271.794 261.618 271.909 261.198 272.135C260.79 272.35 260.423 272.646 260.098 273.024C259.785 273.401 259.519 273.831 259.3 274.314C259.082 274.796 258.899 275.302 258.751 275.83C258.603 276.359 258.491 276.893 258.413 277.433C258.336 277.973 258.287 278.477 258.268 278.946C258.72 279.704 259.317 280.326 260.059 280.811C260.802 281.286 261.659 281.518 262.632 281.51C263.253 281.505 263.808 281.359 264.298 281.074C264.788 280.777 265.201 280.398 265.536 279.938C265.872 279.478 266.126 278.966 266.297 278.402C266.479 277.838 266.568 277.275 266.564 276.712C266.559 276.15 266.472 275.576 266.303 274.992C266.133 274.396 265.883 273.865 265.551 273.399C265.23 272.921 264.822 272.532 264.328 272.231C263.845 271.931 263.281 271.783 262.636 271.789ZM279.43 262.275L278.455 279.704C279.295 279.228 280.087 278.659 280.831 277.996C281.575 277.334 282.237 276.607 282.816 275.817C283.407 275.015 283.904 274.167 284.306 273.273C284.72 272.367 285.011 271.444 285.179 270.505L290.672 271.548C289.839 272.798 288.818 273.978 287.609 275.09C286.4 276.202 285.084 277.198 283.662 278.077C284.487 278.586 285.295 279.218 286.086 279.973C286.878 280.728 287.612 281.547 288.287 282.432C288.975 283.317 289.586 284.232 290.121 285.176C290.657 286.121 291.087 287.037 291.411 287.925L286.058 288.938C286.039 288.141 285.921 287.299 285.702 286.41C285.484 285.521 285.189 284.639 284.818 283.763C284.459 282.887 284.036 282.047 283.548 281.242C283.061 280.426 282.539 279.704 281.983 279.076C281.388 279.386 280.793 279.678 280.197 279.953C279.614 280.216 279.024 280.449 278.428 280.654L278.035 288.146L275.014 288.418L273.915 262.797L279.43 262.275ZM305.379 287.155L305.803 285.305C305.396 285.672 304.942 286.004 304.44 286.302C303.951 286.599 303.443 286.855 302.917 287.07C302.392 287.274 301.866 287.431 301.339 287.541C300.825 287.663 300.351 287.725 299.917 287.729C299.155 287.736 298.369 287.631 297.559 287.415C296.748 287.2 296.013 286.872 295.353 286.432C294.693 285.993 294.149 285.441 293.722 284.776C293.294 284.112 293.077 283.34 293.069 282.462C293.059 281.313 293.25 280.315 293.641 279.468C294.032 278.621 294.565 277.919 295.24 277.363C295.927 276.806 296.732 276.395 297.655 276.129C298.579 275.851 299.574 275.708 300.64 275.699C301.144 275.695 301.66 275.731 302.188 275.809C302.716 275.886 303.233 276.005 303.738 276.165C304.243 276.324 304.726 276.537 305.185 276.803C305.644 277.068 306.057 277.381 306.423 277.741C306.383 277.109 306.289 276.442 306.143 275.74C306.008 275.038 305.791 274.401 305.493 273.829C305.207 273.246 304.822 272.768 304.338 272.398C303.855 272.015 303.244 271.827 302.505 271.833C301.427 271.842 300.516 272.132 299.771 272.7C299.037 273.258 298.534 274.065 298.262 275.122L293.688 274.686C293.963 273.957 294.356 273.315 294.867 272.76C295.377 272.193 295.953 271.72 296.595 271.339C297.248 270.958 297.942 270.671 298.679 270.477C299.416 270.272 300.159 270.166 300.909 270.159C302.057 270.15 303.084 270.305 303.989 270.625C304.906 270.945 305.713 271.39 306.409 271.958C307.105 272.526 307.697 273.201 308.184 273.982C308.671 274.751 309.071 275.586 309.383 276.485C309.696 277.373 309.926 278.309 310.076 279.292C310.225 280.263 310.303 281.235 310.312 282.208C310.319 283.075 310.28 283.937 310.193 284.793C310.107 285.638 309.979 286.482 309.811 287.328L305.379 287.155ZM306.268 282.172C306.301 281.903 306.322 281.639 306.332 281.381C306.353 281.123 306.374 280.859 306.395 280.589C306.332 280.039 306.134 279.554 305.803 279.135C305.471 278.704 305.069 278.345 304.598 278.056C304.127 277.755 303.615 277.531 303.063 277.383C302.511 277.236 301.971 277.164 301.444 277.169C300.834 277.174 300.267 277.284 299.741 277.5C299.216 277.703 298.761 277.995 298.378 278.373C297.994 278.751 297.693 279.199 297.475 279.717C297.257 280.234 297.151 280.803 297.156 281.424C297.161 282.057 297.26 282.636 297.452 283.162C297.656 283.676 297.935 284.125 298.29 284.509C298.645 284.881 299.075 285.17 299.581 285.376C300.098 285.583 300.673 285.683 301.306 285.678C301.868 285.673 302.418 285.586 302.956 285.418C303.494 285.249 303.984 285.016 304.427 284.72C304.881 284.411 305.265 284.044 305.577 283.62C305.902 283.183 306.132 282.701 306.268 282.172Z" fill="black"/>
<path d="M110.585 184.86C111.356 183.666 112.252 182.533 113.274 181.462C114.296 180.359 115.444 179.412 116.719 178.62C118.024 177.796 119.441 177.143 120.968 176.661C122.526 176.179 124.196 175.93 125.977 175.915C128.29 175.895 130.231 176.378 131.802 177.365C133.373 178.32 134.65 179.591 135.632 181.176C137.585 179.315 139.806 177.812 142.297 176.665C144.787 175.519 147.344 174.934 149.969 174.912C151.876 174.896 153.566 175.225 155.041 175.9C156.546 176.543 157.851 177.438 158.954 178.585C160.089 179.7 161.038 181.005 161.801 182.498C162.563 183.992 163.171 185.565 163.622 187.217C164.105 188.869 164.448 190.554 164.65 192.271C164.884 193.956 165.007 195.58 165.02 197.143C165.035 198.893 164.928 200.925 164.698 203.24C164.498 205.523 164.19 207.854 163.773 210.232C163.356 212.611 162.845 214.897 162.238 217.089C161.663 219.251 161.007 221.069 160.27 222.544L147.463 221.482C148.631 219.191 149.672 216.713 150.587 214.049C151.38 211.761 152.092 209.145 152.723 206.202C153.353 203.228 153.654 200.084 153.626 196.772C153.608 194.71 153.467 192.773 153.201 190.963C152.936 189.153 152.453 187.594 151.755 186.288C151.087 184.95 150.156 183.895 148.962 183.124C147.799 182.353 146.296 181.975 144.452 181.991C143.139 182.002 141.892 182.294 140.709 182.867C139.558 183.408 138.439 184.121 137.352 185.005C137.865 186.501 138.223 188.06 138.424 189.684C138.656 191.275 138.779 192.852 138.793 194.415C138.806 196.009 138.745 197.962 138.609 200.276C138.472 202.59 138.274 204.967 138.014 207.406C137.784 209.815 137.507 212.114 137.182 214.304C136.889 216.495 136.575 218.247 136.243 219.563L123.439 218.735C124.263 216.447 124.991 213.956 125.624 211.263C126.167 208.946 126.66 206.254 127.102 203.188C127.576 200.121 127.798 196.838 127.767 193.338C127.758 192.244 127.607 191.073 127.315 189.826C127.054 188.547 126.607 187.379 125.973 186.322C125.37 185.233 124.565 184.334 123.559 183.623C122.584 182.913 121.393 182.564 119.987 182.576C119.081 182.584 118.208 182.857 117.369 183.395C116.53 183.903 115.723 184.581 114.949 185.432C114.175 186.282 113.434 187.273 112.725 188.404C112.046 189.504 111.416 190.666 110.833 191.889L112.251 220.566L99.7461 221.892L101.8 177.248L110.243 177.831L110.585 184.86ZM189.635 164.868C189.644 165.993 189.435 167.057 189.006 168.061C188.608 169.064 188.038 169.944 187.294 170.701C186.55 171.457 185.681 172.058 184.684 172.504C183.688 172.95 182.612 173.178 181.456 173.188C180.3 173.198 179.204 172.989 178.169 172.56C177.165 172.131 176.285 171.545 175.529 170.802C174.772 170.058 174.171 169.188 173.725 168.192C173.279 167.196 173.051 166.135 173.041 165.01C173.032 163.854 173.241 162.774 173.67 161.77C174.099 160.735 174.685 159.84 175.428 159.083C176.172 158.327 177.042 157.726 178.038 157.28C179.065 156.833 180.157 156.605 181.313 156.595C182.469 156.585 183.549 156.795 184.553 157.224C185.557 157.653 186.437 158.239 187.193 158.982C187.95 159.726 188.535 160.611 188.951 161.639C189.397 162.635 189.625 163.712 189.635 164.868ZM188.152 177.865L184.977 222.988L175.923 222.128L174.975 177.275L188.152 177.865ZM246.498 197.802C246.53 201.584 245.809 204.949 244.334 207.9C242.891 210.818 240.943 213.304 238.492 215.356C236.072 217.377 233.257 218.917 230.047 219.976C226.837 221.066 223.498 221.626 220.03 221.656C216.592 221.685 213.415 221.119 210.499 219.956C207.614 218.793 205.116 217.174 203.004 215.099C200.892 212.992 199.23 210.506 198.018 207.641C196.837 204.745 196.231 201.578 196.202 198.141C196.173 194.766 196.833 191.604 198.183 188.655C199.564 185.705 201.401 183.127 203.695 180.919C206.019 178.681 208.692 176.923 211.712 175.647C214.732 174.34 217.899 173.672 221.211 173.644C224.805 173.613 228.138 174.178 231.21 175.339C234.283 176.5 236.938 178.149 239.175 180.287C241.444 182.423 243.216 184.986 244.491 187.976C245.798 190.933 246.467 194.209 246.498 197.802ZM234.682 197.435C234.67 196.029 234.563 194.577 234.363 193.078C234.162 191.549 233.837 190.067 233.387 188.633C232.968 187.168 232.41 185.798 231.711 184.523C231.044 183.216 230.206 182.082 229.198 181.122C228.189 180.131 227.01 179.36 225.662 178.809C224.313 178.227 222.779 177.943 221.061 177.958C218.436 177.98 216.269 178.639 214.562 179.935C212.854 181.2 211.508 182.821 210.525 184.798C209.573 186.744 208.904 188.891 208.518 191.238C208.163 193.585 207.995 195.821 208.013 197.946C208.025 199.352 208.116 200.82 208.285 202.35C208.486 203.848 208.795 205.33 209.214 206.795C209.633 208.26 210.176 209.662 210.844 211C211.512 212.307 212.334 213.471 213.312 214.494C214.32 215.486 215.483 216.273 216.801 216.855C218.15 217.437 219.683 217.721 221.402 217.706C223.152 217.691 224.696 217.381 226.035 216.776C227.373 216.139 228.522 215.317 229.483 214.309C230.474 213.269 231.307 212.074 231.983 210.724C232.659 209.344 233.193 207.917 233.587 206.445C233.98 204.941 234.264 203.423 234.439 201.891C234.613 200.326 234.694 198.841 234.682 197.435ZM290.911 189.358C290.901 188.171 290.532 187.033 289.804 185.946C289.107 184.827 288.208 183.85 287.107 183.016C286.006 182.181 284.781 181.52 283.433 181.031C282.085 180.543 280.786 180.304 279.536 180.315C276.974 180.337 274.776 180.918 272.942 182.059C271.108 183.2 269.605 184.682 268.433 186.504C267.292 188.295 266.45 190.318 265.907 192.573C265.363 194.797 265.101 197.033 265.12 199.283C265.138 201.314 265.359 203.406 265.784 205.559C266.24 207.68 266.959 209.627 267.943 211.4C268.959 213.173 270.284 214.63 271.919 215.772C273.553 216.883 275.589 217.428 278.027 217.407C279.933 217.391 281.585 216.955 282.984 216.099C284.415 215.243 285.624 214.154 286.613 212.833C287.632 211.481 288.463 209.974 289.105 208.312C289.747 206.619 290.233 204.943 290.562 203.284C290.636 200.97 290.71 198.641 290.783 196.297C290.888 193.921 290.931 191.608 290.911 189.358ZM301.663 153.171L300.419 221.153L291.792 220.946L291.345 212.605C290.733 214.111 289.917 215.461 288.896 216.658C287.906 217.823 286.742 218.801 285.405 219.594C284.1 220.418 282.652 221.04 281.062 221.46C279.503 221.879 277.864 222.096 276.145 222.111C272.801 222.14 269.75 221.604 266.99 220.502C264.231 219.401 261.858 217.859 259.872 215.876C257.918 213.892 256.381 211.515 255.264 208.743C254.178 205.971 253.62 202.945 253.592 199.663C253.561 196.101 254.112 192.831 255.242 189.852C256.404 186.842 258.022 184.265 260.098 182.123C262.204 179.948 264.737 178.286 267.696 177.135C270.655 175.954 273.916 175.394 277.479 175.457C278.542 175.48 279.621 175.58 280.716 175.758C281.842 175.904 282.938 176.145 284.003 176.48C285.069 176.814 286.088 177.243 287.061 177.766C288.066 178.288 288.978 178.921 289.797 179.664L288.58 152.627L301.663 153.171Z" fill="#333333"/>
<path d="M336.194 205.751C333.726 205.772 331.27 205.481 328.827 204.877C326.415 204.241 324.219 203.229 322.238 201.84C322.28 203.058 322.369 204.307 322.505 205.587C322.641 206.868 322.855 208.116 323.146 209.332C323.469 210.517 323.869 211.638 324.347 212.697C324.856 213.755 325.489 214.687 326.246 215.493C327.034 216.268 327.961 216.885 329.028 217.344C330.126 217.804 331.425 218.027 332.924 218.014C334.331 218.002 335.641 217.741 336.855 217.23C338.07 216.689 339.126 215.976 340.025 215.094C340.955 214.211 341.711 213.173 342.295 211.98C342.878 210.788 343.274 209.503 343.481 208.126L355.034 210.605C354.144 212.55 352.877 214.202 351.232 215.56C349.619 216.917 347.816 218.011 345.823 218.841C343.83 219.702 341.742 220.329 339.557 220.723C337.404 221.116 335.328 221.322 333.328 221.339C329.734 221.37 326.527 220.866 323.705 219.828C320.884 218.789 318.496 217.279 316.541 215.295C314.618 213.312 313.128 210.903 312.073 208.068C311.048 205.201 310.52 201.987 310.49 198.425C310.46 194.956 311.026 191.685 312.187 188.613C313.348 185.509 314.981 182.807 317.086 180.508C319.191 178.209 321.723 176.39 324.68 175.052C327.669 173.683 330.959 172.982 334.553 172.951C337.178 172.929 339.79 173.235 342.389 173.869C344.988 174.471 347.325 175.451 349.399 176.808C351.473 178.134 353.144 179.855 354.413 181.969C355.712 184.083 356.375 186.64 356.4 189.639C356.426 192.577 355.853 195.066 354.683 197.108C353.544 199.117 352.027 200.771 350.132 202.069C348.236 203.335 346.072 204.26 343.64 204.843C341.207 205.427 338.725 205.729 336.194 205.751ZM333.927 176.426C332.489 176.438 331.211 176.746 330.091 177.349C329.002 177.921 328.024 178.711 327.158 179.718C326.323 180.726 325.614 181.872 325.031 183.159C324.448 184.445 323.96 185.793 323.566 187.203C323.172 188.612 322.871 190.037 322.665 191.476C322.459 192.915 322.329 194.26 322.278 195.511C323.483 197.532 325.075 199.19 327.055 200.486C329.035 201.75 331.321 202.371 333.915 202.349C335.571 202.334 337.052 201.947 338.358 201.185C339.664 200.393 340.765 199.383 341.66 198.157C342.556 196.93 343.232 195.565 343.688 194.061C344.175 192.557 344.412 191.055 344.399 189.555C344.386 188.055 344.154 186.526 343.704 184.967C343.252 183.377 342.584 181.961 341.698 180.719C340.843 179.445 339.756 178.407 338.437 177.606C337.149 176.804 335.645 176.411 333.927 176.426ZM378.71 151.056L376.11 197.533C378.349 196.264 380.461 194.745 382.446 192.978C384.431 191.211 386.195 189.274 387.74 187.167C389.315 185.028 390.639 182.767 391.713 180.383C392.817 177.967 393.593 175.507 394.04 173.003L408.69 175.784C406.468 179.115 403.745 182.264 400.52 185.229C397.296 188.194 393.787 190.85 389.995 193.195C392.194 194.551 394.349 196.236 396.46 198.249C398.571 200.262 400.528 202.448 402.329 204.808C404.162 207.167 405.792 209.607 407.22 212.126C408.648 214.645 409.794 217.088 410.658 219.456L396.384 222.157C396.335 220.032 396.019 217.785 395.436 215.414C394.853 213.044 394.067 210.692 393.078 208.356C392.121 206.021 390.992 203.78 389.692 201.635C388.392 199.459 387.001 197.533 385.517 195.858C383.931 196.684 382.344 197.464 380.756 198.196C379.199 198.897 377.627 199.52 376.038 200.065L374.99 220.043L366.934 220.769L364.003 152.448L378.71 151.056Z" fill="#F2C94C"/>
</svg>
