<svg width="404" height="304" viewBox="0 0 404 304" fill="none" xmlns="http://www.w3.org/2000/svg">
<path d="M298.167 191.467L199.5 281.253L67.8332 241.781L34.8338 112.522L133.501 22.7358L265.167 62.208L298.167 191.467Z" fill="#333333"/>
<path d="M325.142 140.466L268.274 256.064L136 267.206L98.2975 214.978L60.5951 162.75L117.464 47.1511L249.737 36.0091L325.142 140.466Z" fill="#F2C94C"/>
<path d="M141.058 196.839C141.052 196.089 140.963 195.317 140.792 194.521C140.633 193.714 140.363 192.978 139.982 192.313C139.613 191.648 139.116 191.102 138.492 190.674C137.879 190.245 137.121 190.035 136.219 190.043C135.597 190.048 135.001 190.217 134.43 190.55C133.858 190.883 133.358 191.31 132.929 191.829C132.5 192.337 132.159 192.908 131.907 193.543C131.654 194.166 131.53 194.777 131.536 195.374C131.484 196.218 131.445 197.086 131.417 197.977C131.401 198.856 131.397 199.729 131.405 200.596C131.409 201.077 131.547 201.521 131.82 201.929C132.093 202.336 132.436 202.691 132.849 202.992C133.274 203.293 133.733 203.529 134.226 203.701C134.72 203.873 135.195 203.956 135.652 203.952C136.613 203.944 137.438 203.732 138.126 203.316C138.813 202.888 139.371 202.338 139.799 201.667C140.238 200.983 140.56 200.219 140.764 199.373C140.967 198.528 141.066 197.683 141.058 196.839ZM131.224 191.879C131.442 191.314 131.737 190.808 132.108 190.359C132.491 189.911 132.927 189.538 133.417 189.241C133.918 188.932 134.467 188.698 135.063 188.541C135.659 188.372 136.291 188.284 136.959 188.279C138.201 188.268 139.334 188.469 140.357 188.882C141.392 189.295 142.276 189.879 143.009 190.635C143.754 191.379 144.33 192.27 144.737 193.31C145.156 194.349 145.371 195.49 145.382 196.732C145.393 198.068 145.187 199.3 144.763 200.429C144.339 201.546 143.732 202.506 142.942 203.31C142.164 204.113 141.22 204.737 140.11 205.18C139.012 205.611 137.795 205.821 136.459 205.809C136.049 205.801 135.633 205.769 135.21 205.714C134.8 205.659 134.395 205.569 133.995 205.443C133.596 205.318 133.208 205.163 132.831 204.979C132.466 204.783 132.124 204.545 131.805 204.267L132.279 214.335L127.337 214.167L127.804 188.674L131.092 188.751L131.224 191.879ZM160.345 205.322L160.768 203.473C160.361 203.84 159.907 204.172 159.406 204.469C158.916 204.766 158.409 205.023 157.883 205.238C157.357 205.442 156.831 205.599 156.305 205.709C155.79 205.83 155.316 205.893 154.883 205.897C154.121 205.903 153.335 205.799 152.524 205.583C151.714 205.367 150.979 205.04 150.319 204.6C149.659 204.16 149.115 203.608 148.687 202.944C148.26 202.28 148.042 201.508 148.034 200.629C148.025 199.481 148.215 198.483 148.606 197.636C148.998 196.789 149.531 196.087 150.206 195.53C150.892 194.974 151.697 194.562 152.621 194.297C153.544 194.019 154.539 193.876 155.606 193.867C156.109 193.862 156.625 193.899 157.153 193.976C157.681 194.054 158.198 194.173 158.703 194.332C159.209 194.492 159.691 194.705 160.15 194.97C160.61 195.236 161.023 195.549 161.389 195.909C161.348 195.276 161.255 194.609 161.108 193.907C160.973 193.205 160.757 192.568 160.459 191.997C160.173 191.413 159.788 190.936 159.304 190.565C158.82 190.183 158.209 189.995 157.471 190.001C156.393 190.01 155.481 190.299 154.736 190.868C154.003 191.425 153.5 192.232 153.227 193.289L148.653 192.854C148.928 192.125 149.321 191.483 149.832 190.928C150.343 190.361 150.919 189.887 151.56 189.507C152.213 189.126 152.908 188.839 153.645 188.645C154.381 188.439 155.124 188.333 155.874 188.327C157.023 188.317 158.05 188.472 158.955 188.793C159.872 189.113 160.678 189.557 161.374 190.126C162.071 190.694 162.663 191.368 163.15 192.149C163.637 192.919 164.037 193.753 164.349 194.653C164.661 195.541 164.892 196.476 165.041 197.46C165.19 198.431 165.269 199.403 165.277 200.376C165.285 201.243 165.245 202.104 165.159 202.961C165.072 203.805 164.945 204.65 164.776 205.495L160.345 205.322ZM161.234 200.34C161.266 200.07 161.288 199.806 161.297 199.548C161.318 199.29 161.34 199.027 161.361 198.757C161.297 198.207 161.1 197.722 160.768 197.303C160.436 196.872 160.035 196.512 159.563 196.223C159.092 195.923 158.58 195.699 158.028 195.551C157.476 195.403 156.937 195.332 156.409 195.336C155.8 195.342 155.232 195.452 154.707 195.667C154.181 195.871 153.727 196.162 153.343 196.54C152.96 196.919 152.659 197.367 152.441 197.884C152.223 198.402 152.116 198.971 152.121 199.592C152.127 200.225 152.226 200.804 152.418 201.33C152.621 201.844 152.901 202.293 153.255 202.676C153.61 203.048 154.04 203.337 154.546 203.544C155.064 203.751 155.639 203.851 156.271 203.846C156.834 203.841 157.384 203.754 157.922 203.585C158.459 203.417 158.949 203.184 159.392 202.887C159.847 202.579 160.23 202.212 160.543 201.787C160.867 201.351 161.098 200.869 161.234 200.34ZM176.962 205.936C175.954 205.944 174.945 205.824 173.935 205.575C172.937 205.326 172.02 204.941 171.183 204.421C170.347 203.889 169.638 203.221 169.056 202.417C168.487 201.602 168.133 200.638 167.994 199.526L172.917 199.624C172.895 199.695 172.883 199.771 172.884 199.853C172.885 199.924 172.885 199.994 172.886 200.064C172.892 200.756 172.997 201.376 173.201 201.925C173.416 202.474 173.719 202.94 174.109 203.323C174.499 203.695 174.965 203.978 175.505 204.173C176.046 204.367 176.65 204.462 177.318 204.456C177.717 204.453 178.103 204.408 178.477 204.323C178.863 204.238 179.202 204.1 179.494 203.91C179.796 203.708 180.04 203.448 180.225 203.13C180.41 202.812 180.5 202.413 180.496 201.932C180.491 201.393 180.318 200.932 179.974 200.548C179.631 200.164 179.212 199.846 178.718 199.592C178.235 199.327 177.724 199.114 177.183 198.955C176.654 198.784 176.19 198.653 175.791 198.563C175.38 198.461 174.905 198.348 174.364 198.223C173.836 198.087 173.29 197.934 172.726 197.763C172.162 197.58 171.609 197.368 171.068 197.127C170.527 196.885 170.044 196.596 169.619 196.26C169.194 195.924 168.851 195.54 168.589 195.109C168.328 194.666 168.194 194.157 168.19 193.583C168.184 192.938 168.302 192.351 168.544 191.822C168.785 191.292 169.109 190.821 169.516 190.407C169.934 189.993 170.412 189.638 170.948 189.34C171.496 189.031 172.062 188.78 172.647 188.587C173.231 188.383 173.822 188.231 174.418 188.133C175.015 188.034 175.577 187.982 176.105 187.977C176.995 187.97 177.898 188.068 178.814 188.271C179.742 188.462 180.582 188.783 181.336 189.233C182.102 189.684 182.74 190.27 183.25 190.992C183.772 191.714 184.078 192.591 184.169 193.621L179.391 194.032L179.39 193.856C179.395 193.164 179.308 192.538 179.127 191.977C178.958 191.416 178.697 190.938 178.342 190.542C177.998 190.147 177.562 189.846 177.033 189.639C176.515 189.421 175.905 189.315 175.202 189.321C174.886 189.324 174.54 189.374 174.166 189.471C173.792 189.568 173.442 189.717 173.115 189.919C172.801 190.109 172.533 190.352 172.313 190.647C172.093 190.942 171.984 191.288 171.988 191.687C171.993 192.296 172.185 192.787 172.563 193.158C172.953 193.518 173.424 193.807 173.977 194.025C174.529 194.231 175.105 194.391 175.704 194.503C176.302 194.603 176.824 194.704 177.271 194.806C177.752 194.907 178.263 195.037 178.803 195.197C179.355 195.344 179.896 195.533 180.426 195.763C180.966 195.981 181.479 196.246 181.962 196.558C182.456 196.859 182.893 197.212 183.272 197.619C183.65 198.015 183.953 198.469 184.18 198.983C184.407 199.485 184.523 200.052 184.528 200.685C184.537 201.634 184.298 202.445 183.811 203.117C183.325 203.777 182.702 204.316 181.944 204.733C181.198 205.149 180.38 205.449 179.491 205.633C178.602 205.828 177.759 205.929 176.962 205.936ZM193.425 184.506C193.429 184.928 193.35 185.327 193.189 185.704C193.04 186.08 192.826 186.41 192.547 186.694C192.268 186.977 191.942 187.203 191.569 187.37C191.195 187.537 190.792 187.623 190.358 187.627C189.924 187.63 189.514 187.552 189.125 187.391C188.749 187.23 188.419 187.01 188.135 186.732C187.852 186.453 187.626 186.126 187.459 185.753C187.292 185.379 187.206 184.982 187.203 184.56C187.199 184.126 187.277 183.721 187.438 183.345C187.599 182.957 187.819 182.621 188.098 182.337C188.376 182.053 188.703 181.828 189.076 181.661C189.461 181.493 189.871 181.408 190.305 181.404C190.738 181.4 191.143 181.479 191.519 181.64C191.896 181.801 192.226 182.02 192.51 182.299C192.793 182.578 193.013 182.91 193.169 183.296C193.336 183.669 193.421 184.073 193.425 184.506ZM192.869 189.38L191.679 206.301L188.283 205.979L187.928 189.159L192.869 189.38ZM205.566 200.205C204.64 200.213 203.72 200.104 202.803 199.878C201.899 199.639 201.075 199.26 200.333 198.739C200.348 199.195 200.382 199.664 200.433 200.144C200.484 200.624 200.564 201.092 200.673 201.548C200.794 201.992 200.944 202.413 201.124 202.81C201.314 203.207 201.552 203.556 201.836 203.859C202.131 204.149 202.479 204.38 202.879 204.553C203.29 204.725 203.778 204.809 204.34 204.804C204.867 204.799 205.359 204.701 205.814 204.51C206.269 204.307 206.666 204.04 207.003 203.709C207.351 203.378 207.635 202.988 207.854 202.541C208.073 202.094 208.221 201.612 208.299 201.096L212.631 202.026C212.297 202.755 211.822 203.374 211.205 203.884C210.6 204.393 209.924 204.803 209.177 205.114C208.43 205.437 207.646 205.672 206.827 205.82C206.02 205.967 205.241 206.044 204.491 206.051C203.144 206.062 201.941 205.873 200.883 205.484C199.825 205.095 198.929 204.528 198.196 203.784C197.475 203.041 196.916 202.137 196.521 201.074C196.136 199.999 195.938 198.794 195.927 197.458C195.916 196.157 196.128 194.931 196.563 193.779C196.999 192.615 197.611 191.601 198.401 190.739C199.19 189.877 200.139 189.195 201.248 188.693C202.369 188.18 203.603 187.917 204.951 187.905C205.935 187.897 206.915 188.012 207.889 188.249C208.864 188.475 209.74 188.843 210.518 189.352C211.296 189.849 211.922 190.494 212.398 191.287C212.885 192.08 213.134 193.039 213.143 194.163C213.153 195.265 212.938 196.199 212.5 196.964C212.072 197.718 211.503 198.338 210.793 198.824C210.082 199.299 209.27 199.646 208.358 199.865C207.446 200.084 206.515 200.197 205.566 200.205ZM204.716 189.208C204.177 189.213 203.697 189.328 203.277 189.555C202.869 189.769 202.502 190.065 202.178 190.443C201.864 190.821 201.598 191.251 201.38 191.733C201.161 192.216 200.978 192.721 200.83 193.25C200.683 193.778 200.57 194.312 200.493 194.852C200.415 195.392 200.367 195.896 200.347 196.365C200.799 197.123 201.396 197.745 202.139 198.231C202.881 198.705 203.739 198.938 204.711 198.929C205.332 198.924 205.888 198.779 206.378 198.493C206.867 198.196 207.28 197.817 207.616 197.358C207.952 196.898 208.205 196.386 208.376 195.822C208.559 195.258 208.648 194.694 208.643 194.132C208.638 193.569 208.551 192.996 208.382 192.411C208.213 191.815 207.962 191.284 207.63 190.818C207.31 190.34 206.902 189.951 206.407 189.651C205.924 189.35 205.36 189.203 204.716 189.208ZM221.51 179.695L220.534 197.124C221.374 196.648 222.166 196.078 222.91 195.416C223.655 194.753 224.317 194.026 224.896 193.236C225.486 192.434 225.983 191.586 226.386 190.692C226.8 189.786 227.091 188.864 227.258 187.925L232.752 188.968C231.919 190.217 230.898 191.398 229.688 192.51C228.479 193.622 227.163 194.617 225.741 195.497C226.566 196.005 227.374 196.637 228.166 197.392C228.958 198.147 229.691 198.967 230.367 199.852C231.054 200.736 231.665 201.651 232.201 202.596C232.736 203.54 233.166 204.457 233.49 205.345L228.137 206.357C228.119 205.561 228 204.718 227.782 203.829C227.563 202.94 227.268 202.058 226.898 201.182C226.539 200.306 226.115 199.466 225.628 198.662C225.14 197.846 224.619 197.124 224.062 196.496C223.467 196.805 222.872 197.098 222.277 197.372C221.693 197.635 221.103 197.869 220.507 198.073L220.115 205.565L217.093 205.837L215.994 180.217L221.51 179.695ZM247.459 204.574L247.882 202.725C247.475 203.092 247.021 203.424 246.52 203.721C246.03 204.018 245.523 204.274 244.997 204.49C244.471 204.694 243.945 204.85 243.419 204.96C242.904 205.082 242.43 205.145 241.997 205.148C241.235 205.155 240.449 205.05 239.638 204.835C238.828 204.619 238.093 204.291 237.433 203.852C236.773 203.412 236.229 202.86 235.801 202.196C235.374 201.531 235.156 200.76 235.148 199.881C235.139 198.733 235.329 197.735 235.72 196.888C236.112 196.04 236.645 195.339 237.32 194.782C238.006 194.225 238.811 193.814 239.735 193.548C240.658 193.271 241.653 193.128 242.72 193.118C243.223 193.114 243.739 193.151 244.267 193.228C244.795 193.306 245.312 193.424 245.817 193.584C246.323 193.744 246.805 193.956 247.264 194.222C247.724 194.488 248.137 194.8 248.503 195.161C248.462 194.528 248.369 193.861 248.222 193.159C248.087 192.457 247.871 191.82 247.573 191.249C247.287 190.665 246.902 190.188 246.418 189.817C245.934 189.434 245.323 189.246 244.585 189.253C243.507 189.262 242.595 189.551 241.85 190.12C241.116 190.677 240.614 191.484 240.341 192.541L235.767 192.106C236.042 191.377 236.435 190.735 236.946 190.18C237.457 189.613 238.033 189.139 238.674 188.758C239.327 188.378 240.022 188.091 240.759 187.897C241.495 187.691 242.238 187.585 242.988 187.579C244.137 187.569 245.164 187.724 246.069 188.045C246.986 188.365 247.792 188.809 248.488 189.377C249.185 189.946 249.776 190.62 250.264 191.401C250.751 192.17 251.151 193.005 251.463 193.905C251.775 194.793 252.006 195.728 252.155 196.711C252.304 197.683 252.383 198.655 252.391 199.627C252.398 200.495 252.359 201.356 252.273 202.212C252.186 203.057 252.059 203.902 251.89 204.747L247.459 204.574ZM248.348 199.592C248.38 199.322 248.402 199.058 248.411 198.8C248.432 198.542 248.454 198.278 248.475 198.009C248.411 197.458 248.214 196.974 247.882 196.555C247.55 196.124 247.149 195.764 246.677 195.475C246.206 195.174 245.694 194.95 245.142 194.803C244.59 194.655 244.051 194.584 243.523 194.588C242.914 194.593 242.346 194.704 241.821 194.919C241.295 195.123 240.841 195.414 240.457 195.792C240.074 196.171 239.773 196.618 239.555 197.136C239.337 197.653 239.23 198.223 239.235 198.844C239.241 199.477 239.34 200.056 239.532 200.582C239.735 201.095 240.014 201.544 240.369 201.928C240.724 202.3 241.154 202.589 241.66 202.796C242.177 203.002 242.753 203.103 243.385 203.097C243.948 203.093 244.498 203.006 245.036 202.837C245.573 202.668 246.063 202.436 246.506 202.139C246.961 201.83 247.344 201.464 247.657 201.039C247.981 200.603 248.212 200.12 248.348 199.592Z" fill="#333333"/>
<path d="M100.912 130.588C101.683 129.394 102.58 128.261 103.602 127.19C104.624 126.087 105.772 125.14 107.047 124.348C108.352 123.524 109.768 122.871 111.295 122.389C112.854 121.907 114.524 121.658 116.305 121.643C118.617 121.623 120.559 122.107 122.13 123.093C123.701 124.049 124.977 125.319 125.96 126.904C127.913 125.044 130.134 123.54 132.624 122.394C135.115 121.247 137.672 120.663 140.297 120.64C142.203 120.624 143.894 120.953 145.368 121.628C146.874 122.271 148.179 123.166 149.282 124.313C150.417 125.428 151.366 126.733 152.128 128.226C152.891 129.72 153.499 131.293 153.95 132.945C154.433 134.597 154.776 136.282 154.978 137.999C155.211 139.685 155.335 141.309 155.348 142.871C155.363 144.621 155.256 146.653 155.025 148.968C154.826 151.251 154.518 153.582 154.101 155.96C153.684 158.339 153.172 160.625 152.566 162.818C151.991 164.979 151.335 166.797 150.597 168.272L137.791 167.21C138.959 164.919 140 162.441 140.915 159.777C141.707 157.489 142.419 154.873 143.05 151.93C143.681 148.956 143.982 145.813 143.954 142.5C143.936 140.438 143.794 138.501 143.529 136.691C143.263 134.881 142.781 133.322 142.082 132.016C141.415 130.678 140.484 129.623 139.29 128.852C138.127 128.081 136.623 127.703 134.78 127.719C133.467 127.73 132.22 128.022 131.037 128.595C129.885 129.136 128.766 129.849 127.68 130.733C128.193 132.229 128.55 133.788 128.752 135.412C128.984 137.004 129.107 138.581 129.121 140.143C129.134 141.737 129.073 143.691 128.936 146.004C128.8 148.318 128.602 150.695 128.341 153.135C128.112 155.543 127.835 157.842 127.51 160.033C127.216 162.223 126.903 163.976 126.571 165.291L113.766 164.463C114.59 162.175 115.319 159.684 115.952 156.991C116.495 154.674 116.987 151.982 117.43 148.916C117.903 145.849 118.125 142.566 118.095 139.066C118.086 137.972 117.935 136.802 117.643 135.554C117.382 134.275 116.935 133.107 116.301 132.05C115.697 130.961 114.893 130.062 113.887 129.352C112.912 128.641 111.721 128.292 110.315 128.304C109.409 128.312 108.536 128.585 107.697 129.124C106.858 129.631 106.051 130.31 105.277 131.16C104.503 132.011 103.761 133.001 103.052 134.132C102.374 135.232 101.744 136.394 101.16 137.618L102.579 166.294L90.0738 167.62L92.1279 122.976L100.571 123.56L100.912 130.588ZM179.962 110.596C179.972 111.721 179.762 112.785 179.334 113.789C178.936 114.793 178.365 115.672 177.622 116.429C176.878 117.185 176.008 117.787 175.012 118.233C174.016 118.679 172.94 118.907 171.784 118.917C170.627 118.927 169.532 118.717 168.497 118.289C167.493 117.86 166.613 117.273 165.857 116.53C165.1 115.786 164.499 114.917 164.053 113.92C163.607 112.924 163.379 111.864 163.369 110.739C163.359 109.582 163.569 108.502 163.998 107.499C164.426 106.464 165.012 105.568 165.756 104.812C166.499 104.055 167.369 103.454 168.365 103.008C169.393 102.562 170.485 102.333 171.641 102.323C172.797 102.314 173.877 102.523 174.881 102.952C175.885 103.381 176.765 103.967 177.521 104.711C178.277 105.454 178.863 106.34 179.278 107.367C179.724 108.364 179.952 109.44 179.962 110.596ZM178.48 123.594L175.305 168.716L166.251 167.857L165.303 123.004L178.48 123.594ZM281.239 135.086C281.229 133.899 280.86 132.761 280.131 131.674C279.434 130.555 278.535 129.578 277.434 128.744C276.333 127.91 275.109 127.248 273.761 126.76C272.413 126.271 271.114 126.032 269.864 126.043C267.302 126.065 265.103 126.647 263.269 127.787C261.435 128.928 259.932 130.41 258.76 132.233C257.62 134.024 256.778 136.047 256.234 138.301C255.691 140.525 255.429 142.762 255.448 145.011C255.466 147.043 255.687 149.135 256.112 151.287C256.567 153.408 257.287 155.355 258.271 157.128C259.286 158.901 260.611 160.358 262.246 161.501C263.881 162.612 265.917 163.157 268.354 163.136C270.261 163.119 271.913 162.683 273.312 161.827C274.742 160.971 275.952 159.883 276.94 158.562C277.96 157.209 278.791 155.702 279.433 154.04C280.075 152.347 280.56 150.671 280.89 149.012C280.964 146.699 281.037 144.37 281.111 142.025C281.216 139.649 281.258 137.336 281.239 135.086ZM291.991 98.899L290.747 166.881L282.12 166.674L281.673 158.334C281.061 159.839 280.244 161.19 279.223 162.386C278.233 163.551 277.07 164.53 275.733 165.322C274.427 166.146 272.979 166.768 271.389 167.188C269.83 167.608 268.192 167.825 266.473 167.839C263.129 167.868 260.078 167.332 257.318 166.231C254.558 165.129 252.186 163.587 250.2 161.604C248.245 159.621 246.709 157.243 245.592 154.471C244.505 151.699 243.948 148.673 243.92 145.392C243.889 141.829 244.439 138.559 245.57 135.58C246.732 132.57 248.35 129.994 250.426 127.851C252.532 125.676 255.065 124.014 258.024 122.864C260.982 121.682 264.243 121.123 267.807 121.186C268.869 121.208 269.948 121.308 271.044 121.486C272.17 121.633 273.266 121.873 274.331 122.208C275.397 122.542 276.416 122.971 277.389 123.494C278.394 124.017 279.305 124.65 280.124 125.393L278.908 98.3551L291.991 98.899ZM326.522 151.479C324.053 151.501 321.598 151.209 319.155 150.605C316.743 149.97 314.547 148.957 312.566 147.568C312.608 148.786 312.697 150.036 312.833 151.316C312.969 152.596 313.182 153.844 313.474 155.06C313.797 156.245 314.197 157.367 314.675 158.425C315.184 159.483 315.817 160.415 316.574 161.221C317.362 161.996 318.289 162.613 319.356 163.073C320.453 163.532 321.752 163.755 323.252 163.742C324.658 163.73 325.969 163.469 327.183 162.958C328.397 162.417 329.454 161.705 330.352 160.822C331.282 159.939 332.039 158.901 332.623 157.708C333.206 156.516 333.601 155.231 333.808 153.854L345.361 156.333C344.472 158.279 343.205 159.93 341.56 161.288C339.947 162.646 338.143 163.739 336.15 164.569C334.158 165.43 332.069 166.057 329.885 166.451C327.732 166.845 325.656 167.05 323.656 167.067C320.062 167.098 316.855 166.594 314.033 165.556C311.212 164.518 308.824 163.007 306.869 161.024C304.946 159.04 303.456 156.631 302.4 153.796C301.376 150.93 300.848 147.715 300.818 144.153C300.788 140.684 301.353 137.414 302.515 134.341C303.675 131.237 305.309 128.536 307.414 126.236C309.519 123.937 312.051 122.118 315.008 120.78C317.996 119.411 321.287 118.711 324.881 118.68C327.506 118.657 330.118 118.963 332.717 119.597C335.316 120.2 337.653 121.18 339.727 122.537C341.801 123.863 343.472 125.583 344.74 127.697C346.04 129.811 346.702 132.368 346.728 135.368C346.753 138.305 346.181 140.794 345.011 142.836C343.872 144.846 342.355 146.499 340.46 147.797C338.564 149.063 336.4 149.988 333.968 150.572C331.535 151.155 329.053 151.458 326.522 151.479ZM324.254 122.154C322.817 122.166 321.538 122.474 320.418 123.078C319.33 123.649 318.352 124.439 317.486 125.447C316.65 126.454 315.942 127.601 315.359 128.887C314.776 130.173 314.288 131.521 313.893 132.931C313.499 134.341 313.199 135.765 312.993 137.204C312.786 138.644 312.657 139.989 312.605 141.239C313.81 143.26 315.403 144.918 317.383 146.214C319.362 147.478 321.649 148.099 324.243 148.077C325.899 148.063 327.38 147.675 328.686 146.914C329.992 146.121 331.093 145.112 331.988 143.885C332.884 142.659 333.56 141.294 334.016 139.79C334.503 138.285 334.74 136.783 334.727 135.283C334.714 133.783 334.482 132.254 334.031 130.695C333.58 129.105 332.912 127.689 332.026 126.447C331.171 125.173 330.084 124.135 328.765 123.334C327.477 122.533 325.973 122.139 324.254 122.154ZM369.038 96.784L366.437 143.261C368.676 141.992 370.789 140.474 372.773 138.707C374.758 136.94 376.523 135.002 378.067 132.895C379.643 130.757 380.967 128.495 382.041 126.111C383.145 123.695 383.921 121.235 384.368 118.731L399.017 121.512C396.796 124.844 394.073 127.992 390.848 130.957C387.623 133.923 384.115 136.578 380.322 138.923C382.522 140.279 384.677 141.964 386.788 143.977C388.899 145.99 390.855 148.177 392.657 150.536C394.49 152.896 396.12 155.335 397.548 157.854C398.976 160.373 400.122 162.816 400.986 165.184L386.712 167.885C386.663 165.76 386.346 163.513 385.763 161.143C385.181 158.773 384.395 156.42 383.406 154.085C382.448 151.749 381.32 149.509 380.02 147.363C378.72 145.187 377.328 143.261 375.845 141.587C374.258 142.413 372.671 143.192 371.084 143.924C369.527 144.625 367.954 145.248 366.365 145.793L365.318 165.772L357.262 166.497L354.331 98.176L369.038 96.784Z" fill="#333333"/>
<path d="M236.825 143.531C236.858 147.312 236.137 150.678 234.662 153.628C233.218 156.547 231.271 159.032 228.82 161.085C226.399 163.105 223.584 164.645 220.375 165.704C217.165 166.794 213.826 167.354 210.357 167.384C206.92 167.413 203.743 166.847 200.827 165.684C197.942 164.522 195.443 162.902 193.332 160.827C191.22 158.72 189.558 156.234 188.346 153.369C187.164 150.473 186.559 147.306 186.53 143.869C186.501 140.494 187.161 137.332 188.511 134.383C189.892 131.433 191.729 128.855 194.023 126.648C196.347 124.409 199.02 122.652 202.04 121.376C205.06 120.068 208.227 119.4 211.539 119.372C215.133 119.341 218.466 119.906 221.538 121.067C224.611 122.229 227.266 123.878 229.503 126.015C231.771 128.152 233.543 130.715 234.819 133.704C236.126 136.661 236.795 139.937 236.825 143.531ZM225.009 143.163C224.997 141.757 224.891 140.305 224.691 138.807C224.49 137.277 224.165 135.795 223.715 134.362C223.296 132.897 222.737 131.526 222.039 130.251C221.371 128.944 220.534 127.811 219.525 126.851C218.517 125.859 217.338 125.088 215.99 124.537C214.641 123.955 213.107 123.671 211.388 123.686C208.764 123.709 206.597 124.368 204.89 125.664C203.182 126.928 201.836 128.549 200.853 130.527C199.901 132.472 199.232 134.619 198.846 136.966C198.491 139.313 198.323 141.549 198.341 143.674C198.353 145.08 198.444 146.548 198.613 148.078C198.813 149.576 199.123 151.058 199.542 152.523C199.961 153.988 200.504 155.39 201.172 156.728C201.839 158.035 202.662 159.2 203.639 160.223C204.648 161.214 205.811 162.001 207.129 162.583C208.477 163.166 210.011 163.449 211.73 163.435C213.48 163.419 215.024 163.109 216.363 162.504C217.701 161.868 218.85 161.045 219.81 160.037C220.801 158.997 221.635 157.802 222.311 156.453C222.987 155.072 223.521 153.645 223.915 152.173C224.308 150.67 224.592 149.152 224.766 147.619C224.94 146.055 225.021 144.57 225.009 143.163Z" fill="#F2F2F2"/>
</svg>
