<svg width="356" height="226" viewBox="0 0 356 226" fill="none" xmlns="http://www.w3.org/2000/svg">
<path d="M97.576 64.0902L97.5797 64.0798L97.6451 64.1162L97.8536 63.5836C108.618 36.0886 121.051 24.9861 131.757 22.9862C142.43 20.9923 151.665 28.0079 156.173 37.4322C160.682 46.8569 160.355 58.4616 152.154 65.5248C148.087 69.0277 142.032 71.4612 133.567 71.9498C128.793 70.9756 124.213 70.1827 120.01 69.5341C113.887 68.5893 108.558 67.9502 104.584 67.5033C103.758 67.4104 102.993 67.326 102.292 67.249C101.406 66.9838 100.508 66.7065 99.5976 66.4169L98.946 66.2096V66.8733C98.3655 66.8032 97.928 66.7441 97.6355 66.6939C97.6188 66.6697 97.5993 66.6457 97.5765 66.6225C97.4104 66.453 97.2009 66.4468 97.074 66.4736C96.9633 66.4968 96.8783 66.5486 96.8316 66.58C96.6549 66.6988 96.4445 66.9376 96.2344 67.1976C95.7837 67.7554 95.1261 68.6816 94.3367 69.8464C92.7533 72.1828 90.6035 75.5333 88.4432 78.9583C86.2821 82.3845 84.1074 85.8901 82.4733 88.5388C81.6561 89.8633 80.974 90.9736 80.4961 91.7529C80.2572 92.1426 80.0693 92.4495 79.9412 92.659L79.7948 92.8984L79.7573 92.9599L79.7571 92.9601C69.4066 106.725 59.1155 109.819 51.0685 107.468C42.9644 105.1 36.9085 97.1551 35.1756 88.3872C33.4475 79.6433 36.0403 70.1982 45.0905 64.791C54.1786 59.3612 69.9068 57.9203 94.6198 65.5687L94.9591 65.6737L95.1699 65.388C95.2491 65.2808 95.2845 65.1441 95.2624 65.0071C95.2435 64.8893 95.1883 64.8086 95.1569 64.7694C95.0975 64.6948 95.03 64.6536 95.0102 64.6416C94.9562 64.6086 94.8982 64.5845 94.861 64.5698C94.7767 64.5364 94.6644 64.4996 94.5452 64.4628C94.3025 64.388 93.9766 64.2968 93.6604 64.2083L93.6545 64.2067C93.347 64.1207 93.0489 64.0373 92.826 63.9694L92.4755 63.8281C65.7116 53.0369 55.0889 40.6566 53.3842 30.0446C51.6835 19.4583 58.8233 10.3491 68.2699 5.97547C77.7151 1.60249 89.2381 2.06894 96.1953 10.3818C103.174 18.7207 105.747 35.1596 96.7533 63.1639L96.6222 63.5722L97.0058 63.764C97.0192 63.7707 97.0314 63.7764 97.04 63.7803L97.0516 63.7856L97.0596 63.7893C97.0605 63.7897 97.0613 63.79 97.0619 63.7903L97.576 64.0902ZM139.592 98.2897C136.522 88.8043 126.599 78.5549 106.052 69.359C117.064 72.3261 126.135 73.3609 133.494 72.9556C142.552 74.8089 152.296 77.3155 161.481 80.7272C175.546 85.952 188.22 93.2707 195.155 103.541C202.057 113.762 203.336 127 194.413 144.256L194.306 144.464L194.318 144.494C194.232 144.613 194.086 144.786 193.87 145.014C193.437 145.475 192.771 146.114 191.895 146.909C190.144 148.497 187.582 150.68 184.424 153.244C178.11 158.371 169.434 165.01 160.151 171.442C150.866 177.877 140.988 184.094 132.27 188.386C127.91 190.532 123.855 192.19 120.317 193.154C118.187 193.735 116.266 194.058 114.591 194.095L114.595 193.874L113.998 193.852C109.648 193.53 106.174 189.584 103.419 183.39C100.562 176.969 98.583 168.357 97.2166 159.641C94.4854 142.217 94.2251 124.521 94.2251 123.477V123.377L94.1866 123.284C90.7468 115.027 89.6993 109.402 89.5407 105.35C90.748 117.198 95.9355 124.208 102.682 127.444C111.263 131.56 122.165 129.462 130.059 123.795C137.968 118.118 142.982 108.763 139.592 98.2897Z" fill="#27AE60" fill-opacity="0.84" stroke="black"/>
<path d="M17.7099 207.961C17.7035 207.211 17.6148 206.438 17.4439 205.643C17.2846 204.836 17.0146 204.1 16.6339 203.435C16.2649 202.77 15.768 202.224 15.1432 201.795C14.5301 201.367 13.7724 201.157 12.8701 201.165C12.2491 201.17 11.6528 201.339 11.0815 201.672C10.5101 202.005 10.0098 202.431 9.58067 202.951C9.15142 203.458 8.81061 204.03 8.55824 204.665C8.30577 205.288 8.18211 205.898 8.18724 206.496C8.1359 207.34 8.09647 208.208 8.06896 209.099C8.05308 209.978 8.04886 210.851 8.05631 211.718C8.06043 212.198 8.19902 212.643 8.47206 213.05C8.74511 213.458 9.08801 213.813 9.50077 214.114C9.92524 214.415 10.3843 214.651 10.878 214.823C11.3717 214.994 11.847 215.078 12.304 215.074C13.2649 215.066 14.0893 214.854 14.7772 214.438C15.4649 214.01 16.0227 213.46 16.4506 212.789C16.89 212.105 17.2116 211.341 17.4153 210.495C17.619 209.649 17.7172 208.805 17.7099 207.961ZM7.87596 203.001C8.09377 202.436 8.38826 201.93 8.75942 201.481C9.1423 201.033 9.57857 200.66 10.0682 200.362C10.5695 200.053 11.1183 199.82 11.7146 199.663C12.3108 199.494 12.9429 199.406 13.6109 199.4C14.853 199.39 15.9856 199.591 17.0088 200.004C18.0436 200.417 18.9276 201.001 19.6606 201.757C20.4053 202.5 20.9814 203.392 21.3887 204.431C21.8078 205.471 22.0227 206.612 22.0334 207.854C22.0449 209.19 21.8387 210.422 21.4147 211.551C20.9907 212.668 20.3837 213.628 19.5937 214.432C18.8154 215.235 17.8715 215.858 16.762 216.302C15.6641 216.733 14.4471 216.943 13.111 216.931C12.7008 216.922 12.2845 216.891 11.8621 216.836C11.4515 216.781 11.0464 216.691 10.6469 216.565C10.2473 216.44 9.85927 216.285 9.48267 216.1C9.11769 215.904 8.7758 215.667 8.45699 215.389L8.9302 225.457L3.98912 225.289L4.45572 199.795L7.74362 199.873L7.87596 203.001ZM36.9964 216.444L37.42 214.595C37.013 214.962 36.5588 215.294 36.0574 215.591C35.5677 215.888 35.0602 216.144 34.5347 216.36C34.009 216.564 33.483 216.721 32.9566 216.831C32.442 216.952 31.9679 217.015 31.5343 217.019C30.7726 217.025 29.9866 216.92 29.1761 216.705C28.3656 216.489 27.6303 216.161 26.9703 215.722C26.3102 215.282 25.7664 214.73 25.3388 214.066C24.9112 213.401 24.6937 212.63 24.6861 211.751C24.6762 210.603 24.8669 209.605 25.2581 208.758C25.6493 207.911 26.1823 207.209 26.8572 206.652C27.5439 206.095 28.349 205.684 29.2725 205.418C30.1959 205.141 31.1908 204.998 32.2572 204.988C32.7611 204.984 33.2771 205.021 33.8051 205.098C34.3331 205.176 34.8498 205.294 35.3551 205.454C35.8604 205.614 36.3427 205.826 36.802 206.092C37.2613 206.358 37.6742 206.67 38.0406 207.031C38 206.398 37.9064 205.731 37.7597 205.029C37.6248 204.327 37.4084 203.69 37.1105 203.119C36.8242 202.535 36.4392 202.058 35.9556 201.687C35.4718 201.304 34.8608 201.116 34.1225 201.123C33.0444 201.132 32.1328 201.421 31.3877 201.99C30.6542 202.547 30.1513 203.354 29.8791 204.411L25.3049 203.976C25.5799 203.247 25.9728 202.605 26.4837 202.05C26.9945 201.483 27.5705 201.009 28.2118 200.628C28.8648 200.248 29.5596 199.961 30.2963 199.767C31.0328 199.561 31.7761 199.455 32.526 199.449C33.6744 199.439 34.7012 199.594 35.6063 199.915C36.5232 200.235 37.3298 200.679 38.0261 201.247C38.7224 201.816 39.3141 202.49 39.8013 203.271C40.2884 204.041 40.6882 204.875 41.0006 205.775C41.3129 206.663 41.5436 207.598 41.6927 208.581C41.8417 209.553 41.9204 210.525 41.9287 211.497C41.9362 212.365 41.8967 213.226 41.8103 214.082C41.7238 214.927 41.5963 215.772 41.4277 216.617L36.9964 216.444ZM37.8853 211.462C37.9181 211.192 37.9393 210.928 37.9488 210.67C37.97 210.412 37.9912 210.148 38.0123 209.879C37.949 209.328 37.7515 208.844 37.4197 208.425C37.0879 207.994 36.6863 207.634 36.2151 207.345C35.7437 207.044 35.232 206.82 34.68 206.673C34.1279 206.525 33.5882 206.454 33.0609 206.458C32.4515 206.463 31.8841 206.574 31.3586 206.789C30.833 206.993 30.3784 207.284 29.9949 207.662C29.6115 208.041 29.3106 208.488 29.0924 209.006C28.8742 209.524 28.7677 210.093 28.7731 210.714C28.7785 211.347 28.8772 211.926 29.0692 212.452C29.2729 212.966 29.5521 213.414 29.907 213.798C30.2618 214.17 30.692 214.459 31.1977 214.666C31.7151 214.872 32.2902 214.973 32.923 214.967C33.4855 214.963 34.0356 214.876 34.5732 214.707C35.1108 214.538 35.601 214.306 36.0438 214.009C36.4982 213.7 36.8818 213.334 37.1946 212.909C37.519 212.473 37.7492 211.99 37.8853 211.462ZM53.6136 217.057C52.6058 217.066 51.597 216.946 50.587 216.697C49.5887 216.447 48.6713 216.063 47.8348 215.543C46.9981 215.011 46.2892 214.343 45.7081 213.539C45.1386 212.724 44.7846 211.76 44.6461 210.648L49.569 210.746C49.5462 210.817 49.5351 210.893 49.5358 210.975C49.5364 211.045 49.537 211.116 49.5376 211.186C49.5436 211.877 49.6485 212.498 49.8525 213.047C50.0681 213.596 50.371 214.062 50.761 214.445C51.1509 214.817 51.6163 215.1 52.157 215.294C52.6978 215.489 53.3021 215.583 53.9701 215.578C54.3685 215.574 54.7548 215.53 55.1291 215.445C55.5151 215.359 55.8538 215.222 56.1451 215.032C56.4481 214.83 56.692 214.57 56.8767 214.252C57.0615 213.934 57.1518 213.535 57.1477 213.054C57.1431 212.515 56.9692 212.054 56.626 211.67C56.2829 211.286 55.8641 210.968 55.3697 210.714C54.887 210.449 54.3754 210.236 53.8349 210.077C53.3061 209.905 52.842 209.775 52.4428 209.684C52.0318 209.582 51.5562 209.469 51.016 209.345C50.4875 209.209 49.9412 209.055 49.3772 208.884C48.8132 208.702 48.2605 208.49 47.7194 208.248C47.1782 208.007 46.6952 207.718 46.2705 207.382C45.8457 207.046 45.5025 206.662 45.241 206.23C44.9794 205.787 44.8461 205.279 44.8412 204.705C44.8356 204.06 44.9536 203.473 45.1952 202.944C45.4368 202.414 45.7608 201.943 46.1675 201.529C46.5858 201.115 47.0632 200.76 47.5998 200.462C48.1479 200.153 48.7141 199.902 49.2984 199.709C49.8826 199.505 50.4732 199.353 51.07 199.254C51.6668 199.155 52.2289 199.104 52.7562 199.099C53.6468 199.092 54.55 199.189 55.4659 199.392C56.3933 199.584 57.234 199.905 57.9879 200.355C58.7535 200.806 59.3914 201.392 59.9015 202.114C60.4234 202.836 60.7297 203.713 60.8206 204.743L56.0427 205.153L56.0412 204.978C56.047 204.286 55.9596 203.66 55.779 203.099C55.6101 202.538 55.3481 202.06 54.9932 201.664C54.6499 201.269 54.2137 200.968 53.6846 200.761C53.1671 200.543 52.5568 200.437 51.8537 200.443C51.5373 200.446 51.192 200.496 50.8178 200.593C50.4436 200.689 50.0933 200.839 49.7669 201.041C49.4521 201.231 49.1847 201.474 48.9645 201.769C48.7444 202.064 48.6361 202.41 48.6395 202.809C48.6447 203.418 48.8364 203.908 49.2146 204.28C49.6045 204.64 50.0757 204.929 50.6284 205.147C51.181 205.353 51.7566 205.512 52.3552 205.624C52.9538 205.725 53.4761 205.826 53.9223 205.927C54.4037 206.029 54.9146 206.159 55.455 206.319C56.0071 206.466 56.5478 206.655 57.0771 206.885C57.6181 207.103 58.1302 207.368 58.6133 207.68C59.1081 207.981 59.5448 208.334 59.9233 208.741C60.3017 209.136 60.6044 209.591 60.8315 210.105C61.0585 210.606 61.1747 211.174 61.1801 211.807C61.1883 212.756 60.9491 213.567 60.4627 214.239C59.9762 214.899 59.3538 215.438 58.5957 215.854C57.8492 216.271 57.0314 216.571 56.1424 216.754C55.2534 216.95 54.4105 217.051 53.6136 217.057ZM70.0766 195.628C70.0803 196.05 70.0017 196.449 69.8408 196.825C69.6917 197.202 69.4777 197.532 69.1989 197.815C68.9201 198.099 68.5939 198.325 68.2203 198.492C67.8467 198.659 67.4432 198.745 67.0096 198.748C66.576 198.752 66.1652 198.674 65.777 198.513C65.4006 198.352 65.0706 198.132 64.787 197.853C64.5033 197.574 64.2778 197.248 64.1106 196.875C63.9433 196.501 63.8578 196.103 63.8542 195.682C63.8505 195.248 63.9291 194.843 64.0899 194.467C64.2506 194.078 64.4704 193.743 64.7492 193.459C65.028 193.175 65.3542 192.95 65.7278 192.783C66.1131 192.615 66.5226 192.53 66.9561 192.526C67.3897 192.522 67.7947 192.601 68.1711 192.762C68.5475 192.922 68.8775 193.142 69.1612 193.421C69.4448 193.7 69.6645 194.032 69.8201 194.417C69.9874 194.791 70.0729 195.195 70.0766 195.628ZM69.5208 200.502L68.3302 217.423L64.9347 217.101L64.5793 200.281L69.5208 200.502ZM82.2178 211.327C81.292 211.335 80.3712 211.226 79.4551 210.999C78.5507 210.761 77.7271 210.381 76.9843 209.86C76.9999 210.317 77.0333 210.786 77.0843 211.266C77.1353 211.746 77.2155 212.214 77.3248 212.67C77.4459 213.114 77.596 213.535 77.7752 213.932C77.9661 214.329 78.2035 214.678 78.4873 214.98C78.7828 215.271 79.1305 215.502 79.5304 215.675C79.9421 215.847 80.4291 215.931 80.9916 215.926C81.5189 215.921 82.0103 215.823 82.4657 215.632C82.921 215.429 83.3172 215.162 83.6542 214.831C84.0029 214.499 84.2867 214.11 84.5055 213.663C84.7243 213.216 84.8726 212.734 84.9502 212.218L89.2825 213.147C88.9489 213.877 88.4738 214.496 87.857 215.005C87.252 215.515 86.5758 215.925 85.8284 216.236C85.0812 216.559 84.298 216.794 83.479 216.942C82.6716 217.089 81.8929 217.166 81.143 217.173C79.7954 217.184 78.5925 216.995 77.5344 216.606C76.4764 216.216 75.5808 215.65 74.8479 214.906C74.1266 214.162 73.5681 213.259 73.1722 212.196C72.7879 211.121 72.5901 209.916 72.5786 208.58C72.5674 207.279 72.7796 206.053 73.215 204.9C73.6503 203.736 74.2627 202.723 75.0522 201.861C75.8417 200.999 76.791 200.317 77.9 199.815C79.0206 199.301 80.2548 199.039 81.6024 199.027C82.5867 199.019 83.5662 199.133 84.541 199.371C85.5156 199.597 86.3918 199.965 87.1697 200.474C87.9474 200.971 88.5741 201.616 89.0496 202.409C89.5369 203.201 89.7854 204.16 89.7951 205.285C89.8045 206.387 89.5899 207.32 89.1511 208.086C88.724 208.84 88.1551 209.46 87.4444 209.946C86.7336 210.421 85.9221 210.768 85.0099 210.987C84.0977 211.206 83.167 211.319 82.2178 211.327ZM81.3674 200.33C80.8284 200.335 80.3489 200.45 79.929 200.676C79.5206 200.891 79.154 201.187 78.8291 201.565C78.516 201.943 78.2501 202.373 78.0316 202.855C77.8131 203.337 77.6299 203.843 77.4821 204.371C77.3343 204.9 77.2217 205.434 77.1443 205.974C77.0669 206.514 77.0185 207.018 76.9991 207.487C77.4509 208.245 78.0481 208.867 78.7906 209.353C79.5329 209.827 80.3904 210.06 81.3631 210.051C81.9841 210.046 82.5395 209.9 83.0293 209.615C83.5189 209.318 83.9317 208.939 84.2676 208.479C84.6035 208.019 84.857 207.507 85.0279 206.943C85.2106 206.379 85.2995 205.816 85.2946 205.254C85.2898 204.691 85.2029 204.118 85.0338 203.533C84.8646 202.937 84.6139 202.406 84.2818 201.94C83.9613 201.462 83.5536 201.073 83.0588 200.773C82.5757 200.472 82.012 200.325 81.3674 200.33ZM98.1614 190.816L97.186 208.245C98.0257 207.769 98.8177 207.2 99.5621 206.537C100.306 205.875 100.968 205.148 101.547 204.358C102.138 203.556 102.635 202.708 103.037 201.814C103.451 200.908 103.742 199.986 103.91 199.047L109.404 200.089C108.57 201.339 107.549 202.519 106.34 203.631C105.131 204.743 103.815 205.739 102.393 206.619C103.218 207.127 104.026 207.759 104.818 208.514C105.609 209.269 106.343 210.089 107.018 210.973C107.706 211.858 108.317 212.773 108.853 213.718C109.388 214.662 109.818 215.579 110.142 216.466L104.789 217.479C104.77 216.682 104.652 215.84 104.433 214.951C104.215 214.062 103.92 213.18 103.549 212.304C103.19 211.428 102.767 210.588 102.279 209.784C101.792 208.968 101.27 208.245 100.714 207.617C100.119 207.927 99.5238 208.219 98.9285 208.494C98.3447 208.757 97.7549 208.99 97.159 209.195L96.7663 216.687L93.7451 216.959L92.6461 191.338L98.1614 190.816ZM124.11 215.696L124.534 213.847C124.127 214.213 123.673 214.545 123.171 214.843C122.682 215.14 122.174 215.396 121.649 215.612C121.123 215.815 120.597 215.972 120.071 216.082C119.556 216.204 119.082 216.267 118.648 216.27C117.887 216.277 117.101 216.172 116.29 215.957C115.48 215.741 114.744 215.413 114.084 214.973C113.424 214.534 112.88 213.982 112.453 213.318C112.025 212.653 111.808 211.882 111.8 211.003C111.79 209.854 111.981 208.857 112.372 208.009C112.763 207.162 113.296 206.46 113.971 205.904C114.658 205.347 115.463 204.936 116.386 204.67C117.31 204.393 118.305 204.249 119.371 204.24C119.875 204.236 120.391 204.272 120.919 204.35C121.447 204.427 121.964 204.546 122.469 204.706C122.974 204.866 123.457 205.078 123.916 205.344C124.375 205.609 124.788 205.922 125.155 206.282C125.114 205.65 125.02 204.983 124.874 204.281C124.739 203.579 124.522 202.942 124.224 202.37C123.938 201.787 123.553 201.31 123.07 200.939C122.586 200.556 121.975 200.368 121.236 200.374C120.158 200.384 119.247 200.673 118.502 201.242C117.768 201.799 117.265 202.606 116.993 203.663L112.419 203.228C112.694 202.499 113.087 201.857 113.598 201.301C114.108 200.734 114.684 200.261 115.326 199.88C115.979 199.5 116.674 199.212 117.41 199.019C118.147 198.813 118.89 198.707 119.64 198.701C120.788 198.691 121.815 198.846 122.72 199.166C123.637 199.487 124.444 199.931 125.14 200.499C125.836 201.067 126.428 201.742 126.915 202.523C127.402 203.292 127.802 204.127 128.115 205.026C128.427 205.914 128.658 206.85 128.807 207.833C128.956 208.805 129.034 209.777 129.043 210.749C129.05 211.616 129.011 212.478 128.924 213.334C128.838 214.179 128.71 215.024 128.542 215.869L124.11 215.696ZM124.999 210.714C125.032 210.444 125.053 210.18 125.063 209.922C125.084 209.664 125.105 209.4 125.126 209.13C125.063 208.58 124.865 208.095 124.534 207.676C124.202 207.246 123.8 206.886 123.329 206.597C122.858 206.296 122.346 206.072 121.794 205.925C121.242 205.777 120.702 205.705 120.175 205.71C119.565 205.715 118.998 205.825 118.473 206.041C117.947 206.245 117.492 206.536 117.109 206.914C116.725 207.292 116.425 207.74 116.206 208.258C115.988 208.775 115.882 209.345 115.887 209.966C115.892 210.598 115.991 211.178 116.183 211.703C116.387 212.217 116.666 212.666 117.021 213.05C117.376 213.422 117.806 213.711 118.312 213.918C118.829 214.124 119.404 214.225 120.037 214.219C120.599 214.214 121.15 214.128 121.687 213.959C122.225 213.79 122.715 213.558 123.158 213.261C123.612 212.952 123.996 212.586 124.309 212.161C124.633 211.725 124.863 211.242 124.999 210.714Z" fill="#333333"/>
<path d="M21.374 110.135L18.7731 156.612C21.0122 155.343 23.1243 153.825 25.1092 152.058C27.0941 150.29 28.8587 148.353 30.4032 146.246C31.9786 144.108 33.303 141.846 34.3763 139.462C35.4806 137.046 36.2564 134.586 36.7037 132.082L51.3531 134.863C49.1316 138.194 46.4086 141.343 43.1839 144.308C39.9593 147.274 36.4507 149.929 32.6582 152.274C34.8574 153.63 37.0126 155.315 39.1237 157.328C41.2348 159.341 43.1912 161.528 44.9928 163.887C46.8256 166.247 48.456 168.686 49.8839 171.205C51.3119 173.724 52.4579 176.167 53.322 178.535L39.0478 181.236C38.9983 179.111 38.6821 176.864 38.0992 174.494C37.5164 172.124 36.7305 169.771 35.7416 167.436C34.784 165.1 33.6554 162.86 32.3557 160.714C31.0557 158.538 29.6641 156.612 28.1809 154.938C26.5942 155.764 25.0071 156.543 23.4195 157.275C21.863 157.976 20.2902 158.599 18.7011 159.144L17.6539 179.123L9.59729 179.848L6.66662 111.527L21.374 110.135ZM90.5758 162.449C90.5975 164.97 90.1167 167.213 89.1336 169.18C88.1711 171.126 86.8728 172.783 85.2387 174.151C83.6252 175.499 81.7485 176.525 79.6086 177.231C77.469 177.958 75.2429 178.331 72.9305 178.351C70.6389 178.371 68.521 177.993 66.5768 177.218C64.6534 176.443 62.9878 175.363 61.5801 173.979C60.1721 172.575 59.0641 170.918 58.256 169.008C57.4685 167.077 57.065 164.966 57.0453 162.674C57.026 160.424 57.4662 158.316 58.366 156.35C59.2867 154.384 60.5115 152.665 62.0406 151.193C63.5903 149.701 65.372 148.529 67.3856 147.679C69.399 146.807 71.5099 146.362 73.7181 146.343C76.1139 146.322 78.3359 146.699 80.3843 147.473C82.4327 148.247 84.2027 149.347 85.6941 150.772C87.2064 152.196 88.3878 153.905 89.2383 155.898C90.1094 157.869 90.5553 160.053 90.5758 162.449ZM82.6984 162.204C82.6904 161.266 82.6196 160.298 82.486 159.299C82.3522 158.28 82.1354 157.292 81.8355 156.336C81.5563 155.359 81.1838 154.446 80.7182 153.596C80.2732 152.724 79.7146 151.969 79.0424 151.329C78.37 150.668 77.5843 150.154 76.6853 149.786C75.7861 149.398 74.7636 149.209 73.6178 149.219C71.8679 149.234 70.4237 149.673 69.2852 150.537C68.1466 151.381 67.2496 152.461 66.5942 153.779C65.9595 155.077 65.5135 156.508 65.2561 158.072C65.0195 159.637 64.9073 161.128 64.9195 162.544C64.9275 163.482 64.988 164.46 65.1009 165.48C65.2345 166.479 65.4409 167.467 65.7202 168.444C65.9994 169.421 66.3616 170.355 66.8068 171.247C67.2518 172.118 67.8001 172.895 68.4518 173.577C69.1242 174.238 69.8996 174.762 70.778 175.151C71.6772 175.539 72.6996 175.728 73.8454 175.718C75.0121 175.708 76.0416 175.501 76.934 175.098C77.8262 174.673 78.5923 174.125 79.2324 173.453C79.8932 172.76 80.4488 171.963 80.8995 171.063C81.3499 170.143 81.7063 169.192 81.9688 168.21C82.231 167.208 82.4202 166.196 82.5364 165.174C82.6525 164.131 82.7065 163.141 82.6984 162.204ZM104.819 146.982L104.555 152.672C105.109 151.646 105.757 150.693 106.499 149.812C107.262 148.909 108.11 148.152 109.042 147.54C109.995 146.906 111.022 146.439 112.124 146.138C113.246 145.837 114.433 145.764 115.685 145.92C117.666 146.195 119.349 146.784 120.731 147.689C122.114 148.594 123.228 149.751 124.074 151.161C124.94 152.57 125.569 154.21 125.96 156.082C126.351 157.954 126.556 159.994 126.575 162.202C126.586 163.431 126.493 164.724 126.296 166.08C126.099 167.436 125.83 168.792 125.487 170.149C125.144 171.486 124.749 172.801 124.302 174.097C123.876 175.392 123.438 176.605 122.99 177.733L115.264 177.018C115.306 176.997 115.439 176.746 115.664 176.265C115.889 175.784 116.154 175.136 116.46 174.321C116.766 173.505 117.08 172.555 117.404 171.469C117.749 170.361 118.062 169.171 118.342 167.898C118.644 166.625 118.883 165.289 119.058 163.892C119.254 162.473 119.346 161.056 119.334 159.639C119.321 158.077 119.173 156.693 118.892 155.487C118.611 154.281 118.175 153.263 117.585 152.435C117.015 151.607 116.28 150.978 115.381 150.548C114.481 150.118 113.396 149.909 112.125 149.919C111.021 149.929 110.045 150.239 109.196 150.851C108.347 151.442 107.603 152.208 106.965 153.151C106.328 154.094 105.785 155.162 105.337 156.353C104.888 157.524 104.513 158.704 104.211 159.894L103.543 176.744L97.7349 177.294L96.2622 147.743L104.819 146.982ZM142.726 139.719C142.733 140.469 142.593 141.178 142.307 141.847C142.042 142.516 141.662 143.103 141.166 143.607C140.67 144.112 140.09 144.512 139.426 144.81C138.762 145.107 138.045 145.259 137.274 145.266C136.503 145.272 135.773 145.133 135.083 144.847C134.413 144.561 133.827 144.17 133.322 143.675C132.818 143.179 132.417 142.599 132.12 141.935C131.823 141.271 131.671 140.564 131.664 139.814C131.658 139.043 131.797 138.323 132.083 137.654C132.369 136.964 132.76 136.367 133.255 135.862C133.751 135.358 134.331 134.957 134.995 134.66C135.68 134.362 136.408 134.21 137.179 134.204C137.95 134.197 138.669 134.337 139.339 134.623C140.008 134.909 140.594 135.299 141.099 135.795C141.603 136.291 141.994 136.881 142.27 137.566C142.568 138.23 142.72 138.948 142.726 139.719ZM141.738 148.384L139.621 178.466L133.585 177.892L132.953 147.99L141.738 148.384ZM178.589 156.318L170.535 157.293L170.523 156.012C170.515 155.012 170.34 154.003 169.997 152.985C169.676 151.946 169.199 151.002 168.567 150.153C167.955 149.304 167.199 148.613 166.299 148.079C165.399 147.545 164.375 147.283 163.23 147.293C162.105 147.303 161.117 147.561 160.267 148.068C159.417 148.555 158.683 149.207 158.065 150.025C157.447 150.822 156.934 151.743 156.527 152.788C156.14 153.833 155.826 154.909 155.585 156.015C155.366 157.121 155.209 158.216 155.114 159.301C155.019 160.385 154.975 161.375 154.983 162.271C154.99 163.104 155.029 164.01 155.1 164.988C155.171 165.946 155.304 166.914 155.5 167.891C155.696 168.869 155.964 169.814 156.306 170.728C156.667 171.621 157.133 172.419 157.701 173.123C158.27 173.805 158.952 174.362 159.747 174.793C160.563 175.202 161.523 175.402 162.627 175.393C163.731 175.383 164.729 175.114 165.62 174.586C166.533 174.057 167.308 173.384 167.947 172.566C168.606 171.727 169.13 170.806 169.517 169.802C169.904 168.799 170.146 167.828 170.242 166.89L178.556 167.006C178.196 168.759 177.449 170.297 176.314 171.619C175.179 172.941 173.835 174.057 172.28 174.966C170.746 175.854 169.095 176.525 167.328 176.978C165.562 177.451 163.855 177.695 162.21 177.709C160.022 177.728 158.008 177.36 156.169 176.605C154.329 175.85 152.736 174.801 151.391 173.458C150.067 172.115 149.022 170.52 148.256 168.672C147.511 166.804 147.129 164.786 147.111 162.619C147.09 160.203 147.466 157.939 148.24 155.828C149.013 153.697 150.112 151.843 151.536 150.268C152.96 148.694 154.658 147.45 156.629 146.537C158.621 145.624 160.815 145.157 163.211 145.137C165.169 145.12 166.984 145.334 168.654 145.778C170.346 146.221 171.852 146.906 173.172 147.833C174.493 148.759 175.607 149.926 176.515 151.335C177.444 152.744 178.135 154.405 178.589 156.318ZM209.346 167.898L208.516 176.749L182.852 176L198.998 149.236L198.216 149.242C196.966 149.253 195.697 149.462 194.409 149.869C193.121 150.276 191.855 150.808 190.61 151.464C189.386 152.1 188.205 152.818 187.066 153.62C185.927 154.4 184.861 155.18 183.867 155.96L182.544 147.377L209.415 146.834L190.674 173.433C192.132 173.4 193.704 173.272 195.389 173.049C197.075 172.826 198.749 172.499 200.413 172.068C202.096 171.616 203.706 171.05 205.242 170.37C206.799 169.69 208.167 168.866 209.346 167.898ZM243.978 146.724C244.047 147.474 244.106 148.296 244.155 149.192C244.225 150.087 244.275 150.993 244.303 151.909C244.353 152.805 244.392 153.7 244.42 154.596C244.449 155.471 244.466 156.283 244.472 157.033C244.484 158.408 244.466 159.95 244.418 161.659C244.37 163.347 244.261 165.129 244.089 167.005C243.918 168.861 243.663 170.749 243.325 172.668C242.988 174.588 242.535 176.446 241.967 178.243C241.42 180.039 240.737 181.733 239.917 183.323C239.097 184.914 238.119 186.297 236.984 187.473C235.848 188.671 234.523 189.609 233.008 190.289C231.514 190.989 229.798 191.348 227.861 191.364C226.402 191.377 225.004 191.16 223.667 190.713C222.351 190.266 221.137 189.63 220.026 188.807C218.935 188.003 217.969 187.033 217.126 185.894C216.303 184.755 215.657 183.5 215.187 182.129L224.884 179.546C224.844 179.796 224.826 180.057 224.828 180.328C224.831 180.619 224.833 180.911 224.836 181.203C224.841 181.869 224.9 182.629 225.011 183.482C225.123 184.336 225.338 185.136 225.657 185.883C225.976 186.63 226.429 187.262 227.017 187.778C227.605 188.294 228.368 188.547 229.305 188.539C230.284 188.531 231.146 188.169 231.89 187.455C232.633 186.74 233.271 185.818 233.803 184.688C234.356 183.558 234.804 182.284 235.146 180.864C235.508 179.444 235.798 178.015 236.015 176.575C236.253 175.156 236.418 173.801 236.511 172.508C236.604 171.195 236.668 170.09 236.702 169.194C236.211 170.323 235.606 171.37 234.885 172.335C234.185 173.299 233.369 174.139 232.438 174.856C231.527 175.551 230.511 176.091 229.389 176.476C228.267 176.881 227.04 177.09 225.707 177.101C223.623 177.119 221.849 176.666 220.382 175.741C218.916 174.816 217.718 173.597 216.788 172.084C215.879 170.55 215.208 168.806 214.774 166.851C214.341 164.875 214.115 162.867 214.098 160.825C214.078 158.492 214.247 156.386 214.606 154.508C214.965 152.609 215.378 150.97 215.845 149.591C216.373 147.982 216.986 146.55 217.683 145.294L226.013 147.285C224.31 150.362 223.095 153.206 222.367 155.817C221.661 158.406 221.318 160.93 221.339 163.388C221.347 164.409 221.482 165.491 221.742 166.635C222.022 167.778 222.448 168.837 223.019 169.811C223.611 170.765 224.357 171.56 225.258 172.199C226.159 172.816 227.256 173.119 228.547 173.108C229.672 173.098 230.659 172.777 231.508 172.145C232.377 171.492 233.131 170.662 233.768 169.657C234.426 168.63 234.979 167.5 235.426 166.267C235.874 165.013 236.238 163.771 236.519 162.539C236.509 161.352 236.488 160.091 236.456 158.758C236.444 157.404 236.412 156.05 236.358 154.696C236.305 153.322 236.21 151.989 236.074 150.699C235.959 149.387 235.802 148.19 235.606 147.109L243.978 146.724ZM260.063 145.649L259.799 151.339C260.353 150.313 261.001 149.359 261.743 148.478C262.507 147.576 263.354 146.818 264.286 146.206C265.239 145.573 266.267 145.106 267.368 144.805C268.491 144.503 269.678 144.431 270.929 144.587C272.911 144.861 274.593 145.451 275.976 146.356C277.359 147.261 278.473 148.418 279.318 149.827C280.184 151.236 280.813 152.877 281.204 154.749C281.595 156.62 281.8 158.66 281.819 160.869C281.83 162.098 281.737 163.39 281.54 164.746C281.343 166.102 281.074 167.459 280.731 168.816C280.389 170.152 279.994 171.468 279.546 172.764C279.12 174.059 278.682 175.271 278.234 176.4L270.509 175.685C270.55 175.664 270.683 175.413 270.908 174.932C271.133 174.45 271.399 173.802 271.704 172.987C272.01 172.172 272.325 171.221 272.649 170.135C272.993 169.028 273.306 167.838 273.587 166.565C273.888 165.291 274.127 163.956 274.302 162.558C274.498 161.14 274.59 159.722 274.578 158.306C274.565 156.743 274.418 155.359 274.136 154.153C273.855 152.947 273.419 151.93 272.829 151.102C272.259 150.273 271.525 149.644 270.625 149.214C269.725 148.785 268.64 148.575 267.37 148.586C266.265 148.595 265.289 148.906 264.44 149.517C263.591 150.108 262.847 150.875 262.21 151.818C261.572 152.761 261.029 153.828 260.581 155.02C260.132 156.19 259.757 157.37 259.455 158.561L258.787 175.411L252.979 175.961L251.507 146.41L260.063 145.649ZM297.088 130.268L295.354 161.252C296.847 160.406 298.255 159.394 299.578 158.216C300.902 157.038 302.078 155.746 303.108 154.342C304.158 152.916 305.041 151.408 305.757 149.819C306.493 148.208 307.01 146.568 307.308 144.899L317.074 146.753C315.593 148.974 313.778 151.073 311.628 153.05C309.478 155.027 307.139 156.797 304.611 158.36C306.077 159.264 307.514 160.387 308.921 161.73C310.329 163.072 311.633 164.529 312.834 166.102C314.056 167.675 315.143 169.301 316.095 170.981C317.047 172.66 317.811 174.289 318.387 175.868L308.871 177.668C308.838 176.252 308.627 174.753 308.238 173.173C307.85 171.593 307.326 170.025 306.667 168.468C306.028 166.911 305.276 165.417 304.409 163.987C303.543 162.536 302.615 161.253 301.626 160.136C300.568 160.687 299.51 161.206 298.452 161.695C297.414 162.162 296.366 162.577 295.306 162.94L294.608 176.259L289.237 176.743L287.283 131.196L297.088 130.268ZM343.22 174.498L343.973 171.21C343.249 171.862 342.442 172.453 341.551 172.981C340.68 173.509 339.778 173.965 338.843 174.348C337.909 174.71 336.974 174.989 336.038 175.185C335.123 175.401 334.28 175.512 333.51 175.519C332.155 175.531 330.758 175.345 329.317 174.961C327.876 174.578 326.569 173.995 325.396 173.214C324.222 172.432 323.255 171.451 322.495 170.27C321.735 169.089 321.348 167.717 321.335 166.154C321.317 164.113 321.656 162.339 322.352 160.833C323.047 159.327 323.995 158.079 325.195 157.09C326.415 156.1 327.847 155.369 329.489 154.896C331.13 154.403 332.899 154.148 334.795 154.132C335.69 154.124 336.608 154.189 337.546 154.327C338.485 154.465 339.404 154.676 340.302 154.96C341.2 155.244 342.058 155.622 342.874 156.094C343.691 156.566 344.425 157.122 345.076 157.763C345.004 156.638 344.838 155.452 344.577 154.204C344.337 152.956 343.952 151.824 343.423 150.808C342.914 149.771 342.229 148.922 341.369 148.263C340.509 147.583 339.423 147.248 338.111 147.26C336.194 147.276 334.574 147.79 333.249 148.801C331.945 149.792 331.051 151.227 330.567 153.106L322.435 152.332C322.924 151.036 323.622 149.895 324.531 148.908C325.439 147.9 326.463 147.058 327.603 146.381C328.764 145.704 329.999 145.194 331.309 144.849C332.618 144.484 333.939 144.295 335.273 144.284C337.314 144.266 339.14 144.542 340.749 145.112C342.379 145.681 343.813 146.471 345.05 147.481C346.288 148.492 347.34 149.691 348.206 151.079C349.072 152.447 349.783 153.93 350.338 155.53C350.894 157.109 351.304 158.772 351.569 160.52C351.834 162.246 351.974 163.974 351.988 165.704C352.002 167.245 351.931 168.777 351.778 170.299C351.624 171.801 351.397 173.303 351.098 174.805L343.22 174.498ZM344.8 165.64C344.859 165.161 344.896 164.692 344.913 164.233C344.951 163.774 344.988 163.305 345.026 162.826C344.913 161.848 344.562 160.986 343.972 160.241C343.383 159.475 342.669 158.835 341.831 158.322C340.993 157.787 340.083 157.389 339.102 157.126C338.12 156.864 337.161 156.737 336.223 156.745C335.14 156.754 334.131 156.95 333.197 157.333C332.263 157.696 331.455 158.213 330.773 158.886C330.091 159.558 329.556 160.354 329.168 161.274C328.78 162.194 328.591 163.207 328.601 164.311C328.61 165.436 328.786 166.465 329.127 167.4C329.489 168.314 329.986 169.111 330.617 169.794C331.247 170.455 332.012 170.969 332.911 171.336C333.831 171.704 334.853 171.882 335.978 171.873C336.978 171.864 337.956 171.71 338.912 171.41C339.868 171.11 340.739 170.696 341.526 170.169C342.334 169.62 343.016 168.968 343.572 168.213C344.149 167.438 344.558 166.58 344.8 165.64Z" fill="#333333"/>
</svg>
