<svg width="404" height="304" viewBox="0 0 404 304" fill="none" xmlns="http://www.w3.org/2000/svg">
<path d="M298.167 191.467L199.5 281.253L67.8332 241.781L34.8338 112.522L133.501 22.7358L265.167 62.208L298.167 191.467Z" fill="#333333"/>
<path d="M325.142 140.466L268.274 256.064L136 267.206L98.2975 214.978L60.5951 162.75L117.464 47.1511L249.737 36.0091L325.142 140.466Z" fill="#DAC8A3"/>
<g style="mix-blend-mode:darken">
<path d="M134.721 201.144C134.715 200.394 134.626 199.622 134.455 198.826C134.296 198.019 134.026 197.283 133.645 196.618C133.276 195.953 132.779 195.407 132.155 194.979C131.542 194.55 130.784 194.34 129.882 194.348C129.26 194.353 128.664 194.522 128.093 194.855C127.521 195.188 127.021 195.615 126.592 196.134C126.163 196.642 125.822 197.213 125.57 197.848C125.317 198.471 125.193 199.082 125.199 199.679C125.147 200.523 125.108 201.391 125.08 202.282C125.064 203.161 125.06 204.034 125.068 204.901C125.072 205.382 125.21 205.826 125.483 206.234C125.756 206.641 126.099 206.996 126.512 207.297C126.937 207.598 127.396 207.834 127.889 208.006C128.383 208.178 128.858 208.261 129.315 208.257C130.276 208.249 131.101 208.037 131.789 207.621C132.476 207.193 133.034 206.643 133.462 205.972C133.901 205.288 134.223 204.524 134.427 203.678C134.63 202.833 134.729 201.988 134.721 201.144ZM124.887 196.184C125.105 195.619 125.4 195.113 125.771 194.664C126.154 194.216 126.59 193.843 127.08 193.546C127.581 193.237 128.13 193.003 128.726 192.846C129.322 192.677 129.954 192.589 130.622 192.584C131.864 192.573 132.997 192.774 134.02 193.187C135.055 193.6 135.939 194.184 136.672 194.94C137.417 195.684 137.993 196.575 138.4 197.615C138.819 198.654 139.034 199.795 139.045 201.037C139.056 202.373 138.85 203.605 138.426 204.734C138.002 205.851 137.395 206.811 136.605 207.615C135.827 208.418 134.883 209.042 133.773 209.485C132.675 209.916 131.458 210.126 130.122 210.114C129.712 210.106 129.296 210.074 128.873 210.019C128.463 209.964 128.058 209.874 127.658 209.748C127.259 209.623 126.871 209.468 126.494 209.284C126.129 209.088 125.787 208.85 125.468 208.572L125.942 218.64L121 218.472L121.467 192.979L124.755 193.056L124.887 196.184ZM154.008 209.627L154.431 207.778C154.024 208.145 153.57 208.477 153.069 208.774C152.579 209.071 152.072 209.328 151.546 209.543C151.02 209.747 150.494 209.904 149.968 210.014C149.453 210.135 148.979 210.198 148.546 210.202C147.784 210.208 146.998 210.104 146.187 209.888C145.377 209.672 144.642 209.345 143.982 208.905C143.322 208.465 142.778 207.913 142.35 207.249C141.923 206.585 141.705 205.813 141.697 204.934C141.688 203.786 141.878 202.788 142.269 201.941C142.661 201.094 143.194 200.392 143.869 199.835C144.555 199.279 145.36 198.867 146.284 198.602C147.207 198.324 148.202 198.181 149.269 198.172C149.772 198.167 150.288 198.204 150.816 198.281C151.344 198.359 151.861 198.478 152.366 198.637C152.872 198.797 153.354 199.01 153.813 199.275C154.273 199.541 154.686 199.854 155.052 200.214C155.011 199.581 154.918 198.914 154.771 198.212C154.636 197.51 154.42 196.873 154.122 196.302C153.836 195.718 153.451 195.241 152.967 194.87C152.483 194.488 151.872 194.3 151.134 194.306C150.056 194.315 149.144 194.604 148.399 195.173C147.666 195.73 147.163 196.537 146.89 197.594L142.316 197.159C142.591 196.43 142.984 195.788 143.495 195.233C144.006 194.666 144.582 194.192 145.223 193.812C145.876 193.431 146.571 193.144 147.308 192.95C148.044 192.744 148.787 192.638 149.537 192.632C150.686 192.622 151.713 192.777 152.618 193.098C153.535 193.418 154.341 193.862 155.037 194.431C155.734 194.999 156.326 195.673 156.813 196.454C157.3 197.224 157.7 198.058 158.012 198.958C158.324 199.846 158.555 200.781 158.704 201.765C158.853 202.736 158.932 203.708 158.94 204.681C158.948 205.548 158.908 206.409 158.822 207.266C158.735 208.11 158.608 208.955 158.439 209.8L154.008 209.627ZM154.897 204.645C154.929 204.375 154.951 204.111 154.96 203.853C154.981 203.595 155.003 203.332 155.024 203.062C154.96 202.512 154.763 202.027 154.431 201.608C154.099 201.177 153.698 200.817 153.226 200.528C152.755 200.228 152.243 200.004 151.691 199.856C151.139 199.708 150.6 199.637 150.072 199.641C149.463 199.647 148.895 199.757 148.37 199.972C147.844 200.176 147.39 200.467 147.006 200.845C146.623 201.224 146.322 201.672 146.104 202.189C145.886 202.707 145.779 203.276 145.784 203.897C145.79 204.53 145.889 205.109 146.081 205.635C146.284 206.149 146.564 206.598 146.918 206.981C147.273 207.353 147.703 207.642 148.209 207.849C148.727 208.056 149.302 208.156 149.934 208.151C150.497 208.146 151.047 208.059 151.585 207.89C152.122 207.722 152.612 207.489 153.055 207.192C153.51 206.884 153.893 206.517 154.206 206.092C154.53 205.656 154.761 205.174 154.897 204.645ZM170.625 210.241C169.617 210.249 168.608 210.129 167.598 209.88C166.6 209.631 165.683 209.246 164.846 208.726C164.01 208.194 163.301 207.526 162.719 206.722C162.15 205.907 161.796 204.943 161.657 203.831L166.58 203.929C166.558 204 166.546 204.076 166.547 204.158C166.548 204.229 166.548 204.299 166.549 204.369C166.555 205.061 166.66 205.681 166.864 206.23C167.079 206.779 167.382 207.245 167.772 207.628C168.162 208 168.628 208.283 169.168 208.478C169.709 208.672 170.313 208.767 170.981 208.761C171.38 208.758 171.766 208.713 172.14 208.628C172.526 208.543 172.865 208.405 173.157 208.215C173.459 208.013 173.703 207.753 173.888 207.435C174.073 207.117 174.163 206.718 174.159 206.237C174.154 205.698 173.981 205.237 173.637 204.853C173.294 204.469 172.875 204.151 172.381 203.897C171.898 203.632 171.387 203.419 170.846 203.26C170.317 203.089 169.853 202.958 169.454 202.868C169.043 202.766 168.568 202.653 168.027 202.528C167.499 202.392 166.953 202.239 166.389 202.068C165.825 201.885 165.272 201.673 164.731 201.432C164.19 201.19 163.707 200.901 163.282 200.565C162.857 200.229 162.514 199.845 162.252 199.414C161.991 198.971 161.857 198.462 161.853 197.888C161.847 197.243 161.965 196.656 162.207 196.127C162.448 195.597 162.772 195.126 163.179 194.712C163.597 194.298 164.075 193.943 164.611 193.645C165.159 193.336 165.725 193.085 166.31 192.892C166.894 192.688 167.485 192.536 168.081 192.438C168.678 192.339 169.24 192.287 169.768 192.282C170.658 192.275 171.561 192.373 172.477 192.576C173.405 192.767 174.245 193.088 174.999 193.538C175.765 193.989 176.403 194.575 176.913 195.297C177.435 196.019 177.741 196.896 177.832 197.926L173.054 198.337L173.053 198.161C173.058 197.469 172.971 196.843 172.79 196.282C172.621 195.721 172.36 195.243 172.005 194.847C171.661 194.452 171.225 194.151 170.696 193.944C170.178 193.726 169.568 193.62 168.865 193.626C168.549 193.629 168.203 193.679 167.829 193.776C167.455 193.873 167.105 194.022 166.778 194.224C166.464 194.414 166.196 194.657 165.976 194.952C165.756 195.247 165.647 195.593 165.651 195.992C165.656 196.601 165.848 197.092 166.226 197.463C166.616 197.823 167.087 198.112 167.64 198.33C168.192 198.536 168.768 198.696 169.367 198.808C169.965 198.908 170.487 199.009 170.934 199.111C171.415 199.212 171.926 199.342 172.466 199.502C173.018 199.649 173.559 199.838 174.089 200.068C174.629 200.286 175.142 200.551 175.625 200.863C176.119 201.164 176.556 201.517 176.935 201.924C177.313 202.32 177.616 202.774 177.843 203.288C178.07 203.79 178.186 204.357 178.191 204.99C178.2 205.939 177.961 206.75 177.474 207.422C176.988 208.082 176.365 208.621 175.607 209.038C174.861 209.454 174.043 209.754 173.154 209.938C172.265 210.133 171.422 210.234 170.625 210.241ZM187.088 188.811C187.092 189.233 187.013 189.632 186.852 190.009C186.703 190.385 186.489 190.715 186.21 190.999C185.931 191.282 185.605 191.508 185.232 191.675C184.858 191.842 184.455 191.928 184.021 191.932C183.587 191.935 183.177 191.857 182.788 191.696C182.412 191.535 182.082 191.315 181.798 191.037C181.515 190.758 181.289 190.431 181.122 190.058C180.955 189.684 180.869 189.287 180.866 188.865C180.862 188.431 180.94 188.026 181.101 187.65C181.262 187.262 181.482 186.926 181.761 186.642C182.039 186.358 182.366 186.133 182.739 185.966C183.124 185.798 183.534 185.713 183.968 185.709C184.401 185.705 184.806 185.784 185.182 185.945C185.559 186.106 185.889 186.325 186.173 186.604C186.456 186.883 186.676 187.215 186.832 187.601C186.999 187.974 187.084 188.378 187.088 188.811ZM186.532 193.685L185.342 210.606L181.946 210.284L181.591 193.464L186.532 193.685ZM199.229 204.51C198.303 204.518 197.383 204.409 196.466 204.183C195.562 203.944 194.738 203.565 193.996 203.044C194.011 203.5 194.045 203.969 194.096 204.449C194.147 204.929 194.227 205.397 194.336 205.853C194.457 206.297 194.607 206.718 194.787 207.115C194.977 207.512 195.215 207.861 195.499 208.164C195.794 208.454 196.142 208.685 196.542 208.858C196.953 209.03 197.441 209.114 198.003 209.109C198.53 209.104 199.022 209.006 199.477 208.815C199.932 208.612 200.329 208.345 200.666 208.014C201.014 207.683 201.298 207.293 201.517 206.846C201.736 206.399 201.884 205.917 201.962 205.401L206.294 206.331C205.96 207.06 205.485 207.679 204.868 208.189C204.263 208.698 203.587 209.108 202.84 209.419C202.093 209.742 201.309 209.977 200.49 210.125C199.683 210.272 198.904 210.349 198.154 210.356C196.807 210.367 195.604 210.178 194.546 209.789C193.488 209.4 192.592 208.833 191.859 208.089C191.138 207.346 190.579 206.442 190.184 205.379C189.799 204.304 189.601 203.099 189.59 201.763C189.579 200.462 189.791 199.236 190.226 198.084C190.662 196.92 191.274 195.906 192.064 195.044C192.853 194.182 193.802 193.5 194.911 192.998C196.032 192.485 197.266 192.222 198.614 192.21C199.598 192.202 200.578 192.317 201.552 192.554C202.527 192.78 203.403 193.148 204.181 193.657C204.959 194.154 205.585 194.799 206.061 195.592C206.548 196.385 206.797 197.344 206.806 198.468C206.816 199.57 206.601 200.504 206.163 201.269C205.735 202.023 205.166 202.643 204.456 203.129C203.745 203.604 202.933 203.951 202.021 204.17C201.109 204.389 200.178 204.502 199.229 204.51ZM198.379 193.513C197.84 193.518 197.36 193.633 196.94 193.86C196.532 194.074 196.165 194.37 195.841 194.748C195.527 195.126 195.261 195.556 195.043 196.038C194.824 196.521 194.641 197.026 194.493 197.555C194.346 198.083 194.233 198.617 194.156 199.157C194.078 199.697 194.03 200.201 194.01 200.67C194.462 201.428 195.059 202.05 195.802 202.536C196.544 203.01 197.402 203.243 198.374 203.234C198.995 203.229 199.551 203.084 200.041 202.798C200.53 202.501 200.943 202.122 201.279 201.663C201.615 201.203 201.868 200.691 202.039 200.127C202.222 199.563 202.311 198.999 202.306 198.437C202.301 197.874 202.214 197.301 202.045 196.716C201.876 196.12 201.625 195.589 201.293 195.123C200.973 194.645 200.565 194.256 200.07 193.956C199.587 193.655 199.023 193.508 198.379 193.513ZM215.173 184L214.197 201.429C215.037 200.953 215.829 200.383 216.573 199.721C217.318 199.058 217.98 198.331 218.559 197.541C219.149 196.739 219.646 195.891 220.049 194.997C220.463 194.091 220.754 193.169 220.921 192.23L226.415 193.273C225.582 194.522 224.561 195.703 223.351 196.815C222.142 197.927 220.826 198.922 219.404 199.802C220.229 200.31 221.037 200.942 221.829 201.697C222.621 202.452 223.354 203.272 224.03 204.157C224.717 205.041 225.328 205.956 225.864 206.901C226.399 207.845 226.829 208.762 227.153 209.65L221.8 210.662C221.782 209.866 221.663 209.023 221.445 208.134C221.226 207.245 220.931 206.363 220.561 205.487C220.202 204.611 219.778 203.771 219.291 202.967C218.803 202.151 218.282 201.429 217.725 200.801C217.13 201.11 216.535 201.403 215.94 201.677C215.356 201.94 214.766 202.174 214.17 202.378L213.778 209.87L210.756 210.142L209.657 184.522L215.173 184ZM241.122 208.879L241.545 207.03C241.138 207.397 240.684 207.729 240.183 208.026C239.693 208.323 239.186 208.579 238.66 208.795C238.134 208.999 237.608 209.155 237.082 209.265C236.567 209.387 236.093 209.45 235.66 209.453C234.898 209.46 234.112 209.355 233.301 209.14C232.491 208.924 231.756 208.596 231.096 208.157C230.436 207.717 229.892 207.165 229.464 206.501C229.037 205.836 228.819 205.065 228.811 204.186C228.802 203.038 228.992 202.04 229.383 201.193C229.775 200.345 230.308 199.644 230.983 199.087C231.669 198.53 232.474 198.119 233.398 197.853C234.321 197.576 235.316 197.433 236.383 197.423C236.886 197.419 237.402 197.456 237.93 197.533C238.458 197.611 238.975 197.729 239.48 197.889C239.986 198.049 240.468 198.261 240.927 198.527C241.387 198.793 241.8 199.105 242.166 199.466C242.125 198.833 242.032 198.166 241.885 197.464C241.75 196.762 241.534 196.125 241.236 195.554C240.95 194.97 240.565 194.493 240.081 194.122C239.597 193.739 238.986 193.551 238.248 193.558C237.17 193.567 236.258 193.856 235.513 194.425C234.779 194.982 234.277 195.789 234.004 196.846L229.43 196.411C229.705 195.682 230.098 195.04 230.609 194.485C231.12 193.918 231.696 193.444 232.337 193.063C232.99 192.683 233.685 192.396 234.422 192.202C235.158 191.996 235.901 191.89 236.651 191.884C237.8 191.874 238.827 192.029 239.732 192.35C240.649 192.67 241.455 193.114 242.151 193.682C242.848 194.251 243.439 194.925 243.927 195.706C244.414 196.475 244.814 197.31 245.126 198.21C245.438 199.098 245.669 200.033 245.818 201.016C245.967 201.988 246.046 202.96 246.054 203.932C246.061 204.8 246.022 205.661 245.936 206.517C245.849 207.362 245.722 208.207 245.553 209.052L241.122 208.879ZM242.011 203.897C242.043 203.627 242.065 203.363 242.074 203.105C242.095 202.847 242.117 202.583 242.138 202.314C242.074 201.763 241.877 201.279 241.545 200.86C241.213 200.429 240.812 200.069 240.34 199.78C239.869 199.479 239.357 199.255 238.805 199.108C238.253 198.96 237.714 198.889 237.186 198.893C236.577 198.898 236.009 199.009 235.484 199.224C234.958 199.428 234.504 199.719 234.12 200.097C233.737 200.476 233.436 200.923 233.218 201.441C233 201.958 232.893 202.528 232.898 203.149C232.904 203.782 233.003 204.361 233.195 204.887C233.398 205.4 233.677 205.849 234.032 206.233C234.387 206.605 234.817 206.894 235.323 207.101C235.84 207.307 236.416 207.408 237.048 207.402C237.611 207.398 238.161 207.311 238.699 207.142C239.236 206.973 239.726 206.741 240.169 206.444C240.624 206.135 241.007 205.769 241.32 205.344C241.644 204.908 241.875 204.425 242.011 203.897Z" fill="#333333"/>
</g>
<path d="M100.912 130.588C101.683 129.394 102.58 128.261 103.602 127.19C104.624 126.087 105.772 125.14 107.047 124.348C108.352 123.524 109.768 122.871 111.295 122.389C112.854 121.907 114.524 121.658 116.305 121.643C118.617 121.623 120.559 122.107 122.13 123.093C123.701 124.049 124.977 125.319 125.96 126.904C127.913 125.044 130.134 123.54 132.624 122.394C135.115 121.247 137.672 120.663 140.297 120.64C142.203 120.624 143.894 120.953 145.368 121.628C146.874 122.271 148.179 123.166 149.282 124.313C150.417 125.428 151.366 126.733 152.128 128.226C152.891 129.72 153.499 131.293 153.95 132.945C154.433 134.597 154.776 136.282 154.978 137.999C155.211 139.685 155.335 141.309 155.348 142.871C155.363 144.621 155.256 146.653 155.025 148.968C154.826 151.251 154.518 153.582 154.101 155.96C153.684 158.339 153.172 160.625 152.566 162.818C151.991 164.979 151.335 166.797 150.597 168.272L137.791 167.21C138.959 164.919 140 162.441 140.915 159.777C141.707 157.489 142.419 154.873 143.05 151.93C143.681 148.956 143.982 145.813 143.954 142.5C143.936 140.438 143.794 138.501 143.529 136.691C143.263 134.881 142.781 133.322 142.082 132.016C141.415 130.678 140.484 129.623 139.29 128.852C138.127 128.081 136.623 127.703 134.78 127.719C133.467 127.73 132.22 128.022 131.037 128.595C129.885 129.136 128.766 129.849 127.68 130.733C128.193 132.229 128.55 133.788 128.752 135.412C128.984 137.004 129.107 138.581 129.121 140.143C129.134 141.737 129.073 143.691 128.936 146.004C128.8 148.318 128.602 150.695 128.341 153.135C128.112 155.543 127.835 157.842 127.51 160.033C127.216 162.223 126.903 163.976 126.571 165.291L113.766 164.463C114.59 162.175 115.319 159.684 115.952 156.991C116.495 154.674 116.987 151.982 117.43 148.916C117.903 145.849 118.125 142.566 118.095 139.066C118.086 137.972 117.935 136.802 117.643 135.554C117.382 134.275 116.935 133.107 116.301 132.05C115.697 130.961 114.893 130.062 113.887 129.352C112.912 128.641 111.721 128.292 110.315 128.304C109.409 128.312 108.536 128.585 107.697 129.124C106.858 129.631 106.051 130.31 105.277 131.16C104.503 132.011 103.761 133.001 103.052 134.132C102.374 135.232 101.744 136.394 101.16 137.618L102.579 166.294L90.0738 167.62L92.1279 122.976L100.571 123.56L100.912 130.588ZM179.962 110.596C179.972 111.721 179.762 112.785 179.334 113.789C178.936 114.793 178.365 115.672 177.622 116.429C176.878 117.185 176.008 117.787 175.012 118.233C174.016 118.679 172.94 118.907 171.784 118.917C170.627 118.927 169.532 118.717 168.497 118.289C167.493 117.86 166.613 117.273 165.857 116.53C165.1 115.786 164.499 114.917 164.053 113.92C163.607 112.924 163.379 111.864 163.369 110.739C163.359 109.582 163.569 108.502 163.998 107.499C164.426 106.464 165.012 105.568 165.756 104.812C166.499 104.055 167.369 103.454 168.365 103.008C169.393 102.562 170.485 102.333 171.641 102.323C172.797 102.314 173.877 102.523 174.881 102.952C175.885 103.381 176.765 103.967 177.521 104.711C178.277 105.454 178.863 106.34 179.278 107.367C179.724 108.364 179.952 109.44 179.962 110.596ZM178.48 123.594L175.305 168.716L166.251 167.857L165.303 123.004L178.48 123.594ZM281.239 135.086C281.229 133.899 280.86 132.761 280.131 131.674C279.434 130.555 278.535 129.578 277.434 128.744C276.333 127.91 275.109 127.248 273.761 126.76C272.413 126.271 271.114 126.032 269.864 126.043C267.302 126.065 265.103 126.647 263.269 127.787C261.435 128.928 259.932 130.41 258.76 132.233C257.62 134.024 256.778 136.047 256.234 138.301C255.691 140.525 255.429 142.762 255.448 145.011C255.466 147.043 255.687 149.135 256.112 151.287C256.567 153.408 257.287 155.355 258.271 157.128C259.286 158.901 260.611 160.358 262.246 161.501C263.881 162.612 265.917 163.157 268.354 163.136C270.261 163.119 271.913 162.683 273.312 161.827C274.742 160.971 275.952 159.883 276.94 158.562C277.96 157.209 278.791 155.702 279.433 154.04C280.075 152.347 280.56 150.671 280.89 149.012C280.964 146.699 281.037 144.37 281.111 142.025C281.216 139.649 281.258 137.336 281.239 135.086ZM291.991 98.899L290.747 166.881L282.12 166.674L281.673 158.334C281.061 159.839 280.244 161.19 279.223 162.386C278.233 163.551 277.07 164.53 275.733 165.322C274.427 166.146 272.979 166.768 271.389 167.188C269.83 167.608 268.192 167.825 266.473 167.839C263.129 167.868 260.078 167.332 257.318 166.231C254.558 165.129 252.186 163.587 250.2 161.604C248.245 159.621 246.709 157.243 245.592 154.471C244.505 151.699 243.948 148.673 243.92 145.392C243.889 141.829 244.439 138.559 245.57 135.58C246.732 132.57 248.35 129.994 250.426 127.851C252.532 125.676 255.065 124.014 258.024 122.864C260.982 121.682 264.243 121.123 267.807 121.186C268.869 121.208 269.948 121.308 271.044 121.486C272.17 121.633 273.266 121.873 274.331 122.208C275.397 122.542 276.416 122.971 277.389 123.494C278.394 124.017 279.305 124.65 280.124 125.393L278.908 98.3551L291.991 98.899ZM326.522 151.479C324.053 151.501 321.598 151.209 319.155 150.605C316.743 149.97 314.547 148.957 312.566 147.568C312.608 148.786 312.697 150.036 312.833 151.316C312.969 152.596 313.182 153.844 313.474 155.06C313.797 156.245 314.197 157.367 314.675 158.425C315.184 159.483 315.817 160.415 316.574 161.221C317.362 161.996 318.289 162.613 319.356 163.073C320.453 163.532 321.752 163.755 323.252 163.742C324.658 163.73 325.969 163.469 327.183 162.958C328.397 162.417 329.454 161.705 330.352 160.822C331.282 159.939 332.039 158.901 332.623 157.708C333.206 156.516 333.601 155.231 333.808 153.854L345.361 156.333C344.472 158.279 343.205 159.93 341.56 161.288C339.947 162.646 338.143 163.739 336.15 164.569C334.158 165.43 332.069 166.057 329.885 166.451C327.732 166.845 325.656 167.05 323.656 167.067C320.062 167.098 316.855 166.594 314.033 165.556C311.212 164.518 308.824 163.007 306.869 161.024C304.946 159.04 303.456 156.631 302.4 153.796C301.376 150.93 300.848 147.715 300.818 144.153C300.788 140.684 301.353 137.414 302.515 134.341C303.675 131.237 305.309 128.536 307.414 126.236C309.519 123.937 312.051 122.118 315.008 120.78C317.996 119.411 321.287 118.711 324.881 118.68C327.506 118.657 330.118 118.963 332.717 119.597C335.316 120.2 337.653 121.18 339.727 122.537C341.801 123.863 343.472 125.583 344.74 127.697C346.04 129.811 346.702 132.368 346.728 135.368C346.753 138.305 346.181 140.794 345.011 142.836C343.872 144.846 342.355 146.499 340.46 147.797C338.564 149.063 336.4 149.988 333.968 150.572C331.535 151.155 329.053 151.458 326.522 151.479ZM324.254 122.154C322.817 122.166 321.538 122.474 320.418 123.078C319.33 123.649 318.352 124.439 317.486 125.447C316.65 126.454 315.942 127.601 315.359 128.887C314.776 130.173 314.288 131.521 313.893 132.931C313.499 134.341 313.199 135.765 312.993 137.204C312.786 138.644 312.657 139.989 312.605 141.239C313.81 143.26 315.403 144.918 317.383 146.214C319.362 147.478 321.649 148.099 324.243 148.077C325.899 148.063 327.38 147.675 328.686 146.914C329.992 146.121 331.093 145.112 331.988 143.885C332.884 142.659 333.56 141.294 334.016 139.79C334.503 138.285 334.74 136.783 334.727 135.283C334.714 133.783 334.482 132.254 334.031 130.695C333.58 129.105 332.912 127.689 332.026 126.447C331.171 125.173 330.084 124.135 328.765 123.334C327.477 122.533 325.973 122.139 324.254 122.154ZM369.038 96.784L366.437 143.261C368.676 141.992 370.789 140.474 372.773 138.707C374.758 136.94 376.523 135.002 378.067 132.895C379.643 130.757 380.967 128.495 382.041 126.111C383.145 123.695 383.921 121.235 384.368 118.731L399.017 121.512C396.796 124.844 394.073 127.992 390.848 130.957C387.623 133.923 384.115 136.578 380.322 138.923C382.522 140.279 384.677 141.964 386.788 143.977C388.899 145.99 390.855 148.177 392.657 150.536C394.49 152.896 396.12 155.335 397.548 157.854C398.976 160.373 400.122 162.816 400.986 165.184L386.712 167.885C386.663 165.76 386.346 163.513 385.763 161.143C385.181 158.773 384.395 156.42 383.406 154.085C382.448 151.749 381.32 149.509 380.02 147.363C378.72 145.187 377.328 143.261 375.845 141.587C374.258 142.413 372.671 143.192 371.084 143.924C369.527 144.625 367.954 145.248 366.365 145.793L365.318 165.772L357.262 166.497L354.331 98.176L369.038 96.784Z" fill="#333333"/>
<path d="M236.825 143.531C236.858 147.312 236.137 150.678 234.662 153.628C233.218 156.547 231.271 159.032 228.82 161.085C226.399 163.105 223.584 164.645 220.375 165.704C217.165 166.794 213.826 167.354 210.357 167.384C206.92 167.413 203.743 166.847 200.827 165.684C197.942 164.522 195.443 162.902 193.332 160.827C191.22 158.72 189.558 156.234 188.346 153.369C187.164 150.473 186.559 147.306 186.53 143.869C186.501 140.494 187.161 137.332 188.511 134.383C189.892 131.433 191.729 128.855 194.023 126.648C196.347 124.409 199.02 122.652 202.04 121.376C205.06 120.068 208.227 119.4 211.539 119.372C215.133 119.341 218.466 119.906 221.538 121.067C224.611 122.229 227.266 123.878 229.503 126.015C231.771 128.152 233.543 130.715 234.819 133.704C236.126 136.661 236.795 139.937 236.825 143.531ZM225.009 143.163C224.997 141.757 224.891 140.305 224.691 138.807C224.49 137.277 224.165 135.795 223.715 134.362C223.296 132.897 222.737 131.526 222.039 130.251C221.371 128.944 220.534 127.811 219.525 126.851C218.517 125.859 217.338 125.088 215.99 124.537C214.641 123.955 213.107 123.671 211.388 123.686C208.764 123.709 206.597 124.368 204.89 125.664C203.182 126.928 201.836 128.549 200.853 130.527C199.901 132.472 199.232 134.619 198.846 136.966C198.491 139.313 198.323 141.549 198.341 143.674C198.353 145.08 198.444 146.548 198.613 148.078C198.813 149.576 199.123 151.058 199.542 152.523C199.961 153.988 200.504 155.39 201.172 156.728C201.839 158.035 202.662 159.2 203.639 160.223C204.648 161.214 205.811 162.001 207.129 162.583C208.477 163.166 210.011 163.449 211.73 163.435C213.48 163.419 215.024 163.109 216.363 162.504C217.701 161.868 218.85 161.045 219.81 160.037C220.801 158.997 221.635 157.802 222.311 156.453C222.987 155.072 223.521 153.645 223.915 152.173C224.308 150.67 224.592 149.152 224.766 147.619C224.94 146.055 225.021 144.57 225.009 143.163Z" fill="#333333"/>
</svg>
