<svg width="454" height="413" viewBox="0 0 454 413" fill="none" xmlns="http://www.w3.org/2000/svg">
<path d="M405.967 260.43L271.72 382.594L92.5732 328.888L47.6738 153.017L181.921 30.8532L361.067 84.5594L405.967 260.43Z" fill="#F2F2F2"/>
<path d="M438.124 183.046L356.544 348.875L166.794 364.859L112.709 289.936L58.6238 215.013L140.203 49.1834L329.954 33.1999L438.124 183.046Z" fill="#333333"/>
<path d="M199.426 281.056C199.419 280.306 199.331 279.534 199.16 278.738C199 277.931 198.73 277.195 198.35 276.53C197.981 275.865 197.484 275.319 196.859 274.891C196.246 274.462 195.488 274.252 194.586 274.26C193.965 274.265 193.369 274.434 192.797 274.767C192.226 275.1 191.726 275.526 191.296 276.046C190.867 276.553 190.526 277.125 190.274 277.76C190.022 278.383 189.898 278.993 189.903 279.591C189.852 280.435 189.812 281.303 189.785 282.194C189.769 283.073 189.765 283.946 189.772 284.813C189.776 285.294 189.915 285.738 190.188 286.145C190.461 286.553 190.804 286.908 191.217 287.209C191.641 287.51 192.1 287.746 192.594 287.918C193.087 288.089 193.563 288.173 194.02 288.169C194.981 288.161 195.805 287.949 196.493 287.533C197.181 287.105 197.738 286.555 198.166 285.884C198.606 285.2 198.927 284.436 199.131 283.59C199.335 282.745 199.433 281.9 199.426 281.056ZM189.592 276.096C189.81 275.531 190.104 275.025 190.475 274.576C190.858 274.128 191.294 273.755 191.784 273.457C192.285 273.148 192.834 272.915 193.43 272.758C194.027 272.589 194.659 272.501 195.327 272.495C196.569 272.485 197.701 272.686 198.725 273.099C199.759 273.512 200.643 274.096 201.376 274.852C202.121 275.595 202.697 276.487 203.104 277.526C203.524 278.566 203.738 279.707 203.749 280.949C203.761 282.285 203.554 283.517 203.13 284.646C202.706 285.763 202.099 286.723 201.309 287.527C200.531 288.33 199.587 288.954 198.478 289.397C197.38 289.828 196.163 290.038 194.827 290.026C194.417 290.018 194 289.986 193.578 289.931C193.167 289.876 192.762 289.786 192.363 289.66C191.963 289.535 191.575 289.38 191.198 289.196C190.833 288.999 190.492 288.762 190.173 288.484L190.646 298.552L185.705 298.384L186.171 272.89L189.459 272.968L189.592 276.096ZM218.712 289.539L219.136 287.69C218.729 288.057 218.275 288.389 217.773 288.686C217.283 288.983 216.776 289.24 216.25 289.455C215.725 289.659 215.199 289.816 214.672 289.926C214.158 290.047 213.684 290.11 213.25 290.114C212.488 290.12 211.702 290.016 210.892 289.8C210.081 289.584 209.346 289.256 208.686 288.817C208.026 288.377 207.482 287.825 207.055 287.161C206.627 286.496 206.409 285.725 206.402 284.846C206.392 283.698 206.583 282.7 206.974 281.853C207.365 281.006 207.898 280.304 208.573 279.747C209.26 279.19 210.065 278.779 210.988 278.513C211.912 278.236 212.907 278.093 213.973 278.083C214.477 278.079 214.993 278.116 215.521 278.193C216.049 278.271 216.566 278.389 217.071 278.549C217.576 278.709 218.058 278.921 218.518 279.187C218.977 279.453 219.39 279.766 219.756 280.126C219.716 279.493 219.622 278.826 219.475 278.124C219.341 277.422 219.124 276.785 218.826 276.214C218.54 275.63 218.155 275.153 217.671 274.782C217.188 274.399 216.577 274.211 215.838 274.218C214.76 274.227 213.849 274.516 213.103 275.085C212.37 275.642 211.867 276.449 211.595 277.506L207.021 277.071C207.296 276.342 207.689 275.7 208.199 275.145C208.71 274.578 209.286 274.104 209.928 273.724C210.581 273.343 211.275 273.056 212.012 272.862C212.749 272.656 213.492 272.55 214.242 272.544C215.39 272.534 216.417 272.689 217.322 273.01C218.239 273.33 219.046 273.774 219.742 274.342C220.438 274.911 221.03 275.585 221.517 276.366C222.004 277.136 222.404 277.97 222.716 278.87C223.029 279.758 223.259 280.693 223.408 281.676C223.557 282.648 223.636 283.62 223.644 284.592C223.652 285.46 223.612 286.321 223.526 287.178C223.44 288.022 223.312 288.867 223.143 289.712L218.712 289.539ZM219.601 284.557C219.634 284.287 219.655 284.023 219.665 283.765C219.686 283.507 219.707 283.243 219.728 282.974C219.665 282.423 219.467 281.939 219.135 281.52C218.804 281.089 218.402 280.729 217.931 280.44C217.459 280.14 216.948 279.915 216.396 279.768C215.844 279.62 215.304 279.549 214.777 279.553C214.167 279.558 213.6 279.669 213.074 279.884C212.549 280.088 212.094 280.379 211.711 280.757C211.327 281.136 211.026 281.584 210.808 282.101C210.59 282.619 210.483 283.188 210.489 283.809C210.494 284.442 210.593 285.021 210.785 285.547C210.989 286.061 211.268 286.509 211.623 286.893C211.978 287.265 212.408 287.554 212.913 287.761C213.431 287.967 214.006 288.068 214.639 288.063C215.201 288.058 215.751 287.971 216.289 287.802C216.827 287.634 217.317 287.401 217.76 287.104C218.214 286.795 218.598 286.429 218.91 286.004C219.235 285.568 219.465 285.085 219.601 284.557ZM235.329 290.152C234.322 290.161 233.313 290.041 232.303 289.792C231.304 289.542 230.387 289.158 229.551 288.638C228.714 288.106 228.005 287.438 227.424 286.634C226.854 285.819 226.5 284.855 226.362 283.743L231.285 283.841C231.262 283.912 231.251 283.988 231.252 284.07C231.252 284.14 231.253 284.211 231.253 284.281C231.259 284.972 231.364 285.593 231.568 286.142C231.784 286.691 232.087 287.157 232.477 287.54C232.867 287.912 233.332 288.195 233.873 288.39C234.414 288.584 235.018 288.679 235.686 288.673C236.084 288.669 236.471 288.625 236.845 288.54C237.231 288.454 237.57 288.317 237.861 288.127C238.164 287.925 238.408 287.665 238.592 287.347C238.777 287.029 238.868 286.63 238.863 286.149C238.859 285.61 238.685 285.149 238.342 284.765C237.999 284.381 237.58 284.063 237.085 283.809C236.603 283.544 236.091 283.331 235.551 283.172C235.022 283.001 234.558 282.87 234.159 282.779C233.748 282.677 233.272 282.564 232.732 282.44C232.203 282.304 231.657 282.15 231.093 281.98C230.529 281.797 229.976 281.585 229.435 281.343C228.894 281.102 228.411 280.813 227.986 280.477C227.561 280.141 227.218 279.757 226.957 279.326C226.695 278.882 226.562 278.374 226.557 277.8C226.551 277.155 226.669 276.568 226.911 276.039C227.153 275.509 227.477 275.038 227.883 274.624C228.302 274.21 228.779 273.855 229.316 273.557C229.864 273.248 230.43 272.997 231.014 272.804C231.598 272.6 232.189 272.448 232.786 272.349C233.383 272.251 233.945 272.199 234.472 272.194C235.363 272.187 236.266 272.284 237.182 272.487C238.109 272.679 238.95 273 239.704 273.45C240.469 273.901 241.107 274.487 241.617 275.209C242.139 275.931 242.445 276.808 242.536 277.838L237.758 278.248L237.757 278.073C237.763 277.381 237.675 276.755 237.495 276.194C237.326 275.633 237.064 275.155 236.709 274.759C236.366 274.364 235.929 274.063 235.4 273.856C234.883 273.638 234.272 273.532 233.569 273.538C233.253 273.541 232.908 273.591 232.534 273.688C232.159 273.785 231.809 273.934 231.483 274.136C231.168 274.326 230.9 274.569 230.68 274.864C230.46 275.159 230.352 275.505 230.355 275.904C230.36 276.513 230.552 277.004 230.93 277.375C231.32 277.735 231.791 278.024 232.344 278.242C232.897 278.448 233.472 278.607 234.071 278.719C234.669 278.82 235.192 278.921 235.638 279.022C236.119 279.124 236.63 279.254 237.171 279.414C237.723 279.561 238.264 279.75 238.793 279.98C239.334 280.198 239.846 280.463 240.329 280.775C240.824 281.076 241.261 281.429 241.639 281.836C242.017 282.231 242.32 282.686 242.547 283.2C242.774 283.702 242.89 284.269 242.896 284.902C242.904 285.851 242.665 286.662 242.178 287.334C241.692 287.994 241.07 288.533 240.311 288.949C239.565 289.366 238.747 289.666 237.858 289.849C236.969 290.045 236.126 290.146 235.329 290.152ZM251.792 268.723C251.796 269.145 251.717 269.544 251.557 269.921C251.407 270.297 251.193 270.627 250.915 270.91C250.636 271.194 250.31 271.42 249.936 271.587C249.562 271.754 249.159 271.84 248.725 271.843C248.292 271.847 247.881 271.769 247.493 271.608C247.116 271.447 246.786 271.227 246.503 270.948C246.219 270.67 245.994 270.343 245.826 269.97C245.659 269.596 245.574 269.198 245.57 268.777C245.566 268.343 245.645 267.938 245.806 267.562C245.966 267.174 246.186 266.838 246.465 266.554C246.744 266.27 247.07 266.045 247.444 265.878C247.829 265.71 248.238 265.625 248.672 265.621C249.105 265.617 249.51 265.696 249.887 265.857C250.263 266.017 250.593 266.237 250.877 266.516C251.161 266.795 251.38 267.127 251.536 267.512C251.703 267.886 251.789 268.29 251.792 268.723ZM251.237 273.597L250.046 290.518L246.65 290.196L246.295 273.376L251.237 273.597ZM263.934 284.422C263.008 284.43 262.087 284.321 261.171 284.094C260.266 283.856 259.443 283.476 258.7 282.955C258.716 283.412 258.749 283.881 258.8 284.361C258.851 284.841 258.931 285.309 259.041 285.765C259.162 286.209 259.312 286.63 259.491 287.027C259.682 287.424 259.919 287.773 260.203 288.075C260.499 288.366 260.846 288.597 261.246 288.77C261.658 288.942 262.145 289.026 262.707 289.021C263.235 289.016 263.726 288.918 264.181 288.727C264.637 288.524 265.033 288.257 265.37 287.926C265.719 287.594 266.002 287.205 266.221 286.758C266.44 286.311 266.588 285.829 266.666 285.313L270.998 286.242C270.665 286.972 270.19 287.591 269.573 288.1C268.968 288.61 268.292 289.02 267.544 289.331C266.797 289.654 266.014 289.889 265.195 290.037C264.387 290.184 263.609 290.261 262.859 290.268C261.511 290.279 260.308 290.09 259.25 289.701C258.192 289.312 257.297 288.745 256.564 288.001C255.842 287.257 255.284 286.354 254.888 285.291C254.504 284.216 254.306 283.011 254.294 281.675C254.283 280.374 254.495 279.148 254.931 277.995C255.366 276.831 255.978 275.818 256.768 274.956C257.557 274.094 258.507 273.412 259.616 272.91C260.736 272.396 261.97 272.134 263.318 272.122C264.302 272.114 265.282 272.229 266.257 272.466C267.231 272.692 268.108 273.06 268.885 273.569C269.663 274.066 270.29 274.711 270.765 275.504C271.253 276.297 271.501 277.255 271.511 278.38C271.52 279.482 271.306 280.415 270.867 281.181C270.44 281.935 269.871 282.555 269.16 283.041C268.449 283.516 267.638 283.863 266.726 284.082C265.813 284.301 264.883 284.414 263.934 284.422ZM263.083 273.425C262.544 273.43 262.065 273.545 261.645 273.772C261.236 273.986 260.87 274.282 260.545 274.66C260.232 275.038 259.966 275.468 259.747 275.95C259.529 276.432 259.346 276.938 259.198 277.467C259.05 277.995 258.937 278.529 258.86 279.069C258.783 279.609 258.734 280.113 258.715 280.582C259.167 281.34 259.764 281.962 260.506 282.448C261.249 282.922 262.106 283.155 263.079 283.146C263.7 283.141 264.255 282.996 264.745 282.71C265.235 282.413 265.647 282.034 265.983 281.574C266.319 281.114 266.573 280.602 266.744 280.039C266.926 279.474 267.015 278.911 267.01 278.349C267.006 277.786 266.919 277.213 266.75 276.628C266.58 276.032 266.33 275.501 265.998 275.035C265.677 274.557 265.269 274.168 264.775 273.868C264.291 273.567 263.728 273.42 263.083 273.425ZM279.877 263.911L278.902 281.34C279.741 280.864 280.533 280.295 281.278 279.632C282.022 278.97 282.684 278.243 283.263 277.453C283.854 276.651 284.35 275.803 284.753 274.909C285.167 274.003 285.458 273.081 285.626 272.142L291.119 273.184C290.286 274.434 289.265 275.614 288.056 276.726C286.847 277.838 285.531 278.834 284.109 279.714C284.933 280.222 285.742 280.854 286.533 281.609C287.325 282.364 288.059 283.184 288.734 284.069C289.421 284.953 290.033 285.868 290.568 286.813C291.104 287.757 291.534 288.674 291.858 289.561L286.505 290.574C286.486 289.778 286.368 288.935 286.149 288.046C285.93 287.157 285.636 286.275 285.265 285.399C284.906 284.523 284.483 283.683 283.995 282.879C283.508 282.063 282.986 281.34 282.43 280.712C281.835 281.022 281.24 281.314 280.644 281.589C280.06 281.852 279.471 282.086 278.875 282.29L278.482 289.782L275.461 290.054L274.362 264.433L279.877 263.911ZM305.826 288.791L306.25 286.942C305.843 287.308 305.388 287.64 304.887 287.938C304.397 288.235 303.89 288.491 303.364 288.707C302.839 288.91 302.313 289.067 301.786 289.177C301.272 289.299 300.798 289.362 300.364 289.365C299.602 289.372 298.816 289.267 298.006 289.052C297.195 288.836 296.46 288.508 295.8 288.069C295.14 287.629 294.596 287.077 294.169 286.413C293.741 285.748 293.523 284.977 293.516 284.098C293.506 282.949 293.697 281.952 294.088 281.104C294.479 280.257 295.012 279.555 295.687 278.999C296.374 278.442 297.179 278.031 298.102 277.765C299.026 277.488 300.021 277.344 301.087 277.335C301.591 277.331 302.107 277.367 302.635 277.445C303.163 277.522 303.679 277.641 304.185 277.801C304.69 277.961 305.172 278.173 305.632 278.439C306.091 278.704 306.504 279.017 306.87 279.377C306.83 278.745 306.736 278.078 306.589 277.376C306.454 276.674 306.238 276.037 305.94 275.465C305.654 274.882 305.269 274.405 304.785 274.034C304.301 273.651 303.69 273.463 302.952 273.469C301.874 273.479 300.963 273.768 300.217 274.337C299.484 274.894 298.981 275.701 298.709 276.758L294.135 276.323C294.41 275.594 294.803 274.952 295.313 274.396C295.824 273.83 296.4 273.356 297.042 272.975C297.695 272.595 298.389 272.307 299.126 272.114C299.863 271.908 300.606 271.802 301.356 271.796C302.504 271.786 303.531 271.941 304.436 272.261C305.353 272.582 306.159 273.026 306.856 273.594C307.552 274.162 308.144 274.837 308.631 275.618C309.118 276.387 309.518 277.222 309.83 278.121C310.143 279.009 310.373 279.945 310.522 280.928C310.671 281.9 310.75 282.872 310.758 283.844C310.766 284.711 310.726 285.573 310.64 286.429C310.553 287.274 310.426 288.119 310.257 288.964L305.826 288.791ZM306.715 283.809C306.748 283.539 306.769 283.275 306.779 283.017C306.8 282.759 306.821 282.495 306.842 282.225C306.779 281.675 306.581 281.191 306.249 280.771C305.918 280.341 305.516 279.981 305.045 279.692C304.573 279.391 304.062 279.167 303.51 279.02C302.958 278.872 302.418 278.8 301.891 278.805C301.281 278.81 300.714 278.921 300.188 279.136C299.663 279.34 299.208 279.631 298.825 280.009C298.441 280.387 298.14 280.835 297.922 281.353C297.704 281.87 297.597 282.44 297.603 283.061C297.608 283.693 297.707 284.273 297.899 284.798C298.103 285.312 298.382 285.761 298.737 286.145C299.091 286.517 299.522 286.806 300.027 287.013C300.545 287.219 301.12 287.32 301.753 287.314C302.315 287.309 302.865 287.223 303.403 287.054C303.941 286.885 304.431 286.653 304.874 286.356C305.328 286.047 305.712 285.681 306.024 285.256C306.349 284.82 306.579 284.337 306.715 283.809Z" fill="#F2F2F2"/>
<path d="M111.408 186.493C112.179 185.299 113.076 184.166 114.098 183.095C115.12 181.992 116.268 181.045 117.542 180.253C118.848 179.429 120.264 178.776 121.791 178.294C123.35 177.812 125.02 177.563 126.801 177.548C129.113 177.528 131.055 178.011 132.626 178.998C134.197 179.953 135.473 181.224 136.456 182.809C138.409 180.948 140.63 179.445 143.12 178.298C145.611 177.152 148.168 176.568 150.793 176.545C152.699 176.529 154.39 176.858 155.864 177.533C157.37 178.176 158.674 179.071 159.778 180.218C160.913 181.333 161.861 182.638 162.624 184.131C163.387 185.625 163.994 187.198 164.446 188.85C164.929 190.502 165.272 192.187 165.474 193.904C165.707 195.589 165.83 197.213 165.844 198.776C165.859 200.526 165.751 202.558 165.521 204.873C165.322 207.156 165.014 209.487 164.597 211.865C164.18 214.244 163.668 216.53 163.062 218.722C162.487 220.884 161.83 222.702 161.093 224.177L148.287 223.115C149.455 220.824 150.496 218.346 151.41 215.682C152.203 213.394 152.915 210.778 153.546 207.835C154.177 204.861 154.478 201.717 154.45 198.405C154.432 196.343 154.29 194.406 154.025 192.596C153.759 190.786 153.277 189.227 152.578 187.921C151.911 186.583 150.98 185.528 149.785 184.757C148.622 183.986 147.119 183.608 145.275 183.624C143.963 183.635 142.716 183.927 141.533 184.5C140.381 185.041 139.262 185.754 138.176 186.638C138.689 188.134 139.046 189.693 139.248 191.317C139.48 192.908 139.603 194.486 139.616 196.048C139.63 197.642 139.569 199.595 139.432 201.909C139.296 204.223 139.098 206.6 138.837 209.039C138.608 211.448 138.331 213.747 138.006 215.938C137.712 218.128 137.399 219.88 137.067 221.196L124.262 220.368C125.086 218.08 125.815 215.589 126.448 212.896C126.991 210.579 127.483 207.887 127.926 204.821C128.399 201.754 128.621 198.471 128.591 194.971C128.582 193.877 128.431 192.706 128.139 191.459C127.878 190.18 127.43 189.012 126.796 187.955C126.193 186.866 125.389 185.967 124.382 185.257C123.408 184.546 122.217 184.197 120.811 184.209C119.905 184.217 119.032 184.49 118.193 185.028C117.353 185.536 116.547 186.214 115.773 187.065C114.999 187.915 114.257 188.906 113.548 190.037C112.87 191.137 112.239 192.299 111.656 193.522L113.074 222.199L100.57 223.525L102.624 178.881L111.067 179.464L111.408 186.493ZM190.458 166.501C190.468 167.626 190.258 168.69 189.829 169.694C189.432 170.697 188.861 171.577 188.118 172.334C187.374 173.09 186.504 173.691 185.508 174.137C184.512 174.583 183.436 174.811 182.279 174.821C181.123 174.831 180.028 174.622 178.993 174.193C177.989 173.764 177.109 173.178 176.352 172.435C175.596 171.691 174.995 170.821 174.549 169.825C174.103 168.829 173.875 167.768 173.865 166.643C173.855 165.487 174.065 164.407 174.494 163.403C174.922 162.368 175.508 161.473 176.252 160.716C176.995 159.96 177.865 159.359 178.861 158.913C179.889 158.466 180.981 158.238 182.137 158.228C183.293 158.218 184.373 158.428 185.377 158.857C186.38 159.286 187.261 159.872 188.017 160.615C188.773 161.359 189.359 162.244 189.774 163.272C190.22 164.268 190.448 165.345 190.458 166.501ZM188.976 179.498L185.801 224.621L176.746 223.761L175.799 178.908L188.976 179.498ZM247.321 199.435C247.354 203.217 246.633 206.582 245.158 209.533C243.714 212.451 241.767 214.937 239.316 216.989C236.895 219.01 234.08 220.55 230.871 221.609C227.661 222.699 224.322 223.259 220.853 223.289C217.416 223.318 214.239 222.752 211.323 221.589C208.438 220.426 205.939 218.807 203.828 216.732C201.716 214.625 200.054 212.139 198.842 209.274C197.66 206.378 197.055 203.211 197.025 199.774C196.997 196.399 197.657 193.237 199.007 190.288C200.388 187.338 202.225 184.76 204.518 182.553C206.843 180.314 209.516 178.556 212.536 177.28C215.556 175.973 218.722 175.305 222.035 175.277C225.628 175.246 228.961 175.811 232.034 176.972C235.107 178.133 237.762 179.783 239.999 181.92C242.267 184.056 244.039 186.619 245.315 189.609C246.622 192.566 247.29 195.842 247.321 199.435ZM235.505 199.068C235.493 197.662 235.387 196.21 235.187 194.711C234.986 193.182 234.661 191.7 234.211 190.267C233.792 188.801 233.233 187.431 232.535 186.156C231.867 184.849 231.029 183.715 230.021 182.755C229.013 181.764 227.834 180.993 226.486 180.442C225.137 179.86 223.603 179.576 221.884 179.591C219.259 179.613 217.093 180.273 215.385 181.569C213.677 182.833 212.332 184.454 211.349 186.431C210.397 188.377 209.728 190.524 209.342 192.871C208.987 195.218 208.818 197.454 208.837 199.579C208.849 200.985 208.94 202.453 209.109 203.983C209.309 205.481 209.619 206.963 210.038 208.428C210.457 209.893 211 211.295 211.668 212.633C212.335 213.94 213.158 215.105 214.135 216.127C215.144 217.119 216.307 217.906 217.624 218.488C218.973 219.07 220.507 219.354 222.226 219.339C223.976 219.324 225.52 219.014 226.859 218.409C228.197 217.772 229.346 216.95 230.306 215.942C231.297 214.902 232.131 213.707 232.807 212.358C233.482 210.977 234.017 209.55 234.411 208.078C234.804 206.575 235.088 205.056 235.262 203.524C235.436 201.96 235.517 200.474 235.505 199.068ZM291.735 190.991C291.725 189.804 291.355 188.666 290.627 187.579C289.93 186.46 289.031 185.483 287.93 184.649C286.829 183.814 285.605 183.153 284.257 182.665C282.909 182.176 281.61 181.937 280.36 181.948C277.797 181.97 275.599 182.551 273.765 183.692C271.931 184.833 270.428 186.315 269.256 188.137C268.115 189.928 267.273 191.951 266.73 194.206C266.187 196.43 265.925 198.666 265.944 200.916C265.962 202.947 266.183 205.039 266.607 207.192C267.063 209.313 267.783 211.26 268.767 213.033C269.782 214.806 271.107 216.263 272.742 217.405C274.377 218.516 276.413 219.061 278.85 219.04C280.756 219.024 282.409 218.588 283.808 217.732C285.238 216.876 286.448 215.788 287.436 214.466C288.456 213.114 289.287 211.607 289.929 209.945C290.571 208.252 291.056 206.576 291.386 204.917C291.46 202.603 291.533 200.275 291.607 197.93C291.711 195.554 291.754 193.241 291.735 190.991ZM302.487 154.804L301.243 222.786L292.616 222.579L292.169 214.238C291.557 215.744 290.74 217.094 289.719 218.291C288.729 219.456 287.566 220.434 286.229 221.227C284.923 222.051 283.475 222.673 281.885 223.093C280.326 223.512 278.687 223.729 276.969 223.744C273.625 223.773 270.573 223.237 267.814 222.135C265.054 221.034 262.682 219.492 260.696 217.509C258.741 215.525 257.205 213.148 256.087 210.376C255.001 207.604 254.444 204.578 254.416 201.297C254.385 197.734 254.935 194.464 256.066 191.485C257.228 188.475 258.846 185.899 260.922 183.756C263.028 181.581 265.561 179.919 268.52 178.768C271.478 177.587 274.739 177.027 278.302 177.09C279.365 177.113 280.444 177.213 281.539 177.391C282.666 177.537 283.762 177.778 284.827 178.113C285.892 178.447 286.912 178.876 287.885 179.399C288.89 179.921 289.801 180.554 290.62 181.297L289.404 154.26L302.487 154.804Z" fill="#F2F2F2"/>
<path d="M337.018 207.384C334.549 207.405 332.094 207.114 329.651 206.51C327.239 205.874 325.043 204.862 323.062 203.473C323.104 204.691 323.192 205.94 323.328 207.22C323.464 208.501 323.678 209.749 323.97 210.965C324.293 212.15 324.693 213.271 325.171 214.33C325.68 215.388 326.313 216.32 327.07 217.126C327.858 217.901 328.785 218.518 329.852 218.977C330.949 219.437 332.248 219.66 333.748 219.647C335.154 219.635 336.465 219.374 337.679 218.863C338.893 218.322 339.95 217.609 340.848 216.727C341.778 215.844 342.535 214.806 343.118 213.613C343.702 212.421 344.097 211.136 344.304 209.759L355.857 212.238C354.968 214.183 353.7 215.835 352.056 217.193C350.442 218.55 348.639 219.644 346.646 220.474C344.654 221.335 342.565 221.962 340.381 222.356C338.228 222.749 336.152 222.955 334.152 222.972C330.558 223.003 327.35 222.499 324.529 221.461C321.707 220.422 319.319 218.912 317.365 216.928C315.441 214.945 313.952 212.536 312.896 209.701C311.872 206.834 311.344 203.62 311.313 200.058C311.284 196.589 311.849 193.319 313.01 190.246C314.171 187.142 315.804 184.44 317.91 182.141C320.015 179.842 322.546 178.023 325.504 176.685C328.492 175.316 331.783 174.615 335.377 174.585C338.002 174.562 340.614 174.868 343.213 175.502C345.812 176.104 348.149 177.084 350.223 178.442C352.297 179.768 353.968 181.488 355.236 183.602C356.536 185.716 357.198 188.273 357.224 191.272C357.249 194.21 356.677 196.699 355.507 198.741C354.368 200.75 352.851 202.404 350.956 203.702C349.06 204.968 346.896 205.893 344.463 206.476C342.031 207.06 339.549 207.362 337.018 207.384ZM334.75 178.059C333.313 178.071 332.034 178.379 330.914 178.982C329.825 179.554 328.848 180.344 327.981 181.351C327.146 182.359 326.437 183.505 325.855 184.792C325.272 186.078 324.784 187.426 324.389 188.836C323.995 190.245 323.695 191.67 323.489 193.109C323.282 194.549 323.153 195.893 323.101 197.144C324.306 199.165 325.899 200.823 327.879 202.119C329.858 203.383 332.145 204.004 334.739 203.982C336.395 203.967 337.876 203.58 339.182 202.818C340.488 202.026 341.588 201.017 342.484 199.79C343.38 198.564 344.056 197.198 344.512 195.694C344.999 194.19 345.236 192.688 345.223 191.188C345.21 189.688 344.978 188.159 344.527 186.6C344.076 185.01 343.408 183.594 342.522 182.352C341.667 181.078 340.58 180.04 339.261 179.239C337.972 178.437 336.469 178.044 334.75 178.059ZM379.534 152.689L376.933 199.166C379.172 197.897 381.284 196.379 383.269 194.611C385.254 192.844 387.019 190.907 388.563 188.8C390.139 186.661 391.463 184.4 392.536 182.016C393.641 179.6 394.417 177.14 394.864 174.636L409.513 177.417C407.292 180.748 404.569 183.897 401.344 186.862C398.119 189.827 394.611 192.483 390.818 194.828C393.018 196.184 395.173 197.869 397.284 199.882C399.395 201.895 401.351 204.081 403.153 206.441C404.986 208.8 406.616 211.24 408.044 213.759C409.472 216.278 410.618 218.721 411.482 221.089L397.208 223.79C397.158 221.665 396.842 219.418 396.259 217.048C395.676 214.677 394.891 212.325 393.902 209.989C392.944 207.654 391.816 205.413 390.516 203.268C389.216 201.092 387.824 199.166 386.341 197.491C384.754 198.318 383.167 199.097 381.58 199.829C380.023 200.53 378.45 201.153 376.861 201.698L375.814 221.676L367.757 222.402L364.827 154.081L379.534 152.689Z" fill="#F2C94C"/>
</svg>
