<svg width="356" height="226" viewBox="0 0 356 226" fill="none" xmlns="http://www.w3.org/2000/svg">
<path d="M97.576 64.0902L97.5797 64.0798L97.6451 64.1162L97.8536 63.5836C108.618 36.0886 121.051 24.986 131.757 22.9862C142.43 20.9923 151.665 28.0079 156.173 37.4322C160.682 46.8569 160.355 58.4616 152.154 65.5248C148.087 69.0277 142.032 71.4612 133.567 71.9498C128.793 70.9755 124.213 70.1827 120.01 69.5341C113.887 68.5893 108.558 67.9502 104.584 67.5033C103.758 67.4104 102.993 67.326 102.292 67.249C101.406 66.9837 100.508 66.7065 99.5976 66.4169L98.946 66.2096V66.8733C98.3655 66.8032 97.928 66.7441 97.6355 66.6939C97.6188 66.6697 97.5993 66.6457 97.5765 66.6225C97.4104 66.453 97.2009 66.4468 97.074 66.4735C96.9633 66.4968 96.8783 66.5486 96.8317 66.58C96.6549 66.6988 96.4445 66.9376 96.2345 67.1976C95.7837 67.7554 95.1261 68.6816 94.3367 69.8464C92.7533 72.1828 90.6035 75.5333 88.4432 78.9583C86.2821 82.3845 84.1075 85.8901 82.4733 88.5388C81.6561 89.8633 80.974 90.9736 80.4961 91.7529C80.2572 92.1426 80.0693 92.4494 79.9412 92.659L79.7948 92.8983L79.7573 92.9598L79.7571 92.9601C69.4066 106.725 59.1155 109.819 51.0685 107.468C42.9644 105.1 36.9085 97.1551 35.1756 88.3872C33.4475 79.6433 36.0403 70.1982 45.0905 64.791C54.1786 59.3612 69.9068 57.9203 94.6198 65.5687L94.9591 65.6737L95.17 65.388C95.2491 65.2808 95.2845 65.1441 95.2625 65.0071C95.2435 64.8892 95.1883 64.8086 95.1569 64.7693C95.0975 64.6948 95.03 64.6536 95.0103 64.6415C94.9562 64.6086 94.8982 64.5845 94.861 64.5698C94.7767 64.5364 94.6645 64.4996 94.5453 64.4628C94.3025 64.3879 93.9766 64.2967 93.6604 64.2083L93.6545 64.2067C93.347 64.1207 93.0489 64.0373 92.826 63.9694L92.4755 63.8281C65.7116 53.0369 55.089 40.6566 53.3842 30.0445C51.6835 19.4583 58.8233 10.3491 68.2699 5.97545C77.7151 1.60248 89.2381 2.06892 96.1953 10.3818C103.174 18.7207 105.747 35.1596 96.7534 63.1639L96.6222 63.5722L97.0058 63.764C97.0193 63.7707 97.0314 63.7763 97.04 63.7803L97.0516 63.7856L97.0596 63.7892C97.0605 63.7897 97.0613 63.79 97.0619 63.7903L97.576 64.0902ZM139.592 98.2897C136.522 88.8043 126.599 78.5549 106.052 69.359C117.064 72.3261 126.135 73.3608 133.494 72.9556C142.552 74.8089 152.296 77.3155 161.481 80.7272C175.546 85.952 188.22 93.2707 195.155 103.541C202.057 113.762 203.336 127 194.413 144.256L194.306 144.464L194.318 144.494C194.232 144.613 194.086 144.786 193.87 145.014C193.437 145.475 192.771 146.114 191.895 146.909C190.144 148.497 187.582 150.68 184.424 153.243C178.11 158.371 169.434 165.01 160.151 171.442C150.866 177.877 140.988 184.094 132.27 188.386C127.91 190.532 123.855 192.19 120.317 193.154C118.187 193.735 116.266 194.058 114.591 194.095L114.595 193.874L113.998 193.852C109.648 193.53 106.174 189.584 103.419 183.39C100.562 176.969 98.583 168.357 97.2166 159.641C94.4854 142.217 94.2251 124.521 94.2251 123.477V123.377L94.1866 123.284C90.7468 115.027 89.6993 109.402 89.5407 105.35C90.748 117.198 95.9355 124.208 102.682 127.444C111.263 131.56 122.165 129.462 130.059 123.795C137.968 118.118 142.982 108.763 139.592 98.2897Z" fill="#27AE60" fill-opacity="0.84" stroke="black"/>
<path d="M17.71 207.962C17.7035 207.212 17.6149 206.439 17.444 205.644C17.2847 204.836 17.0147 204.1 16.6339 203.436C16.2649 202.771 15.768 202.224 15.1432 201.796C14.5302 201.368 13.7725 201.157 12.8702 201.165C12.2491 201.17 11.6529 201.34 11.0815 201.673C10.5101 202.006 10.0098 202.432 9.5807 202.951C9.15145 203.459 8.81064 204.03 8.55827 204.665C8.3058 205.288 8.18213 205.899 8.18727 206.496C8.13592 207.341 8.0965 208.208 8.06899 209.099C8.0531 209.978 8.04888 210.851 8.05633 211.719C8.06046 212.199 8.19904 212.643 8.47209 213.051C8.74513 213.459 9.08803 213.813 9.50079 214.114C9.92527 214.415 10.3843 214.652 10.878 214.823C11.3717 214.995 11.8471 215.079 12.3041 215.075C13.265 215.066 14.0893 214.854 14.7772 214.438C15.465 214.01 16.0228 213.461 16.4506 212.789C16.8901 212.106 17.2116 211.341 17.4153 210.495C17.619 209.65 17.7172 208.805 17.71 207.962ZM7.87598 203.001C8.0938 202.437 8.38829 201.93 8.75945 201.482C9.14233 201.033 9.5786 200.66 10.0682 200.363C10.5695 200.054 11.1183 199.821 11.7146 199.663C12.3109 199.494 12.943 199.407 13.6109 199.401C14.853 199.39 15.9857 199.591 17.0088 200.004C18.0436 200.417 18.9276 201.002 19.6607 201.757C20.4054 202.501 20.9814 203.392 21.3888 204.432C21.8079 205.471 22.0228 206.612 22.0334 207.854C22.0449 209.19 21.8387 210.422 21.4148 211.551C20.9907 212.668 20.3837 213.628 19.5937 214.432C18.8155 215.236 17.8716 215.859 16.762 216.302C15.6641 216.733 14.4471 216.943 13.1111 216.931C12.7008 216.923 12.2845 216.891 11.8621 216.836C11.4515 216.781 11.0464 216.691 10.6469 216.566C10.2474 216.44 9.85929 216.285 9.4827 216.101C9.11772 215.905 8.77582 215.668 8.45701 215.389L8.93023 225.458L3.98915 225.289L4.45575 199.796L7.74364 199.873L7.87598 203.001ZM36.9964 216.445L37.42 214.595C37.013 214.962 36.5588 215.294 36.0574 215.591C35.5678 215.889 35.0602 216.145 34.5347 216.36C34.0091 216.564 33.483 216.721 32.9566 216.831C32.442 216.953 31.9679 217.015 31.5344 217.019C30.7727 217.026 29.9866 216.921 29.1761 216.705C28.3656 216.49 27.6304 216.162 26.9703 215.722C26.3103 215.283 25.7665 214.731 25.3389 214.066C24.9113 213.402 24.6937 212.63 24.6861 211.751C24.6763 210.603 24.8669 209.605 25.2581 208.758C25.6493 207.911 26.1823 207.209 26.8573 206.653C27.5439 206.096 28.349 205.685 29.2725 205.419C30.196 205.141 31.1909 204.998 32.2572 204.989C32.7611 204.985 33.2771 205.021 33.8051 205.099C34.3331 205.176 34.8498 205.295 35.3551 205.455C35.8604 205.614 36.3427 205.827 36.802 206.092C37.2614 206.358 37.6742 206.671 38.0406 207.031C38 206.399 37.9064 205.731 37.7597 205.03C37.6248 204.328 37.4084 203.691 37.1105 203.119C36.8242 202.536 36.4393 202.058 35.9556 201.687C35.4718 201.305 34.8608 201.117 34.1225 201.123C33.0445 201.132 32.1328 201.421 31.3877 201.99C30.6542 202.548 30.1513 203.355 29.8791 204.412L25.3049 203.976C25.5799 203.247 25.9729 202.605 26.4837 202.05C26.9945 201.483 27.5705 201.009 28.2118 200.629C28.8648 200.248 29.5597 199.961 30.2963 199.767C31.0328 199.562 31.7761 199.456 32.5261 199.449C33.6745 199.439 34.7012 199.595 35.6064 199.915C36.5232 200.235 37.3298 200.68 38.0261 201.248C38.7224 201.816 39.3142 202.491 39.8014 203.272C40.2885 204.041 40.6882 204.875 41.0006 205.775C41.313 206.663 41.5437 207.599 41.6927 208.582C41.8417 209.553 41.9204 210.525 41.9287 211.498C41.9362 212.365 41.8967 213.227 41.8103 214.083C41.7238 214.927 41.5963 215.772 41.4278 216.618L36.9964 216.445ZM37.8853 211.462C37.9182 211.192 37.9393 210.929 37.9488 210.671C37.97 210.413 37.9912 210.149 38.0123 209.879C37.949 209.329 37.7515 208.844 37.4198 208.425C37.0879 207.994 36.6864 207.635 36.2151 207.346C35.7438 207.045 35.2321 206.821 34.68 206.673C34.1279 206.526 33.5882 206.454 33.0609 206.459C32.4516 206.464 31.8841 206.574 31.3586 206.79C30.833 206.993 30.3784 207.284 29.995 207.663C29.6115 208.041 29.3106 208.489 29.0924 209.006C28.8742 209.524 28.7677 210.093 28.7731 210.714C28.7785 211.347 28.8772 211.926 29.0693 212.452C29.2729 212.966 29.5522 213.415 29.907 213.798C30.2618 214.17 30.692 214.46 31.1977 214.666C31.7152 214.873 32.2903 214.973 32.923 214.968C33.4855 214.963 34.0356 214.876 34.5732 214.708C35.1109 214.539 35.6011 214.306 36.0438 214.009C36.4982 213.701 36.8818 213.334 37.1946 212.91C37.519 212.473 37.7492 211.991 37.8853 211.462ZM53.6136 217.058C52.6059 217.067 51.597 216.946 50.587 216.697C49.5887 216.448 48.6713 216.063 47.8348 215.543C46.9982 215.011 46.2893 214.343 45.7081 213.54C45.1386 212.724 44.7846 211.76 44.6461 210.648L49.569 210.747C49.5462 210.817 49.5352 210.893 49.5359 210.975C49.5365 211.046 49.5371 211.116 49.5377 211.186C49.5436 211.878 49.6485 212.498 49.8525 213.047C50.0681 213.596 50.371 214.062 50.761 214.446C51.1509 214.817 51.6163 215.1 52.157 215.295C52.6978 215.49 53.3021 215.584 53.9701 215.578C54.3685 215.575 54.7549 215.53 55.1291 215.445C55.5151 215.36 55.8538 215.222 56.1452 215.032C56.4481 214.83 56.692 214.57 56.8768 214.252C57.0615 213.934 57.1519 213.535 57.1477 213.055C57.1431 212.516 56.9692 212.054 56.6261 211.67C56.2829 211.287 55.8641 210.968 55.3698 210.714C54.887 210.449 54.3754 210.237 53.8349 210.077C53.3061 209.906 52.8421 209.775 52.4428 209.685C52.0318 209.583 51.5562 209.47 51.0161 209.346C50.4875 209.209 49.9413 209.056 49.3773 208.885C48.8132 208.702 48.2606 208.49 47.7194 208.249C47.1782 208.007 46.6953 207.719 46.2705 207.382C45.8457 207.046 45.5026 206.662 45.241 206.231C44.9794 205.788 44.8461 205.279 44.8412 204.705C44.8357 204.061 44.9537 203.474 45.1952 202.944C45.4368 202.415 45.7609 201.943 46.1675 201.529C46.5858 201.116 47.0633 200.76 47.5998 200.462C48.1479 200.153 48.7142 199.902 49.2985 199.71C49.8827 199.505 50.4732 199.354 51.07 199.255C51.6668 199.156 52.2289 199.104 52.7562 199.1C53.6468 199.092 54.55 199.19 55.4659 199.393C56.3933 199.584 57.234 199.905 57.9879 200.356C58.7535 200.806 59.3914 201.392 59.9015 202.115C60.4234 202.837 60.7298 203.713 60.8206 204.744L56.0427 205.154L56.0412 204.978C56.047 204.287 55.9596 203.66 55.779 203.099C55.6101 202.538 55.3482 202.06 54.9932 201.665C54.6499 201.269 54.2137 200.968 53.6846 200.762C53.1671 200.544 52.5568 200.437 51.8537 200.443C51.5373 200.446 51.192 200.496 50.8178 200.593C50.4436 200.69 50.0933 200.839 49.7669 201.041C49.4522 201.232 49.1847 201.474 48.9646 201.769C48.7444 202.064 48.6361 202.411 48.6395 202.809C48.6447 203.418 48.8365 203.909 49.2147 204.281C49.6045 204.641 50.0757 204.93 50.6284 205.148C51.181 205.354 51.7566 205.513 52.3552 205.625C52.9538 205.725 53.4761 205.826 53.9224 205.928C54.4037 206.029 54.9146 206.16 55.4551 206.319C56.0071 206.467 56.5478 206.655 57.0772 206.885C57.6181 207.103 58.1302 207.368 58.6134 207.681C59.1081 207.981 59.5448 208.335 59.9233 208.742C60.3017 209.137 60.6045 209.591 60.8315 210.105C61.0585 210.607 61.1747 211.174 61.1801 211.807C61.1883 212.756 60.9492 213.567 60.4627 214.239C59.9762 214.9 59.3538 215.438 58.5957 215.855C57.8492 216.271 57.0315 216.571 56.1424 216.755C55.2534 216.95 54.4105 217.051 53.6136 217.058ZM70.0767 195.629C70.0803 196.05 70.0017 196.45 69.8409 196.826C69.6917 197.202 69.4778 197.532 69.1989 197.816C68.9201 198.1 68.5939 198.325 68.2203 198.492C67.8468 198.66 67.4432 198.745 67.0096 198.749C66.576 198.753 66.1652 198.674 65.7771 198.513C65.4007 198.352 65.0707 198.133 64.787 197.854C64.5033 197.575 64.2779 197.249 64.1106 196.875C63.9433 196.502 63.8579 196.104 63.8542 195.682C63.8505 195.248 63.9291 194.843 64.0899 194.467C64.2506 194.079 64.4704 193.743 64.7493 193.459C65.0281 193.176 65.3543 192.95 65.7279 192.783C66.1131 192.616 66.5226 192.53 66.9562 192.526C67.3897 192.523 67.7947 192.601 68.1711 192.762C68.5475 192.923 68.8775 193.143 69.1612 193.422C69.4449 193.7 69.6645 194.032 69.8202 194.418C69.9874 194.791 70.0729 195.195 70.0767 195.629ZM69.5209 200.503L68.3302 217.424L64.9347 217.101L64.5793 200.281L69.5209 200.503ZM82.2178 211.328C81.2921 211.336 80.3712 211.226 79.4551 211C78.5507 210.761 77.7271 210.382 76.9843 209.861C77 210.318 77.0333 210.786 77.0843 211.266C77.1353 211.746 77.2155 212.214 77.3249 212.67C77.4459 213.115 77.596 213.535 77.7752 213.932C77.9661 214.329 78.2035 214.679 78.4873 214.981C78.7828 215.271 79.1305 215.503 79.5305 215.675C79.9421 215.847 80.4292 215.931 80.9916 215.926C81.519 215.922 82.0103 215.824 82.4657 215.632C82.921 215.429 83.3172 215.162 83.6542 214.831C84.0029 214.5 84.2867 214.111 84.5055 213.664C84.7244 213.216 84.8726 212.735 84.9502 212.218L89.2825 213.148C88.949 213.877 88.4738 214.497 87.857 215.006C87.252 215.515 86.5758 215.925 85.8285 216.236C85.0812 216.559 84.2981 216.794 83.479 216.942C82.6716 217.09 81.893 217.167 81.143 217.173C79.7954 217.185 78.5925 216.996 77.5345 216.606C76.4764 216.217 75.5809 215.65 74.8479 214.907C74.1266 214.163 73.5681 213.259 73.1722 212.196C72.788 211.121 72.5901 209.916 72.5786 208.58C72.5675 207.279 72.7796 206.053 73.215 204.901C73.6504 203.737 74.2628 202.724 75.0523 201.861C75.8418 200.999 76.791 200.317 77.9 199.815C79.0207 199.302 80.2548 199.039 81.6024 199.028C82.5867 199.019 83.5663 199.134 84.541 199.372C85.5156 199.598 86.3919 199.965 87.1697 200.474C87.9474 200.971 88.5741 201.616 89.0497 202.409C89.537 203.202 89.7854 204.161 89.7951 205.286C89.8046 206.387 89.5899 207.321 89.1512 208.086C88.724 208.84 88.1551 209.46 87.4444 209.947C86.7336 210.422 85.9221 210.768 85.0099 210.987C84.0977 211.206 83.167 211.319 82.2178 211.328ZM81.3675 200.331C80.8284 200.335 80.3489 200.451 79.929 200.677C79.5207 200.891 79.1541 201.188 78.8292 201.565C78.516 201.943 78.2501 202.373 78.0316 202.855C77.8131 203.338 77.6299 203.843 77.4821 204.372C77.3343 204.901 77.2217 205.435 77.1443 205.974C77.0669 206.514 77.0185 207.019 76.9991 207.488C77.4509 208.245 78.0481 208.867 78.7906 209.353C79.533 209.827 80.3905 210.06 81.3631 210.052C81.9841 210.046 82.5396 209.901 83.0293 209.615C83.519 209.318 83.9317 208.94 84.2677 208.48C84.6036 208.02 84.857 207.508 85.0279 206.944C85.2106 206.38 85.2995 205.817 85.2947 205.254C85.2898 204.692 85.2029 204.118 85.0338 203.534C84.8646 202.937 84.6139 202.406 84.2818 201.94C83.9613 201.463 83.5536 201.074 83.0588 200.773C82.5758 200.473 82.012 200.325 81.3675 200.331ZM98.1614 190.817L97.186 208.246C98.0257 207.77 98.8177 207.2 99.5621 206.538C100.306 205.875 100.968 205.149 101.547 204.359C102.138 203.557 102.635 202.709 103.037 201.814C103.451 200.909 103.742 199.986 103.91 199.047L109.404 200.09C108.571 201.339 107.549 202.52 106.34 203.632C105.131 204.744 103.815 205.74 102.393 206.619C103.218 207.128 104.026 207.759 104.818 208.514C105.609 209.269 106.343 210.089 107.018 210.974C107.706 211.859 108.317 212.773 108.853 213.718C109.388 214.663 109.818 215.579 110.142 216.467L104.789 217.48C104.771 216.683 104.652 215.84 104.433 214.951C104.215 214.063 103.92 213.18 103.549 212.305C103.19 211.429 102.767 210.589 102.28 209.784C101.792 208.968 101.27 208.246 100.714 207.618C100.119 207.928 99.5238 208.22 98.9285 208.495C98.3448 208.757 97.755 208.991 97.159 209.195L96.7663 216.687L93.7451 216.959L92.6461 191.339L98.1614 190.817ZM124.11 215.696L124.534 213.847C124.127 214.214 123.673 214.546 123.171 214.843C122.682 215.14 122.174 215.397 121.649 215.612C121.123 215.816 120.597 215.973 120.071 216.083C119.556 216.204 119.082 216.267 118.648 216.271C117.887 216.277 117.101 216.173 116.29 215.957C115.48 215.741 114.744 215.414 114.084 214.974C113.424 214.534 112.88 213.982 112.453 213.318C112.025 212.654 111.808 211.882 111.8 211.003C111.79 209.855 111.981 208.857 112.372 208.01C112.763 207.163 113.296 206.461 113.971 205.904C114.658 205.348 115.463 204.936 116.387 204.671C117.31 204.393 118.305 204.25 119.371 204.241C119.875 204.236 120.391 204.273 120.919 204.35C121.447 204.428 121.964 204.547 122.469 204.706C122.974 204.866 123.457 205.079 123.916 205.344C124.375 205.61 124.788 205.923 125.155 206.283C125.114 205.65 125.02 204.983 124.874 204.281C124.739 203.579 124.522 202.942 124.224 202.371C123.938 201.787 123.553 201.31 123.07 200.939C122.586 200.557 121.975 200.369 121.237 200.375C120.158 200.384 119.247 200.673 118.502 201.242C117.768 201.799 117.265 202.606 116.993 203.663L112.419 203.228C112.694 202.499 113.087 201.857 113.598 201.302C114.108 200.735 114.685 200.261 115.326 199.881C115.979 199.5 116.674 199.213 117.41 199.019C118.147 198.813 118.89 198.707 119.64 198.701C120.788 198.691 121.815 198.846 122.72 199.167C123.637 199.487 124.444 199.931 125.14 200.5C125.836 201.068 126.428 201.742 126.915 202.523C127.402 203.293 127.802 204.127 128.115 205.027C128.427 205.915 128.658 206.85 128.807 207.834C128.956 208.805 129.034 209.777 129.043 210.75C129.05 211.617 129.011 212.478 128.924 213.335C128.838 214.179 128.71 215.024 128.542 215.869L124.11 215.696ZM124.999 210.714C125.032 210.444 125.053 210.18 125.063 209.922C125.084 209.664 125.105 209.401 125.126 209.131C125.063 208.581 124.865 208.096 124.534 207.677C124.202 207.246 123.8 206.886 123.329 206.597C122.858 206.297 122.346 206.073 121.794 205.925C121.242 205.777 120.702 205.706 120.175 205.71C119.566 205.716 118.998 205.826 118.473 206.041C117.947 206.245 117.492 206.536 117.109 206.914C116.725 207.293 116.425 207.741 116.206 208.258C115.988 208.776 115.882 209.345 115.887 209.966C115.892 210.599 115.991 211.178 116.183 211.704C116.387 212.218 116.666 212.667 117.021 213.05C117.376 213.422 117.806 213.711 118.312 213.918C118.829 214.125 119.404 214.225 120.037 214.22C120.6 214.215 121.15 214.128 121.687 213.959C122.225 213.791 122.715 213.558 123.158 213.261C123.612 212.953 123.996 212.586 124.309 212.161C124.633 211.725 124.863 211.243 124.999 210.714Z" fill="#F2F2F2"/>
<path d="M21.374 110.135L18.7731 156.612C21.0123 155.343 23.1243 153.824 25.1092 152.057C27.0941 150.29 28.8588 148.353 30.4032 146.246C31.9787 144.107 33.303 141.846 34.3764 139.462C35.4806 137.046 36.2564 134.586 36.7037 132.082L51.3531 134.863C49.1316 138.194 46.4086 141.343 43.1839 144.308C39.9593 147.273 36.4507 149.929 32.6582 152.274C34.8574 153.63 37.0126 155.315 39.1237 157.328C41.2349 159.341 43.1912 161.527 44.9928 163.887C46.8256 166.246 48.456 168.686 49.8839 171.205C51.3119 173.724 52.4579 176.167 53.322 178.535L39.0478 181.236C38.9983 179.111 38.6821 176.864 38.0993 174.493C37.5164 172.123 36.7305 169.771 35.7417 167.435C34.7841 165.1 33.6554 162.859 32.3557 160.714C31.0557 158.538 29.6641 156.612 28.1809 154.937C26.5942 155.763 25.0071 156.543 23.4196 157.275C21.863 157.976 20.2902 158.599 18.7011 159.144L17.6539 179.122L9.59732 179.848L6.66665 111.527L21.374 110.135ZM90.5759 162.449C90.5975 164.969 90.1168 167.213 89.1336 169.18C88.1711 171.126 86.8728 172.783 85.2387 174.151C83.6252 175.498 81.7485 176.525 79.6087 177.231C77.469 177.958 75.243 178.331 72.9305 178.351C70.639 178.37 68.5211 177.993 66.5768 177.218C64.6534 176.443 62.9879 175.363 61.5801 173.979C60.1721 172.575 59.0641 170.917 58.256 169.008C57.4686 167.077 57.065 164.966 57.0453 162.674C57.026 160.424 57.4662 158.316 58.366 156.35C59.2867 154.384 60.5116 152.665 62.0406 151.193C63.5904 149.701 65.372 148.529 67.3856 147.678C69.3991 146.807 71.5099 146.362 73.7182 146.343C76.1139 146.322 78.336 146.699 80.3844 147.473C82.4328 148.247 84.2027 149.347 85.6941 150.771C87.2064 152.196 88.3878 153.905 89.2383 155.897C90.1094 157.869 90.5553 160.053 90.5759 162.449ZM82.6985 162.204C82.6904 161.266 82.6196 160.298 82.486 159.299C82.3523 158.279 82.1354 157.292 81.8355 156.336C81.5563 155.359 81.1839 154.446 80.7182 153.595C80.2732 152.724 79.7146 151.969 79.0424 151.328C78.3701 150.668 77.5844 150.153 76.6853 149.786C75.7861 149.398 74.7637 149.209 73.6179 149.219C71.8679 149.234 70.4237 149.673 69.2853 150.537C68.1466 151.38 67.2496 152.461 66.5943 153.779C65.9596 155.076 65.5135 156.507 65.2561 158.072C65.0195 159.637 64.9073 161.127 64.9195 162.544C64.9275 163.481 64.988 164.46 65.101 165.48C65.2345 166.479 65.441 167.467 65.7202 168.444C65.9994 169.42 66.3616 170.355 66.8068 171.247C67.2518 172.118 67.8002 172.895 68.4519 173.576C69.1242 174.237 69.8996 174.762 70.778 175.15C71.6772 175.538 72.6997 175.728 73.8455 175.718C75.0121 175.708 76.0416 175.501 76.934 175.097C77.8262 174.673 78.5924 174.125 79.2325 173.453C79.8932 172.759 80.4489 171.963 80.8995 171.063C81.3499 170.143 81.7064 169.192 81.9688 168.21C82.231 167.208 82.4203 166.196 82.5365 165.174C82.6525 164.131 82.7065 163.141 82.6985 162.204ZM104.819 146.982L104.555 152.672C105.109 151.646 105.757 150.693 106.499 149.811C107.262 148.909 108.11 148.152 109.042 147.539C109.995 146.906 111.022 146.439 112.124 146.138C113.247 145.837 114.433 145.764 115.685 145.92C117.666 146.194 119.349 146.784 120.731 147.689C122.114 148.594 123.228 149.751 124.074 151.16C124.94 152.57 125.569 154.21 125.96 156.082C126.351 157.954 126.556 159.994 126.575 162.202C126.586 163.431 126.493 164.723 126.296 166.079C126.099 167.435 125.83 168.792 125.487 170.149C125.144 171.485 124.749 172.801 124.302 174.097C123.876 175.392 123.438 176.604 122.99 177.733L115.264 177.018C115.306 176.997 115.439 176.746 115.664 176.265C115.889 175.784 116.155 175.136 116.46 174.32C116.766 173.505 117.08 172.555 117.404 171.468C117.749 170.361 118.062 169.171 118.342 167.898C118.644 166.624 118.883 165.289 119.058 163.891C119.254 162.473 119.346 161.056 119.334 159.639C119.321 158.076 119.173 156.692 118.892 155.486C118.611 154.28 118.175 153.263 117.585 152.435C117.015 151.606 116.28 150.977 115.381 150.548C114.481 150.118 113.396 149.908 112.125 149.919C111.021 149.929 110.045 150.239 109.196 150.851C108.347 151.441 107.603 152.208 106.965 153.151C106.328 154.094 105.785 155.161 105.337 156.353C104.888 157.523 104.513 158.704 104.211 159.894L103.543 176.744L97.7349 177.294L96.2623 147.743L104.819 146.982ZM142.726 139.719C142.733 140.469 142.593 141.178 142.307 141.847C142.042 142.516 141.662 143.103 141.166 143.607C140.67 144.111 140.09 144.512 139.426 144.81C138.762 145.107 138.045 145.259 137.274 145.266C136.503 145.272 135.773 145.133 135.083 144.847C134.413 144.561 133.827 144.17 133.322 143.674C132.818 143.179 132.417 142.599 132.12 141.935C131.823 141.271 131.671 140.564 131.664 139.814C131.658 139.043 131.797 138.323 132.083 137.654C132.369 136.964 132.76 136.367 133.255 135.862C133.751 135.358 134.331 134.957 134.995 134.66C135.68 134.362 136.408 134.21 137.179 134.203C137.95 134.197 138.67 134.337 139.339 134.622C140.008 134.908 140.595 135.299 141.099 135.795C141.603 136.291 141.994 136.881 142.27 137.566C142.568 138.23 142.72 138.948 142.726 139.719ZM141.738 148.384L139.621 178.465L133.585 177.892L132.953 147.99L141.738 148.384ZM178.589 156.317L170.535 157.293L170.524 156.012C170.515 155.012 170.34 154.003 169.998 152.985C169.676 151.946 169.199 151.002 168.567 150.153C167.955 149.304 167.199 148.613 166.299 148.079C165.399 147.545 164.375 147.283 163.23 147.293C162.105 147.302 161.117 147.561 160.267 148.068C159.417 148.555 158.683 149.207 158.065 150.025C157.447 150.822 156.934 151.743 156.527 152.788C156.14 153.833 155.826 154.909 155.586 156.015C155.366 157.121 155.209 158.216 155.114 159.3C155.019 160.385 154.975 161.375 154.983 162.27C154.99 163.104 155.029 164.01 155.1 164.988C155.171 165.946 155.304 166.914 155.5 167.891C155.696 168.869 155.964 169.814 156.306 170.728C156.668 171.621 157.133 172.419 157.701 173.122C158.27 173.805 158.952 174.362 159.747 174.792C160.563 175.202 161.523 175.402 162.627 175.393C163.731 175.383 164.729 175.114 165.62 174.586C166.533 174.057 167.308 173.384 167.947 172.566C168.606 171.727 169.13 170.805 169.517 169.802C169.904 168.799 170.146 167.828 170.242 166.889L178.556 167.006C178.196 168.759 177.449 170.296 176.314 171.619C175.18 172.941 173.835 174.057 172.28 174.966C170.746 175.854 169.095 176.525 167.328 176.977C165.562 177.451 163.855 177.695 162.21 177.709C160.022 177.728 158.009 177.359 156.169 176.604C154.329 175.849 152.736 174.801 151.391 173.458C150.067 172.115 149.022 170.52 148.256 168.672C147.511 166.803 147.129 164.786 147.111 162.619C147.09 160.203 147.466 157.939 148.24 155.828C149.013 153.696 150.112 151.843 151.536 150.268C152.96 148.693 154.658 147.45 156.629 146.537C158.621 145.624 160.815 145.157 163.211 145.137C165.169 145.12 166.984 145.333 168.654 145.777C170.346 146.221 171.852 146.906 173.172 147.832C174.493 148.759 175.607 149.926 176.515 151.335C177.444 152.744 178.135 154.405 178.589 156.317ZM209.346 167.897L208.516 176.749L182.852 176L198.998 149.236L198.216 149.242C196.966 149.253 195.697 149.462 194.409 149.869C193.121 150.276 191.855 150.807 190.61 151.464C189.386 152.099 188.205 152.818 187.066 153.619C185.927 154.4 184.861 155.18 183.867 155.96L182.544 147.377L209.415 146.834L190.674 173.433C192.132 173.4 193.704 173.272 195.39 173.049C197.075 172.826 198.75 172.499 200.413 172.068C202.096 171.616 203.706 171.05 205.242 170.37C206.799 169.69 208.167 168.866 209.346 167.897ZM243.978 146.724C244.047 147.474 244.106 148.296 244.155 149.191C244.225 150.087 244.275 150.993 244.304 151.909C244.353 152.804 244.392 153.7 244.42 154.596C244.449 155.47 244.466 156.283 244.473 157.033C244.484 158.408 244.466 159.95 244.419 161.658C244.37 163.346 244.261 165.129 244.089 167.005C243.918 168.861 243.663 170.749 243.326 172.668C242.988 174.588 242.535 176.446 241.967 178.243C241.42 180.039 240.737 181.732 239.917 183.323C239.097 184.913 238.119 186.297 236.984 187.473C235.848 188.671 234.523 189.609 233.008 190.289C231.514 190.989 229.798 191.348 227.861 191.364C226.402 191.377 225.005 191.16 223.667 190.713C222.351 190.266 221.137 189.63 220.026 188.806C218.936 188.003 217.969 187.032 217.126 185.894C216.303 184.755 215.657 183.5 215.187 182.129L224.884 179.546C224.844 179.796 224.826 180.057 224.828 180.327C224.831 180.619 224.833 180.911 224.836 181.202C224.841 181.869 224.9 182.629 225.011 183.482C225.123 184.335 225.338 185.136 225.657 185.883C225.976 186.63 226.429 187.262 227.017 187.778C227.605 188.293 228.368 188.547 229.305 188.539C230.284 188.531 231.146 188.169 231.89 187.454C232.633 186.74 233.271 185.818 233.803 184.688C234.356 183.558 234.804 182.283 235.146 180.864C235.508 179.444 235.798 178.014 236.015 176.575C236.253 175.156 236.418 173.8 236.511 172.508C236.604 171.195 236.668 170.09 236.702 169.194C236.211 170.323 235.606 171.37 234.885 172.334C234.185 173.299 233.369 174.139 232.438 174.856C231.527 175.551 230.511 176.091 229.389 176.476C228.267 176.881 227.04 177.089 225.707 177.101C223.623 177.119 221.849 176.665 220.382 175.74C218.916 174.815 217.718 173.597 216.788 172.084C215.879 170.55 215.208 168.805 214.775 166.851C214.341 164.875 214.115 162.867 214.098 160.825C214.078 158.492 214.247 156.386 214.606 154.508C214.965 152.609 215.378 150.97 215.845 149.591C216.373 147.982 216.986 146.55 217.683 145.294L226.013 147.285C224.31 150.362 223.095 153.206 222.368 155.816C221.661 158.406 221.318 160.93 221.339 163.388C221.348 164.409 221.482 165.491 221.742 166.635C222.022 167.778 222.448 168.837 223.019 169.811C223.611 170.765 224.357 171.56 225.258 172.198C226.159 172.816 227.256 173.119 228.548 173.108C229.672 173.098 230.659 172.777 231.508 172.145C232.378 171.491 233.131 170.662 233.768 169.656C234.426 168.63 234.979 167.5 235.427 166.267C235.874 165.013 236.238 163.77 236.52 162.539C236.509 161.351 236.488 160.091 236.456 158.758C236.444 157.404 236.412 156.05 236.358 154.696C236.305 153.322 236.21 151.989 236.074 150.698C235.959 149.387 235.803 148.19 235.606 147.109L243.978 146.724ZM260.063 145.648L259.799 151.338C260.353 150.313 261.001 149.359 261.743 148.478C262.507 147.575 263.354 146.818 264.287 146.206C265.239 145.573 266.267 145.106 267.368 144.804C268.491 144.503 269.678 144.43 270.929 144.586C272.911 144.861 274.593 145.451 275.976 146.356C277.359 147.26 278.473 148.418 279.318 149.827C280.184 151.236 280.813 152.877 281.204 154.748C281.595 156.62 281.8 158.66 281.819 160.868C281.83 162.098 281.737 163.39 281.54 164.746C281.343 166.102 281.074 167.458 280.731 168.816C280.389 170.152 279.994 171.468 279.546 172.763C279.12 174.059 278.683 175.271 278.234 176.4L270.509 175.685C270.55 175.664 270.683 175.412 270.908 174.931C271.134 174.45 271.399 173.802 271.704 172.987C272.01 172.172 272.325 171.221 272.649 170.135C272.993 169.028 273.306 167.838 273.587 166.564C273.888 165.291 274.127 163.955 274.302 162.558C274.498 161.14 274.59 159.722 274.578 158.305C274.565 156.743 274.418 155.359 274.136 154.153C273.855 152.947 273.419 151.93 272.829 151.101C272.259 150.273 271.525 149.644 270.625 149.214C269.726 148.784 268.64 148.575 267.37 148.586C266.265 148.595 265.289 148.906 264.44 149.517C263.591 150.108 262.847 150.875 262.21 151.818C261.572 152.761 261.029 153.828 260.581 155.019C260.133 156.19 259.757 157.37 259.455 158.56L258.787 175.411L252.979 175.96L251.507 146.409L260.063 145.648ZM297.088 130.267L295.354 161.252C296.847 160.406 298.255 159.394 299.578 158.216C300.902 157.038 302.078 155.746 303.108 154.342C304.158 152.916 305.041 151.408 305.757 149.819C306.493 148.208 307.01 146.568 307.308 144.899L317.074 146.753C315.593 148.974 313.778 151.073 311.628 153.05C309.479 155.026 307.139 156.797 304.611 158.36C306.077 159.264 307.514 160.387 308.921 161.729C310.329 163.072 311.633 164.529 312.834 166.102C314.056 167.675 315.143 169.301 316.095 170.981C317.047 172.66 317.811 174.289 318.387 175.867L308.871 177.668C308.838 176.251 308.627 174.753 308.239 173.173C307.85 171.593 307.326 170.025 306.667 168.468C306.028 166.911 305.276 165.417 304.409 163.987C303.543 162.536 302.615 161.252 301.626 160.136C300.568 160.687 299.51 161.206 298.452 161.694C297.414 162.162 296.366 162.577 295.306 162.94L294.608 176.259L289.237 176.743L287.283 131.195L297.088 130.267ZM343.22 174.498L343.973 171.21C343.249 171.862 342.442 172.452 341.551 172.981C340.68 173.509 339.778 173.965 338.843 174.348C337.909 174.71 336.974 174.989 336.038 175.184C335.123 175.401 334.28 175.512 333.51 175.519C332.155 175.53 330.758 175.344 329.317 174.961C327.876 174.577 326.569 173.995 325.396 173.213C324.222 172.432 323.256 171.45 322.495 170.269C321.735 169.088 321.348 167.717 321.335 166.154C321.317 164.113 321.656 162.339 322.352 160.833C323.047 159.327 323.995 158.079 325.195 157.089C326.415 156.1 327.847 155.369 329.489 154.896C331.13 154.403 332.899 154.148 334.795 154.132C335.69 154.124 336.608 154.189 337.546 154.327C338.485 154.465 339.404 154.676 340.302 154.96C341.2 155.244 342.058 155.622 342.874 156.094C343.691 156.566 344.425 157.122 345.076 157.762C345.004 156.638 344.838 155.452 344.577 154.204C344.337 152.956 343.952 151.824 343.423 150.808C342.914 149.77 342.229 148.922 341.37 148.263C340.509 147.583 339.423 147.248 338.111 147.259C336.194 147.276 334.574 147.79 333.249 148.801C331.945 149.792 331.051 151.226 330.567 153.106L322.435 152.332C322.924 151.036 323.622 149.894 324.531 148.907C325.439 147.9 326.463 147.057 327.603 146.381C328.764 145.704 329.999 145.194 331.309 144.849C332.618 144.484 333.939 144.295 335.273 144.284C337.314 144.266 339.14 144.542 340.749 145.112C342.379 145.681 343.813 146.471 345.05 147.481C346.288 148.491 347.34 149.691 348.206 151.079C349.072 152.447 349.783 153.93 350.339 155.53C350.894 157.108 351.304 158.772 351.569 160.519C351.834 162.246 351.974 163.974 351.988 165.703C352.002 167.245 351.932 168.777 351.778 170.299C351.624 171.8 351.397 173.302 351.098 174.805L343.22 174.498ZM344.8 165.64C344.859 165.16 344.896 164.691 344.913 164.233C344.951 163.774 344.988 163.305 345.026 162.826C344.913 161.847 344.562 160.986 343.972 160.241C343.383 159.475 342.669 158.835 341.831 158.322C340.993 157.787 340.083 157.389 339.102 157.126C338.12 156.864 337.161 156.737 336.223 156.745C335.14 156.754 334.131 156.95 333.197 157.333C332.263 157.695 331.455 158.213 330.773 158.885C330.091 159.558 329.556 160.354 329.168 161.274C328.78 162.194 328.591 163.206 328.601 164.31C328.61 165.435 328.786 166.465 329.127 167.4C329.489 168.313 329.986 169.111 330.617 169.793C331.247 170.455 332.012 170.969 332.911 171.336C333.831 171.703 334.853 171.882 335.978 171.872C336.978 171.864 337.956 171.71 338.912 171.41C339.868 171.11 340.739 170.696 341.526 170.168C342.334 169.62 343.016 168.968 343.572 168.213C344.149 167.437 344.558 166.58 344.8 165.64Z" fill="#F2F2F2"/>
</svg>
