<svg width="101" height="126" viewBox="0 0 101 126" fill="none" xmlns="http://www.w3.org/2000/svg">
<path d="M74.6637 30.0687H70.0637C66.895 30.0771 63.7632 30.7487 60.8698 32.0404C57.9763 33.3321 55.3854 35.2153 53.2636 37.5687V26.7687C53.2372 20.7391 50.8234 14.9655 46.5504 10.7113C42.2775 6.45707 36.4933 4.06867 30.4636 4.06873H25.8636C25.068 4.06873 24.3049 4.3848 23.7423 4.94741C23.1797 5.51001 22.8636 6.27308 22.8636 7.06873V11.6687C22.8636 17.6984 25.252 23.4825 29.5062 27.7555C33.7604 32.0285 39.5341 34.4423 45.5636 34.4687H47.2636V59.4687C45.1443 57.1459 42.5656 55.2887 39.6908 54.0149C36.816 52.741 33.708 52.0783 30.5636 52.0687H25.8636C25.068 52.0687 24.3049 52.3848 23.7423 52.9474C23.1797 53.51 22.8636 54.2731 22.8636 55.0687V59.7687C22.8636 65.7984 25.252 71.5825 29.5062 75.8555C33.7604 80.1285 39.5341 82.5423 45.5636 82.5687H47.2636V91.3687H30.5636V97.3687H69.9636V91.3687H53.2636V60.4687H54.9636C60.976 60.4424 66.7345 58.0424 70.9859 53.791C75.2373 49.5396 77.6373 43.781 77.6637 37.7687V33.0687C77.6637 32.2731 77.3476 31.51 76.785 30.9474C76.2224 30.3848 75.4593 30.0687 74.6637 30.0687Z" fill="#27AE60" fill-opacity="0.84"/>
</svg>
