<svg width="101" height="126" viewBox="0 0 101 126" fill="none" xmlns="http://www.w3.org/2000/svg">
<g clip-path="url(#clip0)">
<path d="M36.144 18.3343C16.258 18.3343 0.139977 34.4533 0.138977 54.3383C0.138977 64.2803 4.56198 72.9123 10.685 79.7983L36.144 108.425L61.603 79.7993C67.724 72.9123 72.148 64.2803 72.148 54.3413C72.148 34.4533 56.028 18.3343 36.144 18.3343ZM57.927 76.1223C52.109 81.9383 44.371 85.1433 36.144 85.1433C27.914 85.1433 20.179 81.9383 14.36 76.1223C8.54198 70.3033 5.33698 62.5683 5.33698 54.3383C5.33698 37.3533 19.157 23.5323 36.144 23.5323C53.129 23.5323 66.95 37.3533 66.95 54.3383C66.95 62.5663 63.747 70.3033 57.927 76.1223Z" fill="black"/>
<path d="M36.143 25.2893C20.038 25.2893 6.935 38.3923 6.935 54.4973C6.935 62.2983 9.972 69.6333 15.489 75.1503C21.004 80.6683 28.339 83.7073 36.143 83.7073C43.947 83.7073 51.282 80.6683 56.796 75.1503C62.314 69.6363 65.352 62.3003 65.352 54.4973C65.351 38.3923 52.247 25.2893 36.143 25.2893ZM36.143 26.2893C51.697 26.2893 64.351 38.9433 64.352 54.4973C64.352 54.6233 64.344 54.7473 64.343 54.8733H7.944C7.942 54.7483 7.935 54.6233 7.935 54.4973C7.935 38.9433 20.589 26.2893 36.143 26.2893Z" fill="#EC1111"/>
</g>
<defs>
<clipPath id="clip0">
<rect x="0.138977" y="0.33429" width="100" height="125" fill="white"/>
</clipPath>
</defs>
</svg>
